SplineFontDB: 3.2
FontName: SeriousShannsBoldItalic
FullName: Serious Shanns Bold Italic
FamilyName: Serious Shanns Bold Italic
Weight: Bold
Copyright: https://github.com/kaBeech/serious-shanns/blob/main/LICENSE
Version: 6.0.0
ItalicAngle: -12.5
UnderlinePosition: 0
UnderlineWidth: 0
Ascent: 800
Descent: 200
InvalidEm: 0
sfntRevision: 0x00003333
LayerCount: 2
Layer: 0 0 "Back" 1
Layer: 1 0 "Fore" 0
XUID: [1021 45 630387186 10904090]
StyleMap: 0x0040
FSType: 4
OS2Version: 3
OS2_WeightWidthSlopeOnly: 0
OS2_UseTypoMetrics: 0
CreationTime: 1532631502
ModificationTime: 315532800
PfmFamily: 81
TTFWeight: 700
TTFWidth: 5
LineGap: 0
VLineGap: 0
Panose: 0 0 0 0 0 0 0 0 0 0
OS2TypoAscent: 613
OS2TypoAOffset: 0
OS2TypoDescent: -188
OS2TypoDOffset: 0
OS2TypoLinegap: 98
OS2WinAscent: 778
OS2WinAOffset: 0
OS2WinDescent: 308
OS2WinDOffset: 0
HheadAscent: 796
HheadAOffset: 0
HheadDescent: -317
HheadDOffset: 0
OS2SubXSize: 317
OS2SubYSize: 293
OS2SubXOff: 0
OS2SubYOff: 37
OS2SupXSize: 317
OS2SupYSize: 293
OS2SupXOff: 0
OS2SupYOff: 171
OS2StrikeYSize: 0
OS2StrikeYPos: 132
OS2CapHeight: 576
OS2XHeight: 485
OS2Vendor: 'NONE'
OS2CodePages: 00000001.00000000
OS2UnicodeRanges: 00000001.00000000.00000000.00000000
MarkAttachClasses: 1
DEI: 91125
LangName: 1033 "" "" "Normal" "" "" "Version 0.2.0"
Encoding: UnicodeBmp
Compacted: 1
UnicodeInterp: none
NameList: AGL For New Fonts
DisplaySize: -48
AntiAlias: 1
FitToEm: 0
WinInfo: 0 17 8
BeginPrivate: 9
BlueValues 32 [-40 -6 499 523 706 718 765 769]
OtherBlues 11 [-297 -287]
BlueScale 9 0.0291667
BlueShift 1 0
StdHW 5 [111]
StdVW 5 [118]
StemSnapH 33 [100 106 110 111 114 116 119 179]
StemSnapV 5 [118]
ForceBold 4 true
EndPrivate
BeginChars: 65537 121

StartChar: .notdef
Encoding: 65536 -1 0
Width: 650
GlyphClass: 1
Flags: W
HStem: -280 78<138.818 414.818> 683 78<342.818 618.818>
LayerCount: 2
Fore
SplineSet
47.818359375 -280 m 1
 288.818359375 761 l 1
 708.818359375 761 l 1
 468.818359375 -280 l 1
 47.818359375 -280 l 1
342.818359375 683 m 1
 138.818359375 -202 l 1
 414.818359375 -202 l 1
 618.818359375 683 l 1
 342.818359375 683 l 1
EndSplineSet
Validated: 524289
EndChar

StartChar: exclam
Encoding: 33 33 8
Width: 650
GlyphClass: 2
Flags: HMW
HStem: -36.998 179<378.26 454.593 389.26 454.593>
VStem: 330.26 309.998
LayerCount: 2
Fore
SplineSet
560.12890625 738 m 0
 558.795898438 732 549.130859375 694.668945312 531.130859375 626.001953125 c 0
 513.130859375 557.334960938 499.463867188 502.334960938 490.130859375 461.001953125 c 0
 485.463867188 441.668945312 480.963867188 421.501953125 476.630859375 400.501953125 c 0
 472.297851562 379.501953125 468.297851562 361.501953125 464.630859375 346.501953125 c 0
 460.963867188 331.501953125 458.130859375 321.168945312 456.130859375 315.501953125 c 0
 454.130859375 309.834960938 452.297851562 302.66796875 450.630859375 294.000976562 c 0
 448.963867188 285.333984375 447.130859375 277.333984375 445.130859375 270.000976562 c 0
 439.130859375 251.333984375 429.130859375 237.000976562 415.130859375 227.000976562 c 0
 401.797851562 217.66796875 387.797851562 212.66796875 373.130859375 212.000976562 c 2
 370.130859375 212.000976562 l 2
 354.797851562 212.000976562 343.46484375 217.66796875 336.131835938 229.000976562 c 0
 331.686523438 235.66796875 329.46484375 243.96484375 329.46484375 253.891601562 c 0
 329.46484375 258.854492188 330.01953125 264.223632812 331.130859375 270.000976562 c 0
 333.130859375 278.000976562 336.630859375 288.500976562 341.630859375 301.500976562 c 0
 346.630859375 314.500976562 350.130859375 324.000976562 352.130859375 330.000976562 c 0
 354.130859375 336.000976562 356.963867188 346.16796875 360.630859375 360.500976562 c 0
 364.297851562 374.833984375 367.630859375 388.666992188 370.630859375 402 c 0
 373.630859375 415.333007812 377.797851562 435.666015625 383.130859375 462.999023438 c 0
 389.130859375 494.999023438 395.463867188 525.666015625 402.130859375 554.999023438 c 0
 408.797851562 584.33203125 414.297851562 607.33203125 418.630859375 623.999023438 c 0
 422.963867188 640.666015625 428.296875 661.333007812 434.629882812 686 c 0
 440.962890625 710.666992188 445.129882812 727 447.129882812 735 c 0
 452.462890625 756.333007812 461.962890625 772.833007812 475.629882812 784.5 c 0
 489.296875 796.166992188 503.796875 802 519.129882812 802 c 2
 523.129882812 802 l 2
 537.796875 802 548.796875 796.666992188 556.129882812 786 c 0
 560.611328125 779.481445312 562.8515625 770.971679688 562.8515625 760.470703125 c 0
 562.8515625 753.787109375 561.944335938 746.296875 560.12890625 738 c 0
309.130859375 -36.998046875 m 2
 287.130859375 -36.998046875 270.797851562 -28.998046875 260.130859375 -12.998046875 c 0
 251.53515625 -0.3310546875 247.23828125 14.0234375 247.23828125 30.06640625 c 0
 247.23828125 37.666015625 248.202148438 45.64453125 250.130859375 54.001953125 c 0
 255.463867188 78.001953125 269.130859375 98.3349609375 291.130859375 115.001953125 c 0
 315.130859375 133.001953125 338.963867188 142.001953125 362.630859375 142.001953125 c 0
 386.297851562 142.001953125 403.797851562 134.001953125 415.130859375 118.001953125 c 0
 423.130859375 106.890625 427.130859375 93.927734375 427.130859375 79.11328125 c 0
 427.130859375 71.7060546875 426.130859375 63.8349609375 424.130859375 55.501953125 c 0
 418.130859375 30.501953125 405.630859375 9.6689453125 386.630859375 -6.998046875 c 0
 367.630859375 -23.6650390625 345.130859375 -33.6650390625 319.130859375 -36.998046875 c 2
 309.130859375 -36.998046875 l 2
EndSplineSet
Validated: 524289
EndChar

StartChar: quotedbl
Encoding: 34 34 9
Width: 650
GlyphClass: 2
Flags: W
LayerCount: 2
Fore
SplineSet
475.477539062 739 m 0
 474.14453125 730.333007812 471.141601562 716.333984375 466.474609375 697.000976562 c 0
 461.807617188 677.66796875 452.807617188 641.66796875 439.474609375 589.000976562 c 0
 425.474609375 533.66796875 414.474609375 495.000976562 406.474609375 473.000976562 c 0
 400.474609375 456.333984375 390.807617188 443.666992188 377.474609375 435 c 0
 365.474609375 427 353.807617188 423 342.474609375 423 c 0
 327.141601562 423 313.80859375 428 302.475585938 438 c 0
 295.942382812 444.533203125 292.67578125 452.700195312 292.67578125 462.5 c 0
 292.67578125 466.700195312 293.275390625 471.200195312 294.475585938 476 c 2
 296.475585938 482 l 2
 303.80859375 508 311.80859375 540 320.475585938 578 c 0
 323.142578125 588.666992188 325.475585938 600 327.475585938 612 c 0
 342.142578125 679.333007812 351.809570312 724.666015625 356.4765625 747.999023438 c 0
 358.4765625 756.666015625 362.143554688 764.333007812 367.4765625 771 c 0
 374.143554688 779 381.810546875 785 390.477539062 789 c 0
 400.9765625 793.083007812 411.221679688 795.125 421.209960938 795.125 c 0
 422.637695312 795.125 424.060546875 795.083007812 425.477539062 795 c 0
 434.810546875 795 442.310546875 794.166992188 447.977539062 792.5 c 0
 453.64453125 790.833007812 459.14453125 788 464.477539062 784 c 0
 469.810546875 780 473.477539062 774 475.477539062 766 c 0
 477.477539062 758 477.477539062 749 475.477539062 739 c 0
624.474609375 738.000976562 m 0
 623.141601562 731.333984375 621.807617188 725.001953125 620.474609375 719.001953125 c 0
 612.474609375 685.001953125 601.807617188 641.668945312 588.474609375 589.001953125 c 0
 574.474609375 533.668945312 563.807617188 495.001953125 556.474609375 473.001953125 c 0
 550.474609375 456.334960938 540.474609375 443.66796875 526.474609375 435.000976562 c 0
 514.474609375 427.000976562 502.474609375 423.000976562 490.474609375 423.000976562 c 0
 475.141601562 423.000976562 462.474609375 428.000976562 452.474609375 438.000976562 c 0
 445.59765625 444.877929688 442.159179688 453.565429688 442.159179688 464.0625 c 0
 442.159179688 467.811523438 442.59765625 471.791015625 443.474609375 476.000976562 c 2
 445.474609375 482.000976562 l 2
 452.141601562 504.66796875 459.141601562 532.000976562 466.474609375 564.000976562 c 0
 481.807617188 631.333984375 494.474609375 691.000976562 504.474609375 743.000976562 c 1
 504.474609375 746.000976562 l 2
 506.474609375 755.333984375 510.641601562 763.833984375 516.974609375 771.500976562 c 0
 523.307617188 779.16796875 530.807617188 785.000976562 539.474609375 789.000976562 c 0
 549.973632812 793.083984375 560.21875 795.125976562 570.20703125 795.125976562 c 0
 571.634765625 795.125976562 573.057617188 795.083984375 574.474609375 795.000976562 c 0
 583.807617188 795.000976562 591.307617188 794.16796875 596.974609375 792.500976562 c 0
 602.641601562 790.833984375 608.141601562 788.333984375 613.474609375 785.000976562 c 0
 619.474609375 781.000976562 623.307617188 774.833984375 624.974609375 766.500976562 c 0
 626.641601562 758.16796875 626.474609375 748.66796875 624.474609375 738.000976562 c 0
EndSplineSet
Validated: 524289
EndChar

StartChar: numbersign
Encoding: 35 35 10
Width: 650
GlyphClass: 2
Flags: HMW
HStem: -14 21G<157.256 164.59> 178.501 108.501<338.59 338.59> 433.002 109.002<445.586 484.586 400.586 526.586>
LayerCount: 2
Fore
SplineSet
283.58984375 431 m 1
 266.256835938 430.333007812 256.5859375 430.334960938 254.5859375 431.001953125 c 0
 237.918945312 431.001953125 225.918945312 435.334960938 218.5859375 444.001953125 c 0
 212.938476562 451.060546875 210.115234375 459.448242188 210.115234375 469.165039062 c 0
 210.115234375 473.212890625 210.60546875 477.4921875 211.5859375 482.001953125 c 2
 211.5859375 485.001953125 l 2
 214.918945312 499.001953125 222.751953125 511.334960938 235.084960938 522.001953125 c 0
 247.41796875 532.668945312 262.91796875 538.3359375 281.584960938 539.002929688 c 0
 292.251953125 539.669921875 307.584960938 540.002929688 327.584960938 540.002929688 c 1
 386.584960938 686.002929688 l 2
 397.251953125 706.669921875 409.918945312 721.002929688 424.5859375 729.002929688 c 0
 434.5859375 734.3359375 444.5859375 737.002929688 454.5859375 737.002929688 c 0
 458.5859375 737.002929688 462.918945312 736.3359375 467.5859375 735.002929688 c 0
 482.918945312 731.669921875 493.251953125 723.336914062 498.584960938 710.00390625 c 0
 500.985351562 704.404296875 502.185546875 698.204101562 502.185546875 691.404296875 c 0
 502.185546875 686.87109375 501.651367188 682.0703125 500.584960938 677.00390625 c 0
 499.251953125 671.00390625 496.918945312 665.00390625 493.5859375 659.00390625 c 2
 445.5859375 542.00390625 l 1
 526.5859375 542.00390625 l 1
 581.5859375 678.00390625 l 2
 592.252929688 699.336914062 604.919921875 714.00390625 619.586914062 722.00390625 c 0
 629.586914062 727.336914062 639.586914062 729.669921875 649.586914062 729.002929688 c 0
 654.25390625 729.002929688 658.920898438 728.669921875 663.587890625 728.002929688 c 0
 678.920898438 724.669921875 689.587890625 716.336914062 695.587890625 703.00390625 c 0
 697.98828125 697.803710938 699.188476562 692.00390625 699.188476562 685.603515625 c 0
 699.188476562 681.336914062 698.654296875 676.803710938 697.587890625 672.00390625 c 0
 696.254882812 665.336914062 693.587890625 658.336914062 689.587890625 651.00390625 c 0
 677.587890625 626.336914062 662.254882812 590.336914062 643.587890625 543.00390625 c 1
 660.254882812 542.336914062 672.921875 537.00390625 681.588867188 527.00390625 c 0
 689.921875 517.559570312 694.088867188 507.189453125 694.088867188 495.892578125 c 0
 694.088867188 493.633789062 693.921875 491.336914062 693.588867188 489.00390625 c 0
 690.255859375 473.670898438 682.422851562 460.670898438 670.08984375 450.00390625 c 0
 657.756835938 439.336914062 642.58984375 433.669921875 624.58984375 433.002929688 c 2
 623.58984375 433.002929688 l 1
 599.58984375 433.002929688 l 1
 542.58984375 286.002929688 l 1
 567.58984375 286.002929688 l 2
 585.58984375 286.002929688 597.256835938 281.3359375 602.58984375 272.002929688 c 0
 606.14453125 265.78125 607.922851562 258.522460938 607.922851562 250.2265625 c 0
 607.922851562 246.078125 607.477539062 241.669921875 606.588867188 237.002929688 c 2
 606.588867188 236.002929688 l 2
 603.255859375 220.002929688 596.922851562 207.669921875 587.58984375 199.002929688 c 0
 575.58984375 186.3359375 560.58984375 180.002929688 542.58984375 180.002929688 c 2
 500.58984375 180.002929688 l 1
 472.58984375 109.3359375 452.922851562 60.6689453125 441.58984375 34.001953125 c 0
 430.922851562 16.6689453125 416.922851562 3.3359375 399.58984375 -5.9970703125 c 0
 389.390625 -11.396484375 380.000976562 -14.0966796875 371.421875 -14.0966796875 c 0
 370.467773438 -14.0966796875 369.524414062 -14.0634765625 368.590820312 -13.9970703125 c 0
 363.2578125 -13.9970703125 358.2578125 -13.330078125 353.590820312 -11.9970703125 c 0
 339.590820312 -8.6640625 330.590820312 1.6689453125 326.590820312 19.001953125 c 0
 324.590820312 28.3349609375 324.923828125 37.66796875 327.590820312 47.0009765625 c 0
 329.590820312 55.0009765625 332.590820312 63.333984375 336.590820312 72.0009765625 c 0
 347.923828125 96.0009765625 363.256835938 131.66796875 382.58984375 179.000976562 c 1
 371.256835938 179.000976562 356.58984375 178.833984375 338.58984375 178.500976562 c 0
 320.58984375 178.16796875 305.922851562 178.000976562 294.58984375 178.000976562 c 1
 256.58984375 88.0009765625 236.922851562 41.333984375 235.58984375 38.0009765625 c 0
 226.256835938 21.333984375 212.256835938 7.6669921875 193.58984375 -3 c 0
 180.922851562 -10.3330078125 169.58984375 -14 159.58984375 -14 c 0
 154.922851562 -14 149.922851562 -13.3330078125 144.58984375 -12 c 0
 130.58984375 -8.6669921875 122.256835938 2.3330078125 119.58984375 21 c 0
 118.256835938 30.3330078125 118.58984375 39.5 120.58984375 48.5 c 0
 122.58984375 57.5 125.922851562 66.6669921875 130.58984375 76 c 0
 138.58984375 92 153.922851562 125.666992188 176.58984375 177 c 1
 162.58984375 177 l 2
 144.58984375 177 131.58984375 181 123.58984375 189 c 0
 117.330078125 195.259765625 114.200195312 203.2578125 114.200195312 212.995117188 c 0
 114.200195312 216.739257812 114.663085938 220.741210938 115.588867188 225 c 2
 115.588867188 229 l 2
 118.921875 243 126.421875 255 138.088867188 265 c 0
 149.755859375 275 164.922851562 280.666992188 183.58984375 282 c 0
 188.922851562 282 195.58984375 282.166992188 203.58984375 282.5 c 0
 211.58984375 282.833007812 217.58984375 283 221.58984375 283 c 2
 283.58984375 431 l 1
484.5859375 433.001953125 m 1
 400.5859375 433.001953125 l 1
 339.5859375 287.001953125 l 1
 425.5859375 287.001953125 l 1
 445.5859375 334.334960938 465.252929688 383.001953125 484.5859375 433.001953125 c 1
EndSplineSet
Validated: 524289
EndChar

StartChar: dollar
Encoding: 36 36 11
Width: 650
GlyphClass: 2
Flags: HMW
HStem: 623.002 101
VStem: 516.361 117.492
LayerCount: 2
Fore
SplineSet
326.850585938 -130 m 0
 312.517578125 -140 297.026367188 -144.999023438 280.359375 -144.999023438 c 2
 279.359375 -144.999023438 l 2
 262.692382812 -144.999023438 251.359375 -138.999023438 245.359375 -126.999023438 c 0
 242.63671875 -121.943359375 241.275390625 -115.866210938 241.275390625 -108.767578125 c 0
 241.275390625 -103.698242188 241.969726562 -98.1083984375 243.358398438 -91.998046875 c 0
 244.025390625 -88.6650390625 245.525390625 -82.83203125 247.858398438 -74.4990234375 c 0
 250.19140625 -66.166015625 254.024414062 -51.9990234375 259.357421875 -31.9990234375 c 1
 237.357421875 -31.33203125 216.357421875 -27.9990234375 196.357421875 -21.9990234375 c 0
 177.690429688 -16.666015625 161.690429688 -8.666015625 148.357421875 2.0009765625 c 0
 123.024414062 22.0009765625 107.024414062 46.0009765625 100.357421875 74.0009765625 c 0
 98.8330078125 82.3818359375 98.0712890625 90.3271484375 98.0712890625 97.8369140625 c 0
 98.0712890625 103.469726562 98.5 108.857421875 99.357421875 114.000976562 c 0
 100.024414062 118.000976562 101.357421875 121.66796875 103.357421875 125.000976562 c 0
 110.024414062 139.66796875 121.024414062 150.66796875 136.357421875 158.000976562 c 0
 145.024414062 162.000976562 151.857421875 164.500976562 156.857421875 165.500976562 c 0
 161.857421875 166.500976562 165.857421875 167.000976562 168.857421875 167.000976562 c 2
 177.357421875 167.000976562 l 2
 184.690429688 166.333984375 190.857421875 163.000976562 195.857421875 157.000976562 c 0
 200.857421875 151.000976562 205.357421875 143.333984375 209.357421875 134.000976562 c 0
 217.357421875 115.333984375 228.024414062 100.666992188 241.357421875 90 c 0
 252.690429688 81.3330078125 267.690429688 76.3330078125 286.357421875 75 c 1
 310.357421875 174.333007812 331.690429688 263.666015625 350.357421875 342.999023438 c 1
 348.357421875 342.999023438 344.690429688 343.666015625 339.357421875 344.999023438 c 0
 336.024414062 345.666015625 331.357421875 345.999023438 325.357421875 345.999023438 c 0
 300.024414062 348.666015625 278.357421875 355.333007812 260.357421875 366 c 0
 243.690429688 376.666992188 230.857421875 389.333984375 221.857421875 404.000976562 c 0
 212.857421875 418.66796875 207.024414062 434.500976562 204.357421875 451.500976562 c 0
 203.291015625 458.30078125 202.756835938 465.07421875 202.756835938 471.8203125 c 0
 202.756835938 481.940429688 203.95703125 492.000976562 206.357421875 502.000976562 c 0
 212.357421875 526.66796875 221.524414062 550.334960938 233.857421875 573.001953125 c 0
 246.190429688 595.668945312 262.0234375 616.8359375 281.356445312 636.502929688 c 0
 300.689453125 656.169921875 324.356445312 673.002929688 352.356445312 687.002929688 c 0
 379.0234375 699.669921875 407.356445312 709.002929688 437.356445312 715.002929688 c 1
 440.689453125 728.3359375 444.689453125 744.002929688 449.356445312 762.002929688 c 0
 457.356445312 794.002929688 472.356445312 814.3359375 494.356445312 823.002929688 c 0
 501.689453125 825.669921875 510.356445312 827.002929688 520.356445312 827.002929688 c 0
 541.0234375 827.002929688 554.356445312 820.002929688 560.356445312 806.002929688 c 0
 562.869140625 800.259765625 564.125976562 793.645507812 564.125976562 786.163085938 c 0
 564.125976562 779.748046875 563.203125 772.694335938 561.356445312 765.001953125 c 0
 556.689453125 745.001953125 553.356445312 731.334960938 551.356445312 724.001953125 c 1
 565.356445312 722.668945312 583.689453125 719.001953125 606.356445312 713.001953125 c 0
 628.356445312 707.668945312 645.356445312 702.668945312 657.356445312 698.001953125 c 0
 670.689453125 692.668945312 679.022460938 683.668945312 682.35546875 671.001953125 c 0
 685.022460938 661.668945312 685.35546875 652.001953125 683.35546875 642.001953125 c 0
 682.688476562 638.668945312 681.688476562 635.001953125 680.35546875 631.001953125 c 0
 677.022460938 621.001953125 671.522460938 613.001953125 663.85546875 607.001953125 c 0
 656.188476562 601.001953125 648.021484375 597.334960938 639.354492188 596.001953125 c 0
 635.354492188 595.334960938 631.6875 595.001953125 628.354492188 595.001953125 c 0
 625.021484375 595.001953125 621.354492188 595.168945312 617.354492188 595.501953125 c 0
 613.354492188 595.834960938 608.6875 597.001953125 603.354492188 599.001953125 c 0
 596.6875 600.334960938 589.020507812 603.001953125 580.353515625 607.001953125 c 0
 564.353515625 615.668945312 546.686523438 621.001953125 527.353515625 623.001953125 c 1
 511.353515625 558.334960938 496.020507812 497.001953125 481.353515625 439.001953125 c 1
 508.020507812 434.334960938 532.353515625 427.334960938 554.353515625 418.001953125 c 0
 574.353515625 408.001953125 590.020507812 396.001953125 601.353515625 382.001953125 c 0
 612.686523438 368.001953125 621.01953125 352.168945312 626.352539062 334.501953125 c 0
 631.372070312 317.873046875 633.881835938 301.245117188 633.881835938 284.616210938 c 0
 633.881835938 270.657226562 632.295898438 250.924804688 626.352539062 228.000976562 c 0
 619.01953125 196.66796875 607.01953125 167.000976562 590.352539062 139.000976562 c 0
 573.685546875 111.000976562 554.018554688 86.66796875 531.3515625 66.0009765625 c 0
 508.684570312 45.333984375 483.3515625 27.6669921875 455.3515625 13 c 0
 428.684570312 -0.3330078125 401.017578125 -11 372.350585938 -19 c 1
 364.350585938 -53 359.68359375 -76 358.350585938 -88 c 0
 351.68359375 -106 341.18359375 -120 326.850585938 -130 c 0
358.359375 585.000976562 m 0
 339.692382812 569.66796875 327.692382812 551.666992188 322.359375 531 c 0
 321.359375 526.666992188 320.859375 522.4375 320.859375 518.3125 c 0
 320.859375 505.9375 325.359375 494.5 334.359375 484 c 0
 344.359375 472 358.359375 463 376.359375 457 c 1
 386.359375 498.333007812 399.026367188 551.333007812 414.359375 616 c 1
 393.026367188 608.666992188 374.359375 598.333984375 358.359375 585.000976562 c 0
467.359375 137 m 0
 491.359375 157.666992188 506.360351562 181.33203125 512.360351562 207.999023438 c 0
 515.02734375 219.999023438 516.360351562 230.33203125 516.360351562 238.999023438 c 0
 516.360351562 248.999023438 514.02734375 259.33203125 509.360351562 269.999023438 c 0
 502.02734375 288.666015625 483.02734375 304.333007812 452.360351562 317 c 1
 434.360351562 240.333007812 422.52734375 190.5 416.860351562 167.5 c 0
 411.193359375 144.5 405.026367188 119.666992188 398.359375 93 c 1
 424.359375 105 447.359375 119.666992188 467.359375 137 c 0
EndSplineSet
Validated: 524289
EndChar

StartChar: percent
Encoding: 37 37 12
Width: 650
GlyphClass: 2
Flags: HMW
HStem: -40.0059 100.999<424.881 471.881 437.881 471.881> 158.993 98<499.881 500.878> 420 98.9951<265.207 310.88> 607.994 97.0068<320.88 376.542>
VStem: 342.881 97.998<102.993 103.993 103.993 103.993> 359.881 101.995 521.879 96.002
LayerCount: 2
Fore
SplineSet
185.374023438 491.5 m 0xf6
 183.431640625 500.612304688 182.4609375 509.959960938 182.4609375 519.541015625 c 0
 182.4609375 531.338867188 183.932617188 543.4921875 186.875976562 556 c 0
 186.875976562 556.666992188 187.208984375 557.333984375 187.875976562 558.000976562 c 0
 197.875976562 600.000976562 217.708984375 635.000976562 247.375976562 663.000976562 c 0
 277.04296875 691.000976562 313.875976562 705.000976562 357.875976562 705.000976562 c 0
 395.208984375 705.000976562 423.875976562 693.000976562 443.875976562 669.000976562 c 0
 454.54296875 656.333984375 460.54296875 640.000976562 461.875976562 620.000976562 c 0
 462.171875 616.446289062 462.3203125 612.79296875 462.3203125 609.041015625 c 0
 462.3203125 595.904296875 460.504882812 581.557617188 456.875 566.000976562 c 0
 444.875 515.333984375 422.875 477.666992188 390.875 453 c 0
 362.208007812 431 324.541015625 420 277.874023438 420 c 0
 252.541015625 420 231.874023438 426.833007812 215.874023438 440.5 c 0
 199.874023438 454.166992188 189.70703125 471.166992188 185.374023438 491.5 c 0xf6
93.8759765625 -45 m 0
 86.54296875 -41 80.8798828125 -36.0048828125 76.8798828125 -30.0048828125 c 0
 72.212890625 -22.0048828125 71.212890625 -12.5048828125 73.8798828125 -1.5048828125 c 0
 76.546875 9.4951171875 82.546875 21.328125 91.8798828125 33.9951171875 c 0
 111.212890625 61.9951171875 155.545898438 120.328125 224.87890625 208.995117188 c 0
 371.545898438 387.662109375 444.87890625 477.329101562 444.87890625 477.99609375 c 0
 518.211914062 567.99609375 568.544921875 632.663085938 595.877929688 671.99609375 c 0
 609.2109375 685.99609375 624.2109375 694.99609375 640.877929688 698.99609375 c 2
 654.877929688 700.99609375 l 2
 664.877929688 700.99609375 673.544921875 698.329101562 680.877929688 692.99609375 c 0
 692.911132812 686.030273438 698.927734375 676.356445312 698.927734375 663.975585938 c 0
 698.927734375 659.627929688 698.447265625 656.840820312 697.877929688 653.997070312 c 0
 695.2109375 642.6640625 688.543945312 630.331054688 677.876953125 616.998046875 c 0
 645.876953125 577.665039062 564.876953125 477.33203125 434.876953125 315.999023438 c 0
 304.209960938 154.666015625 217.54296875 45.666015625 174.875976562 -11.0009765625 c 0
 154.701171875 -37.6826171875 135.162109375 -51.0234375 116.258789062 -51.0234375 c 0
 115.797851562 -51.0234375 115.336914062 -51.015625 114.875976562 -51 c 0
 107.54296875 -51 100.54296875 -49 93.8759765625 -45 c 0
357.379882812 597.495117188 m 0
 351.712890625 604.495117188 341.546875 607.994140625 326.879882812 607.994140625 c 0
 314.879882812 607.994140625 305.546875 604.327148438 298.879882812 596.994140625 c 0
 290.212890625 588.327148438 283.212890625 576.327148438 277.879882812 560.994140625 c 0
 277.879882812 559.661132812 277.546875 558.328125 276.879882812 556.995117188 c 0
 274.212890625 544.995117188 274.712890625 535.995117188 278.379882812 529.995117188 c 0
 282.046875 523.995117188 292.546875 520.328125 309.879882812 518.995117188 c 2
 310.879882812 518.995117188 l 2
 322.879882812 518.995117188 332.546875 522.328125 339.879882812 528.995117188 c 0
 348.546875 536.995117188 355.213867188 547.662109375 359.880859375 560.995117188 c 0
 359.880859375 561.662109375 360.213867188 562.662109375 360.880859375 563.995117188 c 0
 362.115234375 569.673828125 362.732421875 574.780273438 362.732421875 579.31640625 c 0
 362.732421875 587.02734375 360.948242188 593.087890625 357.379882812 597.495117188 c 0
341.380859375 33.994140625 m 0
 339.108398438 43.69140625 337.971679688 53.6630859375 337.971679688 63.9111328125 c 0
 337.971679688 76.2080078125 339.608398438 88.90234375 342.880859375 101.993164062 c 1
 342.880859375 103.993164062 l 1xfa
 352.880859375 147.993164062 373.880859375 184.493164062 405.880859375 213.493164062 c 0
 437.880859375 242.493164062 476.880859375 256.993164062 522.880859375 256.993164062 c 0
 558.213867188 256.993164062 584.880859375 244.66015625 602.880859375 219.993164062 c 0
 612.213867188 206.66015625 617.213867188 189.327148438 617.880859375 167.994140625 c 0
 617.963867188 165.993164062 618.005859375 163.966796875 618.005859375 161.9140625 c 0
 618.005859375 147.549804688 615.963867188 131.909179688 611.880859375 114.994140625 c 0
 610.547851562 108.327148438 608.880859375 101.66015625 606.880859375 94.9931640625 c 0
 594.880859375 51.66015625 575.380859375 18.3271484375 548.380859375 -5.005859375 c 0
 521.380859375 -28.3388671875 486.213867188 -40.005859375 442.880859375 -40.005859375 c 2
 437.880859375 -40.005859375 l 2
 411.880859375 -40.005859375 390.547851562 -33.005859375 373.880859375 -19.005859375 c 0
 357.213867188 -5.005859375 346.380859375 12.6611328125 341.380859375 33.994140625 c 0
471.880859375 60.9931640625 m 2
 474.877929688 60.9921875 l 2
 486.2109375 60.9921875 495.2109375 64.3251953125 501.877929688 70.9921875 c 0
 510.544921875 79.6591796875 517.211914062 91.326171875 521.87890625 105.993164062 c 1
 521.87890625 108.993164062 l 2
 523.73046875 117.880859375 524.65625 125.53515625 524.65625 131.954101562 c 0
 524.65625 137.090820312 524.063476562 141.4375 522.877929688 144.993164062 c 0
 518.877929688 154.326171875 508.877929688 158.993164062 492.877929688 158.993164062 c 0
 480.877929688 158.993164062 470.877929688 154.66015625 462.877929688 145.993164062 c 0
 453.544921875 135.993164062 446.211914062 122.66015625 440.87890625 105.993164062 c 1
 440.87890625 102.993164062 l 2
 437.545898438 89.66015625 437.712890625 79.4931640625 441.379882812 72.4931640625 c 0
 445.046875 65.4931640625 455.213867188 61.66015625 471.880859375 60.9931640625 c 2
EndSplineSet
Validated: 524289
EndChar

StartChar: ampersand
Encoding: 38 38 13
Width: 650
GlyphClass: 2
Flags: HMW
HStem: -53.9971 117.999<238.213 291.88> 633.001 103.001<446.212 490.547>
LayerCount: 2
Fore
SplineSet
563.879882812 11 m 0
 563.212890625 7.6669921875 562.212890625 4.0009765625 560.879882812 0.0009765625 c 0
 553.546875 -23.33203125 542.546875 -38.6650390625 527.879882812 -45.998046875 c 0
 515.212890625 -50.6650390625 507.212890625 -52.998046875 503.879882812 -52.998046875 c 2
 502.879882812 -52.998046875 l 2
 494.879882812 -52.998046875 486.879882812 -50.3310546875 478.879882812 -44.998046875 c 0
 464.879882812 -36.3310546875 454.879882812 -21.3310546875 448.879882812 0.001953125 c 0
 448.212890625 3.3349609375 447.045898438 10.8349609375 445.37890625 22.501953125 c 2
 441.87890625 47.001953125 l 1
 433.87890625 38.3349609375 427.711914062 31.8349609375 423.37890625 27.501953125 c 0
 419.045898438 23.1689453125 412.212890625 16.8359375 402.879882812 8.5029296875 c 0
 393.546875 0.169921875 385.713867188 -6.330078125 379.380859375 -10.9970703125 c 0
 373.047851562 -15.6640625 364.547851562 -21.1640625 353.880859375 -27.4970703125 c 0
 343.213867188 -33.830078125 333.213867188 -38.4970703125 323.880859375 -41.4970703125 c 0
 314.547851562 -44.4970703125 304.047851562 -47.330078125 292.380859375 -49.9970703125 c 0
 280.713867188 -52.6640625 268.880859375 -53.9970703125 256.880859375 -53.9970703125 c 0
 219.547851562 -53.9970703125 188.047851562 -43.830078125 162.380859375 -23.4970703125 c 0
 136.713867188 -3.1640625 119.213867188 23.6689453125 109.880859375 57.001953125 c 0
 105.041992188 74.28515625 102.622070312 92.28515625 102.622070312 111.002929688 c 0
 102.622070312 128.383789062 104.708984375 146.383789062 108.881835938 165.001953125 c 0
 122.21484375 223.001953125 143.881835938 272.668945312 173.881835938 314.001953125 c 0
 208.548828125 362.668945312 253.881835938 400.668945312 309.881835938 428.001953125 c 1
 299.881835938 455.501953125 l 2
 295.881835938 466.501953125 292.881835938 475.001953125 290.881835938 481.001953125 c 0
 288.881835938 487.001953125 286.71484375 494.834960938 284.381835938 504.501953125 c 0
 282.048828125 514.168945312 280.881835938 522.668945312 280.881835938 530.001953125 c 0
 280.881835938 550.001953125 283.21484375 569.668945312 287.881835938 589.001953125 c 0
 290.548828125 601.668945312 295.048828125 614.501953125 301.381835938 627.501953125 c 0
 307.71484375 640.501953125 316.381835938 653.668945312 327.381835938 667.001953125 c 0
 338.381835938 680.334960938 351.048828125 692.001953125 365.381835938 702.001953125 c 0
 379.71484375 712.001953125 396.881835938 720.168945312 416.881835938 726.501953125 c 0
 436.881835938 732.834960938 458.21484375 736.001953125 480.881835938 736.001953125 c 0
 500.21484375 736.001953125 518.381835938 732.668945312 535.381835938 726.001953125 c 0
 552.381835938 719.334960938 567.21484375 709.834960938 579.881835938 697.501953125 c 0
 592.548828125 685.168945312 601.048828125 668.668945312 605.381835938 648.001953125 c 0
 607.19921875 639.334960938 608.107421875 630.2578125 608.107421875 620.770507812 c 0
 608.107421875 607.633789062 606.365234375 593.7109375 602.881835938 579.001953125 c 0
 597.548828125 556.334960938 590.048828125 535.16796875 580.381835938 515.500976562 c 0
 570.71484375 495.833984375 560.21484375 479.333984375 548.881835938 466.000976562 c 0
 537.548828125 452.66796875 524.215820312 440.16796875 508.8828125 428.500976562 c 0
 493.549804688 416.833984375 480.716796875 408.000976562 470.383789062 402.000976562 c 0
 460.05078125 396.000976562 449.883789062 390.66796875 439.883789062 386.000976562 c 1
 446.55078125 366.000976562 456.55078125 340.833984375 469.883789062 310.500976562 c 0
 483.216796875 280.16796875 492.549804688 257.66796875 497.8828125 243.000976562 c 1
 500.549804688 247.000976562 504.549804688 253.16796875 509.8828125 261.500976562 c 0
 515.215820312 269.833984375 520.548828125 278.000976562 525.881835938 286.000976562 c 0
 531.21484375 294.000976562 535.547851562 300.000976562 538.880859375 304.000976562 c 0
 555.547851562 324.000976562 570.880859375 336.333984375 584.880859375 341.000976562 c 0
 590.213867188 343.000976562 595.546875 344.000976562 600.879882812 344.000976562 c 0
 609.546875 344.000976562 617.879882812 341.66796875 625.879882812 337.000976562 c 0
 637.340820312 330.366210938 643.071289062 319.091796875 643.071289062 303.178710938 c 0
 643.071289062 301.50390625 643.0078125 299.778320312 642.880859375 298.000976562 c 0
 642.880859375 294.000976562 642.213867188 290.000976562 640.880859375 286.000976562 c 0
 637.547851562 272.000976562 630.547851562 257.333984375 619.880859375 242.000976562 c 0
 615.213867188 235.333984375 603.213867188 222.166992188 583.880859375 202.5 c 0
 564.547851562 182.833007812 548.547851562 165.333007812 535.880859375 150 c 1
 539.880859375 138 545.047851562 121.166992188 551.380859375 99.5 c 0
 557.713867188 77.8330078125 561.546875 65 562.879882812 61 c 0
 565.392578125 52.384765625 566.649414062 43.576171875 566.649414062 34.57421875 c 0
 566.649414062 26.8583984375 565.7265625 19 563.879882812 11 c 0
394.879882812 572.000976562 m 0
 393.213867188 564.66796875 392.379882812 557.000976562 392.379882812 549.000976562 c 0
 392.379882812 541.001953125 393.213867188 532.668945312 394.879882812 524.001953125 c 0
 398.212890625 506.668945312 402.879882812 491.668945312 408.879882812 479.001953125 c 1
 420.212890625 482.334960938 430.212890625 486.16796875 438.879882812 490.500976562 c 0
 447.546875 494.833984375 456.379882812 500.333984375 465.379882812 507.000976562 c 0
 474.379882812 513.66796875 481.712890625 522.000976562 487.379882812 532.000976562 c 0
 493.046875 542.000976562 497.546875 554.333984375 500.879882812 569.000976562 c 0
 502.473632812 576.057617188 503.270507812 582.551757812 503.270507812 588.481445312 c 0
 503.270507812 599.916992188 500.306640625 609.256835938 494.379882812 616.500976562 c 0
 485.379882812 627.500976562 472.212890625 633.000976562 454.879882812 633.000976562 c 0
 437.546875 633.000976562 423.879882812 627.333984375 413.879882812 616.000976562 c 0
 405.879882812 606.000976562 399.546875 591.333984375 394.879882812 572.000976562 c 0
226.879882812 174.001953125 m 0
 223.947265625 161.203125 222.48046875 149.310546875 222.48046875 138.32421875 c 0
 222.48046875 121.842773438 225.780273438 107.40234375 232.380859375 95.001953125 c 0
 243.380859375 74.3349609375 260.880859375 64.001953125 284.880859375 64.001953125 c 0
 298.880859375 64.001953125 313.880859375 66.6689453125 329.880859375 72.001953125 c 0
 335.213867188 73.3349609375 341.380859375 76.3349609375 348.380859375 81.001953125 c 2
 364.880859375 92.001953125 l 2
 368.880859375 94.6689453125 373.880859375 99.001953125 379.880859375 105.001953125 c 0
 385.880859375 111.001953125 390.213867188 115.168945312 392.880859375 117.501953125 c 0
 395.547851562 119.834960938 398.880859375 123.501953125 402.880859375 128.501953125 c 0
 406.880859375 133.501953125 409.547851562 136.668945312 410.880859375 138.001953125 c 0
 406.880859375 158.001953125 402.880859375 176.001953125 398.880859375 192.001953125 c 0
 394.880859375 207.334960938 386.380859375 230.834960938 373.380859375 262.501953125 c 0
 360.380859375 294.168945312 350.880859375 318.001953125 344.880859375 334.001953125 c 1
 329.547851562 326.668945312 315.547851562 318.001953125 302.880859375 308.001953125 c 0
 288.213867188 296.001953125 276.046875 283.001953125 266.379882812 269.001953125 c 0
 256.712890625 255.001953125 248.712890625 240.334960938 242.379882812 225.001953125 c 0
 236.046875 209.668945312 230.879882812 192.668945312 226.879882812 174.001953125 c 0
EndSplineSet
Validated: 524289
EndChar

StartChar: quotesingle
Encoding: 39 39 14
Width: 650
GlyphClass: 2
Flags: W
LayerCount: 2
Fore
SplineSet
547.790039062 728 m 0
 545.790039062 719.333007812 542.790039062 705.833007812 538.790039062 687.5 c 0
 534.790039062 669.166992188 528.123046875 641.333984375 518.790039062 604.000976562 c 0
 504.123046875 546.000976562 492.790039062 506.000976562 484.790039062 484.000976562 c 0
 478.790039062 466.66796875 468.790039062 453.66796875 454.790039062 445.000976562 c 0
 442.790039062 437.66796875 431.123046875 434.000976562 419.790039062 434.000976562 c 0
 403.790039062 434.000976562 390.45703125 439.000976562 379.790039062 449.000976562 c 0
 373.256835938 455.534179688 369.990234375 463.701171875 369.990234375 473.500976562 c 0
 369.990234375 477.701171875 370.58984375 482.201171875 371.790039062 487.000976562 c 0
 371.790039062 489.000976562 372.45703125 491.000976562 373.790039062 493.000976562 c 0
 381.790039062 519.66796875 389.123046875 549.66796875 395.790039062 583.000976562 c 0
 406.45703125 630.333984375 417.124023438 680.000976562 427.791015625 732.000976562 c 1
 427.791015625 735.000976562 l 2
 429.791015625 744.333984375 433.791015625 752.666992188 439.791015625 760 c 0
 446.458007812 768.666992188 454.125 774.666992188 462.791992188 778 c 0
 474.791992188 782.666992188 486.791992188 785 498.791992188 785 c 0
 508.125 785 515.458007812 784 520.791015625 782 c 0
 526.124023438 780 531.45703125 777.333007812 536.790039062 774 c 0
 542.790039062 770 546.623046875 763.833007812 548.290039062 755.5 c 0
 549.95703125 747.166992188 549.790039062 738 547.790039062 728 c 0
EndSplineSet
Validated: 524289
EndChar

StartChar: parenleft
Encoding: 40 40 15
Width: 650
GlyphClass: 2
Flags: HMW
HStem: -144 109<365.999 420.662> 721 105<579.666 620.665>
LayerCount: 2
Fore
SplineSet
447.994140625 -93 m 0
 444.661132812 -107.666992188 436.666015625 -119.833007812 423.999023438 -129.5 c 0
 411.33203125 -139.166992188 399.33203125 -144 387.999023438 -144 c 0
 343.999023438 -144 307.999023438 -127 279.999023438 -93 c 0
 251.999023438 -59 233.83203125 -13 225.499023438 45 c 0
 221.844726562 70.4375 220.016601562 97.5419921875 220.016601562 126.314453125 c 0
 220.016601562 163.14453125 223.01171875 202.706054688 229 245 c 0
 231.666992188 265.666992188 236.666992188 291.5 244 322.5 c 0
 251.333007812 354.166992188 262 392.666992188 276 438 c 0
 300.666992188 517.333007812 328 582.333007812 358 633 c 0
 371.333007812 656.333007812 387.666015625 679 406.999023438 701 c 0
 426.33203125 723 446.999023438 743.5 468.999023438 762.5 c 0
 490.999023438 781.5 514.83203125 796.833007812 540.499023438 808.5 c 0
 566.166015625 820.166992188 589.999023438 826 611.999023438 826 c 0
 629.33203125 826 640.999023438 820.333007812 646.999023438 809 c 0
 649.721679688 803.944335938 651.083007812 797.75390625 651.083007812 790.428710938 c 0
 651.083007812 785.197265625 650.388671875 779.387695312 649 773 c 0
 645 755 636.666992188 741.666992188 624 733 c 0
 612.666992188 725 600.166992188 721 586.5 721 c 0
 572.833007812 721 558.666015625 716.5 543.999023438 707.5 c 0
 529.33203125 698.5 515.33203125 685.666992188 501.999023438 669 c 0
 474.666015625 637 450.666015625 597.333007812 429.999023438 550 c 0
 413.999023438 514.666992188 397.666015625 468 380.999023438 410 c 0
 372.33203125 379.333007812 365.165039062 351.833007812 359.498046875 327.5 c 0
 353.831054688 303.166992188 349.6640625 281.666992188 346.997070312 263 c 0
 341.854492188 228.713867188 339.283203125 195.286132812 339.283203125 162.71484375 c 0
 339.283203125 157.286132812 339.354492188 151.880859375 339.497070312 146.5 c 0
 340.497070312 108.833007812 344.6640625 76.8330078125 351.997070312 50.5 c 0
 359.330078125 24.1669921875 368.663085938 3 379.99609375 -13 c 0
 390.663085938 -27 401.663085938 -34.3330078125 412.99609375 -35 c 0
 428.329101562 -35 439.162109375 -39.3330078125 445.495117188 -48 c 0
 449.141601562 -52.990234375 450.963867188 -60.0791015625 450.963867188 -69.2666015625 c 0
 450.963867188 -76.0380859375 449.974609375 -83.94921875 447.994140625 -93 c 0
EndSplineSet
Validated: 524289
EndChar

StartChar: parenright
Encoding: 41 41 16
Width: 650
GlyphClass: 2
Flags: HMW
HStem: -144 108.998<207.233 211.9> 721 105<383.567 424.233>
VStem: 468.9 108.999
LayerCount: 2
Fore
SplineSet
189.900390625 -144 m 0
 178.567382812 -144 168.568359375 -139.169921875 159.901367188 -129.502929688 c 0
 153.641601562 -122.520507812 150.51171875 -114.234375 150.51171875 -104.64453125 c 0
 150.51171875 -100.95703125 150.974609375 -97.076171875 151.900390625 -93.001953125 c 0
 156.567382812 -71.6689453125 164.400390625 -56.6689453125 175.400390625 -48.001953125 c 0
 186.400390625 -39.3349609375 199.567382812 -35.001953125 214.900390625 -35.001953125 c 0
 226.233398438 -35.001953125 240.56640625 -27.6689453125 257.899414062 -13.001953125 c 0
 276.56640625 2.998046875 295.56640625 24.1650390625 314.899414062 50.498046875 c 0
 334.232421875 76.8310546875 353.232421875 108.998046875 371.899414062 146.998046875 c 0
 390.56640625 184.998046875 406.233398438 223.665039062 418.900390625 262.998046875 c 0
 424.900390625 282.998046875 430.567382812 304.831054688 435.900390625 328.498046875 c 0
 441.233398438 352.165039062 446.900390625 379.33203125 452.900390625 409.999023438 c 0
 463.567382812 468.666015625 468.900390625 515.333007812 468.900390625 550 c 0
 468.93359375 552.333984375 468.950195312 554.65234375 468.950195312 556.953125 c 0
 468.950195312 600.65234375 462.93359375 638.333984375 450.900390625 670 c 0
 444.900390625 686 436.733398438 698.5 426.400390625 707.5 c 0
 416.067382812 716.5 404.067382812 721 390.400390625 721 c 0
 376.733398438 721 365.900390625 725 357.900390625 733 c 0
 351.970703125 738.9296875 349.005859375 747.043945312 349.005859375 757.342773438 c 0
 349.005859375 762.096679688 349.63671875 767.315429688 350.900390625 773 c 0
 352.900390625 783 356.567382812 792 361.900390625 800 c 0
 367.233398438 808 373.56640625 814 380.899414062 818 c 0
 390.899414062 823.333007812 401.56640625 826 412.899414062 826 c 0
 435.56640625 826 456.899414062 820.166992188 476.899414062 808.5 c 0
 496.899414062 796.833007812 513.56640625 781.5 526.899414062 762.5 c 0
 540.232421875 743.5 551.399414062 723 560.399414062 701 c 0
 569.399414062 679 575.232421875 656.333007812 577.899414062 633 c 0
 579.9765625 615.231445312 581.014648438 595.825195312 581.014648438 574.78125 c 0
 581.014648438 535.030273438 577.309570312 489.436523438 569.899414062 438 c 0
 563.232421875 392 556.232421875 353.5 548.899414062 322.5 c 0
 541.56640625 291.5 534.56640625 265.666992188 527.899414062 245 c 0
 503.899414062 169.666992188 474.232421875 103 438.899414062 45 c 0
 403.56640625 -13 364.233398438 -59 320.900390625 -93 c 0
 277.567382812 -127 233.900390625 -144 189.900390625 -144 c 0
EndSplineSet
Validated: 524289
EndChar

StartChar: asterisk
Encoding: 42 42 17
Width: 650
GlyphClass: 2
Flags: HMW
HStem: 281.001 127.999<192.601 228.602> 289 119.001<586.934 616.6> 294 101.001
LayerCount: 2
Fore
SplineSet
264.6015625 102 m 2x20
 255.600585938 102.000976562 l 2
 251.600585938 102.000976562 246.43359375 102.66796875 240.100585938 104.000976562 c 0
 233.767578125 105.333984375 227.934570312 108.166992188 222.6015625 112.5 c 0
 217.268554688 116.833007812 212.935546875 122.833007812 209.602539062 130.5 c 0
 206.26953125 138.166992188 205.26953125 147.333984375 206.602539062 158.000976562 c 0
 206.602539062 160.000976562 206.935546875 162.66796875 207.602539062 166.000976562 c 0
 209.602539062 176.66796875 214.602539062 186.66796875 222.602539062 196.000976562 c 2
 293.602539062 285.000976562 l 1
 252.935546875 282.333984375 222.268554688 281.000976562 201.6015625 281.000976562 c 0
 183.6015625 281.000976562 170.6015625 287.66796875 162.6015625 301.000976562 c 0
 157.83984375 309.572265625 155.458984375 319.1640625 155.458984375 329.775390625 c 0
 155.458984375 334.020507812 155.83984375 338.4296875 156.6015625 343.000976562 c 2
 156.6015625 346.000976562 l 2
 159.268554688 359.333984375 165.935546875 372.666992188 176.602539062 386 c 0
 182.602539062 394 190.602539062 400 200.602539062 404 c 0
 207.935546875 407.333007812 215.935546875 409 224.602539062 409 c 2
 228.602539062 409 l 1
 229.602539062 409 l 2x80
 254.26953125 407 288.26953125 404.333007812 331.602539062 401 c 1
 318.935546875 439.666992188 307.935546875 470 298.602539062 492 c 0
 295.3203125 501.026367188 293.6796875 510.177734375 293.6796875 519.456054688 c 0
 293.6796875 525.254882812 294.3203125 531.102539062 295.602539062 537 c 0
 296.26953125 539.666992188 297.26953125 542.333984375 298.602539062 545.000976562 c 0
 305.26953125 563.66796875 315.602539062 576.66796875 329.602539062 584.000976562 c 0
 338.935546875 589.333984375 348.768554688 592.000976562 359.1015625 592.000976562 c 0
 369.434570312 592.000976562 378.934570312 589.000976562 387.6015625 583.000976562 c 0
 396.934570312 576.333984375 402.934570312 566.333984375 405.6015625 553.000976562 c 0
 408.268554688 539.000976562 415.935546875 507.333984375 428.602539062 458.000976562 c 1
 455.26953125 492.66796875 477.602539062 524.000976562 495.602539062 552.000976562 c 0
 504.26953125 564.66796875 514.26953125 574.16796875 525.602539062 580.500976562 c 0
 536.935546875 586.833984375 547.268554688 590.000976562 556.6015625 590.000976562 c 0
 566.6015625 590.000976562 574.934570312 587.333984375 581.6015625 582.000976562 c 0
 588.268554688 578.000976562 593.1015625 571.333984375 596.1015625 562.000976562 c 0
 597.689453125 557.059570312 598.484375 551.745117188 598.484375 546.055664062 c 0
 598.484375 541 597.856445312 535.647460938 596.6015625 530.000976562 c 0
 593.934570312 516.66796875 587.267578125 504.334960938 576.600585938 493.001953125 c 0
 553.267578125 466.334960938 527.600585938 433.66796875 499.600585938 395.000976562 c 1x20
 542.93359375 395.66796875 574.266601562 399.000976562 593.599609375 405.000976562 c 0
 602.266601562 407.000976562 607.93359375 408.000976562 610.600585938 408.000976562 c 0x40
 622.600585938 408.000976562 631.93359375 403.66796875 638.600585938 395.000976562 c 0x20
 646.100585938 385.500976562 649.850585938 375.4375 649.850585938 364.8125 c 0
 649.850585938 361.270507812 649.43359375 357.666992188 648.600585938 354 c 0
 645.267578125 339.333007812 638.600585938 325.333007812 628.600585938 312 c 0
 622.600585938 304 615.267578125 297.666992188 606.600585938 293 c 0
 600.600585938 290.333007812 594.600585938 289 588.600585938 289 c 0x40
 585.267578125 289 581.934570312 289.333007812 578.6015625 290 c 0
 563.934570312 292.666992188 536.934570312 294 497.6015625 294 c 2
 476.6015625 294 l 1
 507.6015625 196 l 2
 509.453125 187.852539062 510.37890625 180.116210938 510.37890625 172.791992188 c 0
 510.37890625 166.931640625 509.786132812 161.333984375 508.600585938 156 c 0
 507.93359375 153.333007812 506.93359375 150.666015625 505.600585938 147.999023438 c 0
 500.267578125 132.666015625 491.267578125 121.333007812 478.600585938 114 c 0
 467.93359375 108 456.266601562 105 443.599609375 105 c 0
 433.599609375 105 424.266601562 107.333007812 415.599609375 112 c 0
 404.266601562 118 398.266601562 128 397.599609375 142 c 0
 396.266601562 164 390.599609375 194.666992188 380.599609375 234 c 1
 346.599609375 184.666992188 324.599609375 151.666992188 314.599609375 135 c 0
 309.266601562 124.333007812 301.93359375 116.333007812 292.600585938 111 c 0
 283.267578125 105.666992188 273.934570312 102.666992188 264.6015625 102 c 2x20
EndSplineSet
Validated: 524289
EndChar

StartChar: plus
Encoding: 43 43 18
Width: 650
GlyphClass: 2
Flags: HMW
HStem: 346 106<538.682 544.682 538.682 538.682>
LayerCount: 2
Fore
SplineSet
448.682617188 348 m 1
 426.685546875 250 l 2
 422.018554688 230.666992188 414.518554688 217 404.185546875 209 c 0
 393.852539062 201 382.01953125 196.333007812 368.686523438 195 c 2
 367.686523438 195 l 2
 353.01953125 195 342.01953125 199 334.686523438 207 c 0
 328.747070312 212.939453125 325.77734375 220.903320312 325.77734375 230.892578125 c 0
 325.77734375 236.599609375 326.747070312 242.96875 328.686523438 249.999023438 c 2
 350.686523438 344.999023438 l 1
 267.686523438 343.999023438 l 2
 249.01953125 343.999023438 236.186523438 349.33203125 229.186523438 359.999023438 c 0
 224.444335938 367.224609375 222.07421875 375.369140625 222.07421875 384.430664062 c 0
 222.07421875 388.745117188 222.611328125 393.268554688 223.686523438 398 c 0
 223.686523438 398.666992188 224.01953125 400 224.686523438 402 c 0
 228.01953125 416 235.352539062 428.333007812 246.685546875 439 c 0
 258.018554688 449.666992188 272.3515625 455 289.684570312 455 c 0
 291.017578125 455 300.850585938 454.833007812 319.18359375 454.5 c 0
 337.516601562 454.166992188 356.349609375 453.666992188 375.682617188 453 c 1
 384.349609375 492.333007812 391.016601562 525.666015625 395.68359375 552.999023438 c 0
 399.68359375 571.666015625 408.68359375 585.333007812 422.68359375 594 c 0
 432.68359375 600.666992188 444.68359375 604 458.68359375 604 c 2
 462.68359375 604 l 2
 476.016601562 604 486.349609375 600.666992188 493.682617188 594 c 0
 499.31640625 588.799804688 502.1328125 581.487304688 502.1328125 572.0625 c 0
 502.1328125 566.987304688 501.31640625 561.299804688 499.682617188 555 c 0
 499.682617188 553 499.349609375 551 498.682617188 549 c 0
 488.682617188 515 480.349609375 482.666992188 473.682617188 452 c 1
 564.682617188 452 l 2
 582.682617188 452 594.349609375 447.333007812 599.682617188 438 c 0
 603.237304688 431.778320312 605.015625 424.51953125 605.015625 416.223632812 c 0
 605.015625 412.075195312 604.5703125 407.666992188 603.681640625 403 c 2
 603.681640625 402 l 2
 602.348632812 394.666992188 600.348632812 388.166992188 597.681640625 382.5 c 0
 595.014648438 376.833007812 591.34765625 371 586.680664062 365 c 0
 581.34765625 357.666992188 574.014648438 352.666992188 564.681640625 350 c 0
 558.681640625 348 552.014648438 346.666992188 544.681640625 346 c 2
 538.681640625 346 l 2
 529.348632812 346.666992188 516.015625 347.166992188 498.682617188 347.5 c 0
 481.349609375 347.833007812 464.682617188 348 448.682617188 348 c 1
EndSplineSet
Validated: 524289
EndChar

StartChar: comma
Encoding: 44 44 19
Width: 650
GlyphClass: 2
Flags: HMW
VStem: 176.631 279.998
LayerCount: 2
Fore
SplineSet
247.626953125 -223 m 0
 236.293945312 -227 226.963867188 -228.999023438 219.630859375 -228.999023438 c 0
 212.297851562 -228.999023438 206.297851562 -227.999023438 201.630859375 -225.999023438 c 0
 194.297851562 -223.33203125 188.130859375 -218.165039062 183.130859375 -210.498046875 c 0
 178.130859375 -202.831054688 175.963867188 -193.331054688 176.630859375 -181.998046875 c 0
 176.630859375 -179.998046875 176.963867188 -177.998046875 177.630859375 -175.998046875 c 0
 179.630859375 -165.998046875 185.297851562 -155.998046875 194.630859375 -145.998046875 c 0
 211.297851562 -127.331054688 238.630859375 -84.3310546875 276.630859375 -16.998046875 c 0
 314.630859375 49.6689453125 338.963867188 96.6689453125 349.630859375 124.001953125 c 0
 354.963867188 136.001953125 362.963867188 145.501953125 373.630859375 152.501953125 c 0
 384.297851562 159.501953125 394.630859375 163.001953125 404.630859375 163.001953125 c 0
 405.297851562 163.001953125 406.297851562 163.334960938 407.630859375 164.001953125 c 0
 414.963867188 164.001953125 422.296875 163.001953125 429.629882812 161.001953125 c 0
 440.962890625 157.001953125 449.295898438 149.334960938 454.62890625 138.001953125 c 0
 457.029296875 132.40234375 458.229492188 126.202148438 458.229492188 119.40234375 c 0
 458.229492188 114.869140625 457.6953125 110.068359375 456.62890625 105.001953125 c 0
 455.961914062 100.334960938 454.62890625 96.66796875 452.62890625 94.0009765625 c 0
 438.62890625 61.333984375 413.62890625 10.333984375 377.62890625 -58.9990234375 c 0
 340.961914062 -128.33203125 314.794921875 -171.33203125 299.127929688 -187.999023438 c 0
 283.4609375 -204.666015625 266.293945312 -216.333007812 247.626953125 -223 c 0
EndSplineSet
Validated: 524289
EndChar

StartChar: hyphen
Encoding: 45 45 20
Width: 650
GlyphClass: 2
Flags: HMW
HStem: 230.001 111.999<264.695 313.695> 234.501 109
VStem: 233.028 313.001<285 296.001>
LayerCount: 2
Fore
SplineSet
296.028320312 342 m 0xa0
 331.361328125 342 373.529296875 342.500976562 422.529296875 343.500976562 c 0
 471.529296875 344.500976562 499.362304688 345.000976562 506.029296875 345.000976562 c 0
 524.029296875 345.000976562 535.862304688 340.333984375 541.529296875 331.000976562 c 0
 545.3828125 324.654296875 547.309570312 317.229492188 547.309570312 308.724609375 c 0
 547.309570312 304.72265625 546.8828125 300.481445312 546.029296875 296.000976562 c 1
 545.029296875 295.000976562 l 1
 541.696289062 279.000976562 535.696289062 266.66796875 527.029296875 258.000976562 c 0
 515.029296875 245.333984375 500.029296875 239.000976562 482.029296875 239.000976562 c 0
 474.029296875 239.000976562 442.529296875 237.500976562 387.529296875 234.500976562 c 0x60
 332.529296875 231.500976562 294.029296875 230.000976562 272.029296875 230.000976562 c 0
 257.362304688 230.000976562 246.6953125 234.000976562 240.028320312 242.000976562 c 0
 234.098632812 248.38671875 231.133789062 257.11328125 231.133789062 268.1796875 c 0
 231.133789062 273.288085938 231.764648438 278.89453125 233.028320312 285 c 0
 233.028320312 286.333007812 233.361328125 288 234.028320312 290 c 0
 238.028320312 308.666992188 246.6953125 322.666992188 260.028320312 332 c 0
 270.028320312 338.666992188 282.028320312 342 296.028320312 342 c 0xa0
EndSplineSet
Validated: 524289
EndChar

StartChar: period
Encoding: 46 46 21
Width: 650
GlyphClass: 2
Flags: HMW
HStem: -26 178.002<300.56 376.893 311.56 376.893>
VStem: 251.56 175.5
LayerCount: 2
Fore
SplineSet
311.559570312 -26 m 2
 289.559570312 -26 272.892578125 -18 261.559570312 -2 c 0
 252.963867188 10.6669921875 248.666992188 24.71484375 248.666992188 40.14453125 c 0
 248.666992188 47.453125 249.630859375 55.072265625 251.559570312 63.0009765625 c 0
 257.559570312 87.66796875 271.559570312 108.334960938 293.559570312 125.001953125 c 0
 317.559570312 143.001953125 341.392578125 152.001953125 365.059570312 152.001953125 c 0
 388.7265625 152.001953125 406.2265625 144.001953125 417.559570312 128.001953125 c 0
 425.7109375 116.680664062 429.786132812 103.514648438 429.786132812 88.5029296875 c 0
 429.786132812 81.4130859375 428.876953125 73.9130859375 427.059570312 66.0009765625 c 0
 421.392578125 41.333984375 408.892578125 20.6669921875 389.559570312 4 c 0
 370.2265625 -12.6669921875 347.559570312 -22.6669921875 321.559570312 -26 c 2
 311.559570312 -26 l 2
EndSplineSet
Validated: 524289
EndChar

StartChar: slash
Encoding: 47 47 22
Width: 650
GlyphClass: 2
Flags: HMW
HStem: 746 20G<678.093 688.093>
LayerCount: 2
Fore
SplineSet
136.091796875 -67 m 0
 126.091796875 -71 116.760742188 -73.16796875 108.09375 -73.5009765625 c 0
 99.4267578125 -73.833984375 92.09375 -71.333984375 86.09375 -66.0009765625 c 0
 77.560546875 -59.6015625 73.2939453125 -48.5078125 73.2939453125 -32.7216796875 c 0
 73.2939453125 -28.775390625 73.560546875 -24.53515625 74.09375 -20.0009765625 c 0
 74.09375 -16.66796875 74.7607421875 -13.0009765625 76.09375 -9.0009765625 c 0
 80.09375 8.33203125 88.09375 24.9990234375 100.09375 40.9990234375 c 0
 227.426757812 200.999023438 337.759765625 342.999023438 431.092773438 466.999023438 c 0
 489.092773438 542.999023438 551.759765625 629.666015625 619.092773438 726.999023438 c 0
 627.759765625 739.666015625 638.092773438 749.333007812 650.092773438 756 c 0
 662.092773438 762.666992188 673.092773438 766 683.092773438 766 c 0
 693.092773438 766 702.42578125 763.666992188 711.092773438 759 c 0
 723.759765625 751 730.426757812 739 731.09375 723 c 0
 731.09375 718.333007812 730.426757812 713.333007812 729.09375 708 c 0
 726.426757812 696.666992188 720.759765625 684.333984375 712.092773438 671.000976562 c 0
 688.092773438 636.333984375 623.42578125 552.500976562 518.092773438 419.500976562 c 0
 412.759765625 286.500976562 348.092773438 204.000976562 324.092773438 172.000976562 c 0
 309.42578125 151.333984375 285.258789062 116.333984375 251.591796875 67.0009765625 c 0
 217.924804688 17.66796875 197.091796875 -12.33203125 189.091796875 -22.9990234375 c 0
 173.091796875 -43.666015625 155.424804688 -58.3330078125 136.091796875 -67 c 0
EndSplineSet
Validated: 524289
EndChar

StartChar: zero
Encoding: 48 48 23
Width: 650
GlyphClass: 2
Flags: HMW
HStem: -24 107.996<277.542 328.21> 611.997 106.003<449.877 522.544>
LayerCount: 2
Fore
SplineSet
672.2109375 491 m 0
 671.543945312 488.333007812 671.54296875 487.999023438 672.209960938 489.999023438 c 1
 666.209960938 450.666015625 658.54296875 410.666015625 649.209960938 369.999023438 c 0
 639.876953125 329.33203125 629.376953125 289.33203125 617.709960938 249.999023438 c 0
 606.04296875 210.666015625 594.875976562 179.666015625 584.208984375 156.999023438 c 0
 563.541992188 114.33203125 541.541992188 79.6650390625 518.208984375 52.998046875 c 0
 506.875976562 39.6650390625 494.54296875 28.33203125 481.209960938 18.9990234375 c 0
 467.876953125 9.666015625 454.876953125 2.3330078125 442.209960938 -3 c 0
 428.876953125 -8.3330078125 413.876953125 -13 397.209960938 -17 c 0
 380.54296875 -20.3330078125 364.375976562 -22.3330078125 348.708984375 -23 c 0
 333.041992188 -23.6669921875 314.875 -24 294.208007812 -24 c 0
 260.875 -24 231.208007812 -18.3330078125 205.208007812 -7 c 0
 181.208007812 4.3330078125 162.208007812 20.5 148.208007812 41.5 c 0
 134.208007812 62.5 125.708007812 87.6669921875 122.708007812 117 c 0
 121.889648438 125 121.48046875 133.173828125 121.48046875 141.520507812 c 0
 121.48046875 163.779296875 124.389648438 187.272460938 130.208007812 212 c 0
 130.208007812 214 130.541015625 216 131.208007812 218 c 0
 138.541015625 250 145.541015625 280.666992188 152.208007812 310 c 0
 156.875 330.666992188 163.041992188 356 170.708984375 386 c 0
 178.375976562 416 185.54296875 440.833007812 192.209960938 460.5 c 0
 198.876953125 480.166992188 207.209960938 501.333984375 217.209960938 524.000976562 c 0
 227.209960938 547.333984375 237.209960938 567.666992188 247.209960938 585 c 0
 273.209960938 628.333007812 307.876953125 661.333007812 351.209960938 684 c 0
 397.876953125 706.666992188 450.209960938 718 508.209960938 718 c 0
 536.876953125 718 562.876953125 713.333007812 586.209960938 704 c 0
 608.876953125 694.666992188 627.543945312 680.666992188 642.2109375 662 c 0
 656.877929688 643.333007812 666.877929688 619.5 672.2109375 590.5 c 0
 674.876953125 576 676.2109375 560.458007812 676.2109375 543.875 c 0
 676.2109375 527.291015625 674.876953125 509.666015625 672.2109375 491 c 0
517.209960938 599.999023438 m 0
 504.2109375 608.046875 488.912109375 612.068359375 471.315429688 612.068359375 c 0
 469.959960938 612.068359375 468.591796875 612.044921875 467.209960938 611.997070312 c 0
 432.54296875 611.997070312 403.709960938 602.830078125 380.709960938 584.497070312 c 0
 357.709960938 566.1640625 335.876953125 534.997070312 315.209960938 490.997070312 c 0
 307.209960938 473.6640625 299.876953125 455.331054688 293.209960938 435.998046875 c 0
 287.209960938 416.665039062 281.54296875 393.998046875 276.209960938 367.998046875 c 0
 266.876953125 327.998046875 256.876953125 281.665039062 246.209960938 228.998046875 c 1
 352.876953125 339.665039062 452.876953125 453.33203125 546.209960938 569.999023438 c 1
 538.876953125 582.666015625 529.209960938 592.666015625 517.209960938 599.999023438 c 0
557.209960938 457.997070312 m 1
 459.876953125 330.6640625 356.876953125 221.99609375 248.209960938 131.99609375 c 1
 257.54296875 100.663085938 281.209960938 84.6630859375 319.209960938 83.99609375 c 0
 337.209960938 83.99609375 353.04296875 85.49609375 366.709960938 88.49609375 c 0
 380.376953125 91.49609375 393.876953125 96.3291015625 407.209960938 102.99609375 c 0
 433.876953125 116.99609375 457.876953125 143.99609375 479.209960938 183.99609375 c 0
 483.209960938 191.99609375 490.876953125 213.329101562 502.209960938 247.99609375 c 0
 513.54296875 282.663085938 525.209960938 323.330078125 537.209960938 369.997070312 c 0
 545.209960938 400.6640625 551.876953125 429.997070312 557.209960938 457.997070312 c 1
EndSplineSet
Validated: 524289
EndChar

StartChar: one
Encoding: 49 49 24
Width: 650
GlyphClass: 2
Flags: HMW
HStem: -9 111 -5 114<116.364 166.363>
LayerCount: 2
Fore
SplineSet
85.033203125 33 m 0x40
 85.033203125 38 86.033203125 43 87.033203125 49 c 0
 87.033203125 50 87.033203125 52 88.033203125 53 c 0
 91.033203125 68 98.033203125 80 107.033203125 91 c 0
 119.033203125 103 134.033203125 109 153.033203125 109 c 0x40
 180.033203125 109 226.033203125 108 291.033203125 107 c 1
 296.033203125 126 299.033203125 143 301.033203125 157 c 0
 302.033203125 163 305.033203125 180 312.033203125 208 c 0
 318.033203125 233 323.033203125 254 328.033203125 271 c 2
 356.033203125 379 l 2
 383.033203125 480 399.033203125 539 404.033203125 556 c 1
 357.033203125 526 323.033203125 507 300.033203125 499 c 0
 292.033203125 497 287.033203125 496 284.033203125 496 c 0
 273.033203125 496 262.033203125 501 253.033203125 511 c 0
 244.033203125 521 239.033203125 532 239.033203125 542 c 0
 239.033203125 545 240.033203125 548 241.033203125 552 c 0
 244.033203125 565 249.033203125 577 257.033203125 587 c 0
 265.033203125 597 276.033203125 607 290.033203125 616 c 0
 311.033203125 630 338.033203125 649 373.033203125 672 c 1
 385.033203125 674 399.033203125 683 414.033203125 699 c 0
 426.033203125 707 439.033203125 714 452.033203125 721 c 0
 464.033203125 727 474.033203125 730 483.033203125 730 c 2
 486.033203125 730 l 2
 503.033203125 730 519.033203125 723 534.033203125 710 c 0
 542.033203125 703 547.033203125 696 550.033203125 690 c 0
 551.033203125 688 552.033203125 686 552.033203125 683 c 0
 552.033203125 672 544.033203125 643 509.033203125 514 c 0
 485.033203125 424 471.033203125 371 467.033203125 356 c 0
 452.033203125 294 441.033203125 242 432.033203125 200 c 2
 432.033203125 200 431.033203125 198 431.033203125 195 c 0
 426.033203125 173 420.033203125 142 412.033203125 103 c 1
 445.033203125 102 466.033203125 102 475.033203125 102 c 2
 510.033203125 102 l 2
 525.033203125 102 534.033203125 101 538.033203125 101 c 0
 559.033203125 101 572.033203125 97 579.033203125 87 c 0
 584.033203125 80 586.033203125 71 586.033203125 62 c 0
 586.033203125 58 586.033203125 54 585.033203125 50 c 0
 585.033203125 49 585.033203125 48 584.033203125 47 c 0
 581.033203125 32 573.033203125 19 562.033203125 8 c 0
 550.033203125 -3 533.033203125 -9 512.033203125 -9 c 0x80
 277.033203125 -7 148.033203125 -6 125.033203125 -5 c 0
 108.033203125 -5 96.033203125 0 90.033203125 11 c 0
 87.033203125 18 85.033203125 25 85.033203125 33 c 0x40
EndSplineSet
Validated: 524289
EndChar

StartChar: two
Encoding: 50 50 25
Width: 650
GlyphClass: 2
Flags: HMW
HStem: -20.0059 113.005 -12.0059 113.006<518.61 518.61 518.61 524.604> 506.997 21G<270.269 273.602> 612.996 109.001<477.272 486.604>
LayerCount: 2
Fore
SplineSet
518.610351562 101 m 1x70
 519.603515625 100.993164062 l 1
 528.270507812 109.66015625 534.603515625 109.993164062 538.603515625 101.993164062 c 0
 540.603515625 101.993164062 544.270507812 101.826171875 549.603515625 101.493164062 c 0
 554.936523438 101.16015625 558.936523438 100.16015625 561.603515625 98.4931640625 c 0
 564.270507812 96.826171875 566.9375 94.9931640625 569.604492188 92.9931640625 c 0
 573.604492188 90.326171875 576.271484375 86.326171875 577.604492188 80.9931640625 c 0
 578.9375 72.9931640625 578.604492188 63.66015625 576.604492188 52.9931640625 c 0
 571.9375 33.66015625 563.604492188 17.3271484375 551.604492188 3.994140625 c 0
 541.604492188 -6.6728515625 530.604492188 -12.005859375 518.604492188 -12.005859375 c 0x70
 475.271484375 -12.005859375 404.271484375 -14.005859375 305.604492188 -18.005859375 c 0
 272.271484375 -19.3388671875 238.271484375 -20.005859375 203.604492188 -20.005859375 c 0
 171.604492188 -20.005859375 146.604492188 -18.6728515625 128.604492188 -16.005859375 c 0
 118.604492188 -14.6728515625 110.9375 -10.33984375 105.604492188 -3.0068359375 c 0
 101.604492188 2.326171875 98.9375 9.326171875 97.6044921875 17.9931640625 c 0
 97.16015625 21.8447265625 96.9375 26.0263671875 96.9375 30.5361328125 c 0
 96.9375 46.322265625 99.66015625 66.140625 105.104492188 89.9931640625 c 0
 112.104492188 120.66015625 125.271484375 151.493164062 144.604492188 182.493164062 c 0
 163.9375 213.493164062 188.604492188 243.66015625 218.604492188 272.993164062 c 0
 248.604492188 302.326171875 282.271484375 325.993164062 319.604492188 343.993164062 c 0
 400.9375 382.66015625 453.604492188 409.327148438 477.604492188 423.994140625 c 0
 507.604492188 442.661132812 528.271484375 462.328125 539.604492188 482.995117188 c 0
 546.271484375 495.662109375 551.604492188 511.329101562 555.604492188 529.99609375 c 0
 557.754882812 539.458007812 558.830078125 548.053710938 558.830078125 555.78125 c 0
 558.830078125 572.010742188 554.087890625 584.415039062 544.604492188 592.99609375 c 0
 529.9375 606.329101562 504.604492188 612.99609375 468.604492188 612.99609375 c 0
 444.604492188 612.99609375 419.771484375 605.663085938 394.104492188 590.99609375 c 0
 368.4375 576.329101562 347.270507812 559.99609375 330.603515625 541.99609375 c 0
 321.936523438 532.663085938 313.76953125 524.830078125 306.102539062 518.497070312 c 0
 298.435546875 512.1640625 290.602539062 508.6640625 282.602539062 507.997070312 c 0
 280.602539062 507.997070312 277.602539062 507.6640625 273.602539062 506.997070312 c 0
 266.935546875 506.997070312 257.935546875 510.330078125 246.602539062 516.997070312 c 0
 234.602539062 524.997070312 228.26953125 536.330078125 227.602539062 550.997070312 c 0
 227.602539062 554.330078125 227.935546875 557.997070312 228.602539062 561.997070312 c 0
 231.26953125 573.997070312 237.936523438 587.6640625 248.603515625 602.997070312 c 0
 258.603515625 616.997070312 271.603515625 630.830078125 287.603515625 644.497070312 c 0
 303.603515625 658.1640625 321.603515625 670.997070312 341.603515625 682.997070312 c 0
 362.270507812 694.997070312 385.9375 704.497070312 412.604492188 711.497070312 c 0
 439.271484375 718.497070312 464.938476562 721.997070312 489.60546875 721.997070312 c 0
 566.272460938 721.997070312 619.60546875 704.997070312 649.60546875 670.997070312 c 0
 668.5859375 648.997070312 678.076171875 619.87890625 678.076171875 583.643554688 c 0
 678.076171875 563.87890625 675.252929688 541.997070312 669.60546875 517.997070312 c 0
 656.272460938 462.6640625 631.939453125 417.331054688 596.606445312 381.998046875 c 0
 570.606445312 357.331054688 527.2734375 330.331054688 466.606445312 300.998046875 c 0
 451.2734375 293.665039062 424.940429688 281.665039062 387.607421875 264.998046875 c 0
 356.274414062 250.998046875 328.94140625 233.831054688 305.608398438 213.498046875 c 0
 282.275390625 193.165039062 263.942382812 172.33203125 250.609375 150.999023438 c 0
 239.276367188 132.999023438 230.276367188 113.666015625 223.609375 92.9990234375 c 1xb0
 259.609375 91.666015625 293.942382812 90.8330078125 326.609375 90.5 c 0
 333.138671875 90.43359375 339.388671875 90.400390625 345.359375 90.400390625 c 0
 369.2578125 90.400390625 388.674804688 90.93359375 403.610351562 92 c 0
 421.610351562 93.3330078125 459.943359375 96.3330078125 518.610351562 101 c 1x70
EndSplineSet
Validated: 524289
EndChar

StartChar: three
Encoding: 51 51 26
Width: 650
GlyphClass: 2
Flags: HMW
HStem: -23.998 107.998<292.704 353.04> 306 125<340.373 346.039> 521.001 21G<275.707 282.374> 613 109.001<439.375 507.374>
VStem: 543.374 115<522.002 538.333>
LayerCount: 2
Fore
SplineSet
612.373046875 279.5 m 0
 612.833984375 274.501953125 613.065429688 269.318359375 613.065429688 263.948242188 c 0
 613.065429688 246.037109375 610.499023438 226.055664062 605.370117188 204.000976562 c 0
 589.370117188 134.000976562 555.703125 78.333984375 504.370117188 37.0009765625 c 0
 453.196289062 -3.67578125 388.140625 -24.013671875 309.202148438 -24.013671875 c 0
 307.928710938 -24.013671875 306.651367188 -24.0087890625 305.370117188 -23.998046875 c 0
 280.037109375 -23.998046875 255.704101562 -20.3310546875 232.37109375 -12.998046875 c 0
 209.038085938 -5.6650390625 190.205078125 3.66796875 175.872070312 15.0009765625 c 0
 161.5390625 26.333984375 149.706054688 39.0009765625 140.373046875 53.0009765625 c 0
 130.373046875 67.0009765625 123.706054688 80.833984375 120.373046875 94.5009765625 c 0
 118.521484375 102.092773438 117.595703125 109.427734375 117.595703125 116.504882812 c 0
 117.595703125 122.16796875 118.188476562 127.666992188 119.374023438 133.000976562 c 0
 120.041015625 137.000976562 121.374023438 141.000976562 123.374023438 145.000976562 c 0
 130.041015625 161.000976562 141.041015625 172.66796875 156.374023438 180.000976562 c 0
 167.70703125 185.333984375 177.70703125 188 186.374023438 188 c 0
 205.041015625 188 219.374023438 177.333984375 229.374023438 156.000976562 c 0
 238.70703125 137.333984375 252.540039062 120.666992188 270.873046875 106 c 0
 289.206054688 91.3330078125 310.373046875 84 334.373046875 84 c 0
 371.706054688 84 404.5390625 93.8330078125 432.872070312 113.5 c 0
 461.205078125 133.166992188 479.038085938 158 486.37109375 188 c 0
 489.09375 199.278320312 490.455078125 209.592773438 490.455078125 218.942382812 c 0
 490.455078125 225.620117188 489.760742188 231.805664062 488.372070312 237.5 c 0
 485.0390625 251.166992188 477.872070312 263.166992188 466.872070312 273.5 c 0
 455.872070312 283.833007812 438.872070312 291.833007812 415.872070312 297.5 c 0
 392.872070312 303.166992188 363.705078125 306 328.372070312 306 c 0
 311.0390625 306 297.706054688 312.666992188 288.373046875 326 c 0
 281.83984375 335.333007812 278.573242188 345.483398438 278.573242188 356.450195312 c 0
 278.573242188 361.150390625 279.172851562 366 280.373046875 371 c 0
 284.373046875 387.666992188 292.040039062 401.666992188 303.373046875 413 c 0
 316.040039062 425 331.373046875 431 349.373046875 431 c 0
 404.040039062 431 448.70703125 440.666992188 483.374023438 460 c 0
 515.374023438 478 535.374023438 504 543.374023438 538 c 0
 543.374023438 538.609375 543.651367188 539.495117188 544.208007812 540.66015625 c 0
 544.2578125 541.064453125 544.3125 541.510742188 544.374023438 541.999023438 c 0
 544.374023438 543.33203125 544.70703125 544.33203125 545.374023438 544.999023438 c 0
 546.75 550.848632812 547.438476562 556.297851562 547.438476562 561.348632812 c 0
 547.438476562 575.868164062 541.75 587.0859375 530.374023438 595 c 0
 513.908203125 607.033203125 487.514648438 613.049804688 451.1953125 613.049804688 c 0
 449.282226562 613.049804688 447.342773438 613.033203125 445.375 613 c 0
 433.375 613 420.375 611 406.375 607 c 0
 402.375 605.666992188 397.375 603.166992188 391.375 599.5 c 0
 385.375 595.833007812 380.708007812 592.833007812 377.375 590.5 c 0
 374.041992188 588.166992188 369.375 584.333984375 363.375 579.000976562 c 0
 357.375 573.66796875 353.375 569.66796875 351.375 567.000976562 c 0
 344.708007812 553.66796875 340.041015625 549.000976562 337.374023438 553.000976562 c 1
 321.374023438 536.333984375 306.374023438 526.000976562 292.374023438 522.000976562 c 0
 288.374023438 521.333984375 284.373046875 521.000976562 280.373046875 521.000976562 c 0
 271.040039062 521.000976562 261.708007812 523.66796875 252.375 529.000976562 c 0
 241.575195312 535.600585938 236.174804688 545.7109375 236.174804688 559.33203125 c 0
 236.174804688 559.499023438 236.229492188 569.130859375 237.375 576.000976562 c 0
 240.041992188 588.000976562 246.375 601.000976562 256.375 615.000976562 c 0
 276.375 643.000976562 302.041992188 667.333984375 333.375 688.000976562 c 0
 350.041992188 698.66796875 370.041992188 707.000976562 393.375 713.000976562 c 0
 416.708007812 719.000976562 441.041015625 722.000976562 466.374023438 722.000976562 c 0
 548.374023438 722.000976562 605.041015625 705.66796875 636.374023438 673.000976562 c 0
 656.828125 650.728515625 667.055664062 621.482421875 667.055664062 585.262695312 c 0
 667.055664062 568.360351562 664.828125 549.939453125 660.374023438 530 c 0
 660.374023438 528.666992188 660.041015625 527.333984375 659.374023438 526.000976562 c 0
 658.70703125 524.66796875 658.374023438 523.333984375 658.374023438 522.000976562 c 0
 654.374023438 503.333984375 647.874023438 486.001953125 638.874023438 470.001953125 c 0
 629.874023438 454.001953125 619.541015625 440.334960938 607.874023438 429.001953125 c 0
 596.20703125 417.668945312 583.20703125 407.668945312 568.874023438 399.001953125 c 0
 554.541015625 390.334960938 540.041015625 383.66796875 525.374023438 379.000976562 c 1
 534.70703125 375.66796875 543.040039062 372.334960938 550.373046875 369.001953125 c 0
 567.040039062 360.334960938 581.040039062 348.66796875 592.373046875 334.000976562 c 0
 603.706054688 319.333984375 610.373046875 301.166992188 612.373046875 279.5 c 0
EndSplineSet
Validated: 524289
EndChar

StartChar: four
Encoding: 52 52 27
Width: 650
GlyphClass: 2
Flags: HMW
HStem: -23.001 21G<436.192 450.859> 218.998 90.002<397.858 398.859 398.859 440.859>
LayerCount: 2
Fore
SplineSet
397.858398438 309 m 2
 460.857421875 309 l 1
 487.524414062 424.333007812 507.19140625 517.666015625 519.858398438 588.999023438 c 1
 404.525390625 469.666015625 321.858398438 375.333007812 271.858398438 306 c 1
 306.525390625 308 348.525390625 309 397.858398438 309 c 2
502.857421875 60 m 0
 502.857421875 52 501.859375 44.33203125 499.859375 36.9990234375 c 0
 497.192382812 23.666015625 492.192382812 11.9990234375 484.859375 1.9990234375 c 0
 472.859375 -14.66796875 458.859375 -23.0009765625 442.859375 -23.0009765625 c 0
 429.526367188 -23.0009765625 417.859375 -17.833984375 407.859375 -7.5009765625 c 0
 399.526367188 1.109375 395.359375 10.068359375 395.359375 19.373046875 c 0
 395.359375 21.234375 395.526367188 23.109375 395.859375 24.998046875 c 0
 397.192382812 32.998046875 399.859375 45.6650390625 403.859375 62.998046875 c 2
 421.859375 138.998046875 l 2
 428.526367188 166.331054688 434.859375 192.998046875 440.859375 218.998046875 c 1
 398.859375 218.998046875 l 2
 306.859375 218.998046875 240.859375 214.665039062 200.859375 205.998046875 c 0
 196.192382812 205.331054688 191.359375 204.998046875 186.359375 204.998046875 c 0
 181.359375 204.998046875 176.859375 205.998046875 172.859375 207.998046875 c 0
 164.859375 211.331054688 159.026367188 216.331054688 155.359375 222.998046875 c 0
 151.692382812 229.665039062 149.525390625 237.498046875 148.858398438 246.498046875 c 0
 148.19140625 255.498046875 148.858398438 264.665039062 150.858398438 273.998046875 c 0
 153.525390625 284.665039062 157.525390625 294.665039062 162.858398438 303.998046875 c 0
 173.525390625 323.331054688 197.358398438 353.831054688 234.358398438 395.498046875 c 0
 271.358398438 437.165039062 319.19140625 488.998046875 377.858398438 550.998046875 c 0
 429.858398438 605.665039062 471.858398438 650.665039062 503.858398438 685.998046875 c 0
 515.858398438 698.665039062 528.19140625 708.33203125 540.858398438 714.999023438 c 0
 553.525390625 721.666015625 564.858398438 724.999023438 574.858398438 724.999023438 c 0
 578.19140625 724.999023438 580.524414062 725.33203125 581.857421875 725.999023438 c 0
 593.190429688 725.999023438 602.857421875 723.33203125 610.857421875 717.999023438 c 0
 620.232421875 711.749023438 624.919921875 701.397460938 624.919921875 686.9453125 c 0
 624.919921875 682.481445312 623.947265625 654.850585938 609.357421875 576.5 c 0
 600.357421875 528.166992188 592.190429688 487.666992188 584.857421875 455 c 0
 574.190429688 405.666992188 563.857421875 356.666992188 553.857421875 308 c 1
 563.190429688 308 573.5234375 307.666992188 584.856445312 307 c 0
 600.856445312 307 611.189453125 303.166992188 615.856445312 295.5 c 0
 620.5234375 287.833007812 621.5234375 278 618.856445312 266 c 0
 615.5234375 252 610.190429688 240.666992188 602.857421875 232 c 0
 592.857421875 222 579.857421875 217 563.857421875 217 c 0
 553.190429688 217 543.190429688 217.333007812 533.857421875 218 c 1
 513.190429688 126 502.857421875 73.3330078125 502.857421875 60 c 0
EndSplineSet
Validated: 524289
EndChar

StartChar: five
Encoding: 53 53 28
Width: 650
GlyphClass: 2
Flags: HMW
HStem: -18.002 109.001<294.247 322.248> 407.998 112.999<435.248 511.247> 594.998 112.999<644.579 684.242> 605.998 103.999
LayerCount: 2
Fore
SplineSet
222.248046875 561 m 0xd0
 228.248046875 581.666992188 232.576171875 596.997070312 235.243164062 606.997070312 c 1
 233.243164062 612.997070312 232.243164062 619.497070312 232.243164062 626.497070312 c 0
 232.243164062 633.497070312 233.243164062 640.997070312 235.243164062 648.997070312 c 0
 239.91015625 670.330078125 249.91015625 686.997070312 265.243164062 698.997070312 c 0
 275.91015625 707.6640625 287.243164062 711.997070312 299.243164062 711.997070312 c 0
 322.576171875 711.997070312 379.909179688 711.330078125 471.2421875 709.997070312 c 0xd0
 564.575195312 708.6640625 633.575195312 707.997070312 678.2421875 707.997070312 c 0
 690.2421875 707.997070312 698.575195312 702.6640625 703.2421875 691.997070312 c 0
 706.6171875 684.497070312 708.3046875 676.047851562 708.3046875 666.649414062 c 0
 708.3046875 659.33984375 707.284179688 651.456054688 705.2421875 642.998046875 c 0
 700.575195312 623.665039062 692.2421875 610.665039062 680.2421875 603.998046875 c 0
 676.909179688 601.998046875 673.576171875 600.165039062 670.243164062 598.498046875 c 0
 666.91015625 596.831054688 662.577148438 595.831054688 657.244140625 595.498046875 c 0
 651.911132812 595.165039062 648.078125 594.998046875 645.745117188 594.998046875 c 0xe0
 643.412109375 594.998046875 640.079101562 595.165039062 635.74609375 595.498046875 c 0
 631.413085938 595.831054688 628.580078125 595.998046875 627.247070312 595.998046875 c 0
 618.580078125 595.998046875 602.580078125 597.331054688 579.247070312 599.998046875 c 0
 555.247070312 601.998046875 533.9140625 603.498046875 515.247070312 604.498046875 c 0
 496.580078125 605.498046875 471.247070312 605.998046875 439.247070312 605.998046875 c 0
 407.247070312 605.998046875 374.9140625 604.998046875 342.247070312 602.998046875 c 1
 328.247070312 552.998046875 319.9140625 522.998046875 317.247070312 512.998046875 c 0
 314.580078125 500.998046875 312.580078125 492.331054688 311.247070312 486.998046875 c 0
 309.9140625 481.665039062 308.247070312 474.665039062 306.247070312 465.998046875 c 1
 326.247070312 479.331054688 349.247070312 490.6640625 375.247070312 499.997070312 c 0
 412.580078125 513.997070312 452.580078125 520.997070312 495.247070312 520.997070312 c 0
 527.247070312 520.997070312 554.580078125 515.330078125 577.247070312 503.997070312 c 0
 597.9140625 491.997070312 613.747070312 475.997070312 624.747070312 455.997070312 c 0
 635.747070312 435.997070312 642.247070312 412.830078125 644.247070312 386.497070312 c 0
 644.67578125 380.854492188 644.889648438 375.112304688 644.889648438 369.271484375 c 0
 644.889648438 347.850585938 642.008789062 325.092773438 636.247070312 300.997070312 c 0
 624.9140625 251.6640625 608.581054688 206.831054688 587.248046875 166.498046875 c 0
 565.915039062 126.165039062 541.248046875 92.498046875 513.248046875 65.498046875 c 0
 485.248046875 38.498046875 453.248046875 17.6650390625 417.248046875 2.998046875 c 0
 380.581054688 -11.001953125 342.248046875 -18.001953125 302.248046875 -18.001953125 c 0
 271.581054688 -18.001953125 243.9140625 -14.6689453125 219.247070312 -8.001953125 c 0
 194.580078125 -1.3349609375 175.247070312 7.33203125 161.247070312 17.9990234375 c 0
 147.247070312 28.666015625 136.247070312 40.3330078125 128.247070312 53 c 0
 120.247070312 65.6669921875 114.247070312 79 110.247070312 93 c 0
 108.9140625 100.666015625 108.247070312 107.916015625 108.247070312 114.75 c 0
 108.247070312 121.583007812 108.9140625 128 110.247070312 134 c 0
 110.9140625 138 111.9140625 142 113.247070312 146 c 0
 119.9140625 160.666992188 131.247070312 172 147.247070312 180 c 0
 155.9140625 183.333007812 162.747070312 185.666015625 167.747070312 186.999023438 c 0
 172.747070312 188.33203125 176.747070312 188.999023438 179.747070312 188.999023438 c 0
 182.747070312 188.999023438 185.580078125 188.666015625 188.247070312 187.999023438 c 0
 196.247070312 187.33203125 202.580078125 183.665039062 207.247070312 176.998046875 c 0
 211.247070312 171.665039062 215.580078125 164.33203125 220.247070312 154.999023438 c 0
 238.247070312 112.33203125 270.747070312 90.9990234375 317.747070312 90.9990234375 c 0
 364.747070312 90.9990234375 405.9140625 108.33203125 441.247070312 142.999023438 c 0
 477.9140625 178.999023438 503.581054688 227.666015625 518.248046875 288.999023438 c 0
 521.768554688 304.166015625 523.529296875 318.01171875 523.529296875 330.538085938 c 0
 523.529296875 348.844726562 519.768554688 364.33203125 512.248046875 376.998046875 c 0
 500.248046875 397.665039062 477.248046875 407.998046875 443.248046875 407.998046875 c 0
 427.248046875 407.998046875 409.915039062 405.998046875 391.248046875 401.998046875 c 0
 381.915039062 399.998046875 368.58203125 395.331054688 351.249023438 387.998046875 c 0
 347.249023438 386.665039062 341.749023438 383.498046875 334.749023438 378.498046875 c 0
 327.749023438 373.498046875 322.916015625 369.998046875 320.249023438 367.998046875 c 0
 307.58203125 358.665039062 297.249023438 350.665039062 289.249023438 343.998046875 c 0
 271.916015625 331.331054688 253.916015625 323.998046875 235.249023438 321.998046875 c 2
 228.249023438 321.998046875 l 2
 219.58203125 321.998046875 211.249023438 323.998046875 203.249023438 327.998046875 c 0
 191.249023438 333.998046875 184.58203125 346.665039062 183.249023438 365.998046875 c 0
 182.916015625 370.165039062 182.749023438 374.581054688 182.749023438 379.248046875 c 0
 182.749023438 393.248046875 184.249023438 409.498046875 187.249023438 427.999023438 c 0
 189.249023438 438.666015625 191.58203125 449.333007812 194.249023438 460 c 0
 199.58203125 483.333007812 208.915039062 517 222.248046875 561 c 0xd0
EndSplineSet
Validated: 524289
EndChar

StartChar: six
Encoding: 54 54 29
Width: 650
GlyphClass: 2
Flags: HMW
HStem: -22.0029 108<295.297 342.964> 379.997 114.001<408.963 494.297>
LayerCount: 2
Fore
SplineSet
637.963867188 361 m 0
 638.31640625 355.471679688 638.493164062 349.787109375 638.493164062 343.948242188 c 0
 638.493164062 316.689453125 634.649414062 286.038085938 626.962890625 251.998046875 c 0
 618.295898438 213.998046875 603.962890625 178.331054688 583.962890625 144.998046875 c 0
 543.962890625 76.3310546875 490.629882812 27.6640625 423.962890625 -1.0029296875 c 0
 388.629882812 -15.0029296875 352.962890625 -22.0029296875 316.962890625 -22.0029296875 c 0
 273.629882812 -22.0029296875 237.296875 -14.0029296875 207.963867188 1.9970703125 c 0
 179.963867188 17.9970703125 159.963867188 41.1640625 147.963867188 71.4970703125 c 0
 136.288085938 101.010742188 130.450195312 134.943359375 130.450195312 173.293945312 c 0
 130.450195312 204.677734375 133.879882812 248.9375 146.963867188 306.997070312 c 0
 160.963867188 366.997070312 178.630859375 420.497070312 199.963867188 467.497070312 c 0
 221.296875 514.497070312 244.963867188 553.830078125 270.963867188 585.497070312 c 0
 296.963867188 617.1640625 326.296875 643.997070312 358.963867188 665.997070312 c 0
 393.630859375 687.997070312 429.130859375 704.497070312 465.463867188 715.497070312 c 0
 501.796875 726.497070312 540.963867188 733.6640625 582.963867188 736.997070312 c 2
 592.963867188 736.997070312 l 2
 606.963867188 736.997070312 618.630859375 734.330078125 627.963867188 728.997070312 c 0
 639.424804688 722.362304688 645.155273438 712.1796875 645.155273438 698.44921875 c 0
 645.155273438 695.75390625 645.155273438 692.376953125 643.96484375 689.998046875 c 0
 641.96484375 679.998046875 634.96484375 669.665039062 622.96484375 658.998046875 c 0
 610.297851562 648.331054688 597.297851562 641.331054688 583.96484375 637.998046875 c 0
 575.96484375 635.998046875 563.797851562 633.331054688 547.46484375 629.998046875 c 0
 531.131835938 626.665039062 517.46484375 623.665039062 506.46484375 620.998046875 c 0
 495.46484375 618.331054688 482.297851562 614.331054688 466.96484375 608.998046875 c 0
 437.631835938 598.331054688 405.631835938 577.998046875 370.96484375 547.998046875 c 0
 353.631835938 531.998046875 335.298828125 510.331054688 315.965820312 482.998046875 c 0
 307.298828125 468.998046875 299.631835938 455.998046875 292.96484375 443.998046875 c 1
 312.297851562 456.665039062 333.630859375 466.665039062 356.963867188 473.998046875 c 0
 394.963867188 487.331054688 435.296875 493.998046875 477.963867188 493.998046875 c 0
 510.630859375 493.998046875 538.963867188 489.331054688 562.963867188 479.998046875 c 0
 584.963867188 470.665039062 602.463867188 456.33203125 615.463867188 436.999023438 c 0
 628.463867188 417.666015625 635.963867188 392.333007812 637.963867188 361 c 0
297.962890625 94.9970703125 m 0
 310.629882812 88.9970703125 324.963867188 85.9970703125 340.963867188 85.9970703125 c 2
 342.963867188 85.9970703125 l 1
 343.963867188 85.9970703125 l 2
 365.963867188 85.9970703125 388.963867188 93.6640625 412.963867188 108.997070312 c 0
 436.963867188 124.330078125 457.796875 143.997070312 475.463867188 167.997070312 c 0
 493.130859375 191.997070312 504.630859375 215.997070312 509.963867188 239.997070312 c 0
 515.889648438 265.181640625 518.852539062 286.6796875 518.852539062 304.490234375 c 0
 518.852539062 326.75390625 514.22265625 343.255859375 504.962890625 353.997070312 c 0
 496.962890625 363.997070312 486.795898438 370.830078125 474.462890625 374.497070312 c 0
 462.129882812 378.1640625 445.629882812 379.997070312 424.962890625 379.997070312 c 0
 392.962890625 379.997070312 361.629882812 372.330078125 330.962890625 356.997070312 c 0
 300.295898438 341.6640625 273.962890625 322.6640625 251.962890625 299.997070312 c 1
 245.962890625 274.6640625 241.629882812 253.6640625 238.962890625 236.997070312 c 0
 237.762695312 228.59765625 237.163085938 220.2578125 237.163085938 211.977539062 c 0
 237.163085938 192.657226562 240.4296875 173.6640625 246.962890625 154.997070312 c 0
 251.629882812 140.997070312 258.129882812 128.997070312 266.462890625 118.997070312 c 0
 274.795898438 108.997070312 285.295898438 100.997070312 297.962890625 94.9970703125 c 0
EndSplineSet
Validated: 524289
EndChar

StartChar: seven
Encoding: 55 55 30
Width: 650
GlyphClass: 2
Flags: HMW
HStem: -22.999 21G<150.931 158.264> 601 113.002<417.263 472.93 417.263 564.597>
LayerCount: 2
Fore
SplineSet
390.59765625 601 m 0
 329.264648438 599.666992188 289.265625 596.670898438 270.598632812 592.00390625 c 0
 266.598632812 591.336914062 262.265625 590.836914062 257.598632812 590.50390625 c 0
 252.931640625 590.170898438 248.264648438 591.00390625 243.59765625 593.00390625 c 0
 236.264648438 596.336914062 231.264648438 601.336914062 228.59765625 608.00390625 c 0
 224.71875 616.731445312 222.779296875 626.340820312 222.779296875 636.831054688 c 0
 222.779296875 640.764648438 223.051757812 644.822265625 223.59765625 649.00390625 c 1
 222.264648438 642.336914062 222.264648438 642.669921875 223.59765625 650.002929688 c 0
 226.930664062 664.002929688 233.263671875 675.669921875 242.596679688 685.002929688 c 0
 252.596679688 694.3359375 266.9296875 700.668945312 285.596679688 704.001953125 c 0
 320.9296875 710.668945312 377.9296875 714.001953125 456.596679688 714.001953125 c 0
 489.263671875 714.001953125 533.263671875 712.668945312 588.596679688 710.001953125 c 0
 641.263671875 708.001953125 668.596679688 707.001953125 670.596679688 707.001953125 c 0
 678.596679688 707.001953125 686.263671875 705.168945312 693.596679688 701.501953125 c 0
 700.9296875 697.834960938 706.9296875 692.001953125 711.596679688 684.001953125 c 0
 714.87890625 678.66796875 716.51953125 672.325195312 716.51953125 664.971679688 c 0
 716.51953125 660.375976562 715.87890625 655.38671875 714.596679688 650.001953125 c 0
 711.9296875 638.001953125 705.596679688 624.668945312 695.596679688 610.001953125 c 0
 681.596679688 590.001953125 658.763671875 560.501953125 627.096679688 521.501953125 c 0
 595.4296875 482.501953125 562.262695312 442.668945312 527.595703125 402.001953125 c 0
 491.595703125 361.334960938 446.595703125 307.16796875 392.595703125 239.500976562 c 0
 338.595703125 171.833984375 286.262695312 102.666992188 235.595703125 32 c 0
 222.262695312 12.6669921875 206.9296875 -1.666015625 189.596679688 -10.9990234375 c 0
 176.263671875 -18.9990234375 163.930664062 -22.9990234375 152.59765625 -22.9990234375 c 0
 149.264648438 -22.9990234375 145.931640625 -22.666015625 142.598632812 -21.9990234375 c 0
 126.598632812 -17.9990234375 116.931640625 -7.9990234375 113.598632812 8.0009765625 c 0
 112.265625 15.333984375 112.598632812 23.1669921875 114.598632812 31.5 c 0
 116.598632812 39.8330078125 120.598632812 49 126.598632812 59 c 0
 173.931640625 125.666992188 224.264648438 192 277.59765625 258 c 0
 332.264648438 324 377.09765625 376.5 412.09765625 415.5 c 0
 447.09765625 454.5 478.09765625 490.166992188 505.09765625 522.5 c 0
 532.09765625 554.833007812 551.930664062 581 564.59765625 601 c 1
 538.263671875 601.666015625 510.59765625 602 481.59765625 602 c 0
 452.59765625 602 422.263671875 601.666015625 390.59765625 601 c 0
EndSplineSet
Validated: 524289
EndChar

StartChar: eight
Encoding: 56 56 31
Width: 650
GlyphClass: 2
Flags: HMW
HStem: -28.0039 110.002<322.625 322.958> 621.996 96.0029<442.625 492.29 456.959 492.29>
VStem: 510.96 111.998
LayerCount: 2
Fore
SplineSet
627.953125 246 m 0
 627.286132812 234 625.625 221.329101562 622.958007812 207.99609375 c 0
 618.291015625 185.99609375 610.458007812 164.329101562 599.458007812 142.99609375 c 0
 588.458007812 121.663085938 573.958007812 100.49609375 555.958007812 79.49609375 c 0
 537.958007812 58.49609375 517.958007812 40.3291015625 495.958007812 24.99609375 c 0
 473.291015625 9.6630859375 444.958007812 -3.00390625 410.958007812 -13.00390625 c 0
 376.958007812 -23.00390625 341.458007812 -28.00390625 304.458007812 -28.00390625 c 0
 267.458007812 -28.00390625 235.625 -23.3369140625 208.958007812 -14.00390625 c 0
 182.958007812 -4.6708984375 163.125 7.49609375 149.458007812 22.49609375 c 0
 135.791015625 37.49609375 125.624023438 55.1630859375 118.95703125 75.49609375 c 0
 112.607421875 94.861328125 109.432617188 114.37890625 109.432617188 134.047851562 c 0
 109.432617188 151.06640625 111.45703125 174.37890625 117.955078125 201.997070312 c 0
 123.288085938 224.6640625 134.62109375 249.1640625 151.954101562 275.497070312 c 0
 169.287109375 301.830078125 190.954101562 326.330078125 216.954101562 348.997070312 c 0
 235.62109375 364.997070312 254.954101562 377.6640625 274.954101562 386.997070312 c 1
 253.62109375 401.6640625 237.954101562 419.997070312 227.954101562 441.997070312 c 0
 219.065429688 460.663085938 214.62109375 479.625976562 214.62109375 498.884765625 c 0
 214.62109375 508.514648438 215.732421875 518.21875 217.955078125 527.997070312 c 0
 219.955078125 536.6640625 222.788085938 545.6640625 226.455078125 554.997070312 c 0
 230.122070312 564.330078125 235.2890625 575.330078125 241.956054688 587.997070312 c 0
 248.623046875 600.6640625 256.290039062 612.831054688 264.95703125 624.498046875 c 0
 273.624023438 636.165039062 284.791015625 647.83203125 298.458007812 659.499023438 c 0
 312.125 671.166015625 326.958007812 680.999023438 342.958007812 688.999023438 c 0
 360.291015625 697.666015625 380.624023438 704.666015625 403.95703125 709.999023438 c 0
 427.290039062 715.33203125 452.290039062 717.999023438 478.95703125 717.999023438 c 0
 505.624023438 717.999023438 529.624023438 715.33203125 550.95703125 709.999023438 c 0
 572.290039062 704.666015625 589.623046875 697.666015625 602.956054688 688.999023438 c 0
 616.2890625 680.33203125 627.122070312 670.33203125 635.455078125 658.999023438 c 0
 643.788085938 647.666015625 649.62109375 636.166015625 652.954101562 624.499023438 c 0
 656.287109375 612.83203125 658.454101562 600.499023438 659.454101562 587.499023438 c 0
 659.954101562 580.999023438 660.204101562 574.916015625 660.204101562 569.249023438 c 0
 660.204101562 563.58203125 659.954101562 558.33203125 659.454101562 553.499023438 c 0
 658.454101562 543.83203125 656.787109375 534.33203125 654.454101562 524.999023438 c 0
 652.12109375 515.666015625 648.954101562 506.833007812 644.954101562 498.5 c 0
 640.954101562 490.166992188 636.62109375 482.666992188 631.954101562 476 c 0
 627.287109375 469.333007812 621.454101562 462.5 614.454101562 455.5 c 0
 607.454101562 448.5 601.12109375 442.666992188 595.454101562 438 c 0
 589.787109375 433.333007812 582.620117188 428 573.953125 422 c 0
 565.286132812 416 558.286132812 411.666992188 552.953125 409 c 0
 547.620117188 406.333007812 541.287109375 402.333007812 533.954101562 397 c 1
 549.287109375 389 562.287109375 380 572.954101562 370 c 0
 587.62109375 356 598.954101562 342.5 606.954101562 329.5 c 0
 614.954101562 316.5 620.62109375 302.333007812 623.954101562 287 c 0
 626.731445312 274.223632812 628.120117188 262.604492188 628.120117188 252.141601562 c 0
 628.120117188 250.047851562 628.064453125 248.000976562 627.953125 246 c 0
375.958984375 591.99609375 m 0
 350.625976562 571.99609375 335.293945312 549.99609375 329.9609375 525.99609375 c 0
 329.072265625 521.99609375 328.627929688 518.078125 328.627929688 514.243164062 c 0
 328.627929688 500.819335938 334.072265625 488.403320312 344.9609375 476.99609375 c 0
 360.293945312 461.663085938 387.9609375 445.663085938 427.9609375 428.99609375 c 1
 455.293945312 439.663085938 480.626953125 453.663085938 503.959960938 470.99609375 c 0
 527.29296875 488.329101562 540.625976562 503.329101562 543.958984375 515.99609375 c 0
 545.5078125 522.189453125 546.28125 528.408203125 546.28125 534.651367188 c 0
 546.28125 544.537109375 544.340820312 554.485351562 540.458984375 564.49609375 c 0
 534.125976562 580.829101562 523.625976562 594.49609375 508.958984375 605.49609375 c 0
 494.291992188 616.49609375 477.291992188 621.99609375 457.958984375 621.99609375 c 2
 456.958984375 621.99609375 l 2
 428.291992188 621.99609375 401.291992188 611.99609375 375.958984375 591.99609375 c 0
268.959960938 96.99609375 m 0
 288.29296875 86.99609375 310.291992188 81.998046875 334.958984375 81.998046875 c 0
 352.291992188 81.998046875 370.458984375 84.6650390625 389.458984375 89.998046875 c 0
 408.458984375 95.3310546875 426.291992188 102.998046875 442.958984375 112.998046875 c 0
 459.625976562 122.998046875 474.29296875 135.665039062 486.959960938 150.998046875 c 0
 498.959960938 166.331054688 506.959960938 182.998046875 510.959960938 200.998046875 c 0
 512.959960938 210.998046875 514.626953125 220.331054688 515.959960938 228.998046875 c 0
 515.959960938 237.665039062 514.459960938 247.665039062 511.459960938 258.998046875 c 0
 508.459960938 270.331054688 503.126953125 280.998046875 495.459960938 290.998046875 c 0
 487.79296875 300.998046875 476.29296875 311.331054688 460.959960938 321.998046875 c 0
 445.626953125 332.665039062 426.959960938 342.665039062 404.959960938 351.998046875 c 1
 357.626953125 339.331054688 316.626953125 318.6640625 281.959960938 289.997070312 c 0
 247.959960938 261.330078125 227.29296875 230.663085938 219.959960938 197.99609375 c 0
 218.020507812 189.99609375 217.05078125 182.260742188 217.05078125 174.790039062 c 0
 217.05078125 161.715820312 220.020507812 149.451171875 225.959960938 137.99609375 c 0
 235.959960938 119.99609375 250.29296875 106.329101562 268.959960938 96.99609375 c 0
EndSplineSet
Validated: 524289
EndChar

StartChar: nine
Encoding: 57 57 32
Width: 650
GlyphClass: 2
Flags: HMW
HStem: -22.9971 78.5 223.001 113.003<329.042 411.038> 630.004 108.995<453.706 534.71 465.039 534.71>
LayerCount: 2
Fore
SplineSet
201.044921875 -22 m 0
 197.711914062 -22 194.708007812 -22.330078125 192.041015625 -22.9970703125 c 0
 178.041015625 -22.9970703125 166.708007812 -19.9970703125 158.041015625 -13.9970703125 c 0
 147.1015625 -7.6640625 141.631835938 1.9013671875 141.631835938 14.69921875 c 0
 141.631835938 16.7197265625 141.768554688 18.8212890625 142.041015625 21.0029296875 c 2
 142.041015625 24.0029296875 l 2
 144.041015625 34.669921875 151.041015625 45.169921875 163.041015625 55.5029296875 c 0
 175.041015625 65.8359375 187.708007812 73.0029296875 201.041015625 77.0029296875 c 0
 209.041015625 79.0029296875 221.874023438 81.669921875 239.541015625 85.0029296875 c 0
 257.208007812 88.3359375 272.875 91.6689453125 286.541992188 95.001953125 c 0
 300.208984375 98.3349609375 315.375976562 102.66796875 332.04296875 108.000976562 c 0
 368.04296875 120.000976562 401.375976562 139.000976562 432.04296875 165.000976562 c 0
 452.04296875 183.000976562 471.375976562 203.66796875 490.04296875 227.000976562 c 0
 497.375976562 236.333984375 503.708984375 245.333984375 509.041992188 254.000976562 c 1
 493.708984375 246.000976562 477.375976562 239.66796875 460.04296875 235.000976562 c 0
 428.04296875 227.000976562 389.709960938 223.000976562 345.04296875 223.000976562 c 0
 313.04296875 223.000976562 284.375976562 230.333984375 259.04296875 245.000976562 c 0
 235.04296875 259.000976562 216.709960938 277.500976562 204.04296875 300.500976562 c 0
 191.375976562 323.500976562 183.04296875 350.16796875 179.04296875 380.500976562 c 0
 177.630859375 391.206054688 176.92578125 401.974609375 176.92578125 412.8046875 c 0
 176.92578125 432.66015625 179.297851562 452.725585938 184.04296875 473 c 0
 192.709960938 511 206.876953125 546.5 226.543945312 579.5 c 0
 246.2109375 612.5 269.2109375 640.666992188 295.543945312 664 c 0
 321.876953125 687.333007812 352.043945312 705.666015625 386.043945312 718.999023438 c 0
 420.7109375 732.33203125 455.7109375 738.999023438 491.043945312 738.999023438 c 0
 578.376953125 738.999023438 634.709960938 707.33203125 660.04296875 643.999023438 c 0
 671.23046875 615.231445312 676.823242188 580.717773438 676.823242188 540.45703125 c 0
 676.823242188 496.745117188 670.23046875 446.259765625 657.04296875 388.999023438 c 0
 643.709960938 331.666015625 625.876953125 280.833007812 603.543945312 236.5 c 0
 581.2109375 192.166992188 556.2109375 155 528.543945312 125 c 0
 500.876953125 95 469.043945312 69.3330078125 433.043945312 48 c 0
 396.376953125 26.6669921875 358.876953125 10.5 320.543945312 -0.5 c 0
 282.2109375 -11.5 242.377929688 -18.6669921875 201.044921875 -22 c 0
335.041015625 555.002929688 m 0
 317.708007812 532.3359375 306.372070312 509.004882812 301.0390625 485.004882812 c 0
 296.33984375 464.549804688 293.990234375 446.200195312 293.990234375 429.956054688 c 0
 293.990234375 367.850585938 328.33984375 336.532226562 397.0390625 336.00390625 c 0
 425.0390625 336.00390625 453.372070312 342.00390625 482.0390625 354.00390625 c 0
 510.706054688 366.00390625 534.706054688 381.336914062 554.0390625 400.00390625 c 0
 554.706054688 402.670898438 555.373046875 405.670898438 556.040039062 409.00390625 c 0
 560.040039062 426.336914062 564.70703125 450.00390625 570.040039062 480.00390625 c 0
 571.240234375 488.403320312 571.83984375 496.743164062 571.83984375 505.0234375 c 0
 571.83984375 524.34375 568.573242188 543.336914062 562.040039062 562.00390625 c 0
 557.373046875 576.00390625 550.873046875 588.00390625 542.540039062 598.00390625 c 0
 534.20703125 608.00390625 523.540039062 615.836914062 510.540039062 621.50390625 c 0
 497.540039062 627.170898438 483.040039062 630.00390625 467.040039062 630.00390625 c 2
 465.040039062 630.00390625 l 2
 442.373046875 630.00390625 419.373046875 623.170898438 396.040039062 609.50390625 c 0
 372.70703125 595.836914062 352.374023438 577.669921875 335.041015625 555.002929688 c 0
EndSplineSet
Validated: 524289
EndChar

StartChar: colon
Encoding: 58 58 33
Width: 650
GlyphClass: 2
Flags: HMW
HStem: 27 180.001<321.477 374.814> 295 179.001<391.149 432.482 391.149 432.482>
VStem: 273.145 216.002
LayerCount: 2
Fore
SplineSet
486.146484375 404 m 0
 481.479492188 384.666992188 474.147460938 364.66796875 464.147460938 344.000976562 c 0
 456.814453125 327.333984375 445.481445312 314.666992188 430.1484375 306 c 0
 416.815429688 298.666992188 404.815429688 295 394.1484375 295 c 2
 391.1484375 295 l 2
 373.1484375 295.666992188 359.1484375 299.666992188 349.1484375 307 c 0
 338.038085938 315.333007812 332.482421875 327.138671875 332.482421875 342.416015625 c 0
 332.482421875 345.471679688 332.705078125 348.666015625 333.149414062 352 c 0
 334.482421875 364 336.649414062 376.166992188 339.649414062 388.5 c 0
 342.649414062 400.833007812 345.649414062 412.333007812 348.649414062 423 c 0
 351.649414062 433.666992188 356.982421875 442.833984375 364.649414062 450.500976562 c 0
 372.31640625 458.16796875 380.649414062 463.66796875 389.649414062 467.000976562 c 0
 398.649414062 470.333984375 406.31640625 472.333984375 412.649414062 473.000976562 c 0
 418.982421875 473.66796875 423.815429688 474.000976562 427.1484375 474.000976562 c 0
 437.815429688 474.000976562 446.315429688 473.333984375 452.6484375 472.000976562 c 0
 458.981445312 470.66796875 465.314453125 468.000976562 471.647460938 464.000976562 c 0
 477.98046875 460.000976562 482.813476562 454.000976562 486.146484375 446.000976562 c 0
 489.479492188 438.000976562 490.479492188 428.66796875 489.146484375 418.000976562 c 0
 487.813476562 413.333984375 486.813476562 408.666992188 486.146484375 404 c 0
424.147460938 125.000976562 m 0
 420.814453125 109.000976562 414.809570312 92.333984375 406.142578125 75.0009765625 c 0
 398.142578125 58.333984375 385.809570312 46.0009765625 369.142578125 38.0009765625 c 0
 355.142578125 31.333984375 341.809570312 27.6669921875 329.142578125 27 c 0
 313.809570312 27 299.9765625 32 287.643554688 42 c 0
 277.502929688 50.2216796875 272.43359375 61.1484375 272.43359375 74.7783203125 c 0
 272.43359375 77.7255859375 272.669921875 80.7998046875 273.14453125 84 c 0
 276.477539062 102.666992188 278.477539062 113.333984375 279.14453125 116.000976562 c 0
 279.811523438 118.66796875 281.478515625 124.66796875 284.145507812 134.000976562 c 0
 286.8125 143.333984375 288.8125 150.666992188 290.145507812 156 c 0
 292.8125 166.666992188 297.979492188 175.833984375 305.646484375 183.500976562 c 0
 313.313476562 191.16796875 321.813476562 196.66796875 331.146484375 200.000976562 c 0
 345.146484375 204.66796875 357.813476562 207.000976562 369.146484375 207.000976562 c 0
 380.479492188 207.000976562 390.146484375 205.500976562 398.146484375 202.500976562 c 0
 406.146484375 199.500976562 413.479492188 193.66796875 420.146484375 185.000976562 c 0
 425.702148438 177.778320312 428.48046875 168.934570312 428.48046875 158.471679688 c 0
 428.48046875 156.379882812 428.369140625 154.22265625 428.147460938 152.000976562 c 0
 427.48046875 143.333984375 426.147460938 134.333984375 424.147460938 125.000976562 c 0
EndSplineSet
Validated: 524289
EndChar

StartChar: semicolon
Encoding: 59 59 34
Width: 650
GlyphClass: 2
Flags: HMW
HStem: 253.001 180.001<409.01 453.344>
VStem: 352.677 155.998
LayerCount: 2
Fore
SplineSet
505.674804688 363 m 0
 501.0078125 343.666992188 493.67578125 323.334960938 483.67578125 302.001953125 c 0
 476.342773438 285.334960938 465.009765625 272.66796875 449.676757812 264.000976562 c 0
 436.34375 256.66796875 424.34375 253.000976562 413.676757812 253.000976562 c 0
 404.34375 253.000976562 394.84375 255.000976562 385.176757812 259.000976562 c 0
 375.509765625 263.000976562 367.676757812 269.000976562 361.676757812 277.000976562 c 0
 355.471679688 284.8984375 352.369140625 293.989257812 352.369140625 304.274414062 c 0
 352.369140625 306.143554688 352.471679688 308.052734375 352.676757812 310.000976562 c 2
 352.676757812 311.000976562 l 2
 354.009765625 323.000976562 356.342773438 335.000976562 359.67578125 347.000976562 c 0
 363.008789062 359.000976562 366.008789062 370.333984375 368.67578125 381.000976562 c 0
 371.342773438 391.66796875 376.509765625 401.000976562 384.176757812 409.000976562 c 0
 391.84375 417.000976562 400.010742188 422.333984375 408.677734375 425.000976562 c 0
 423.344726562 429.66796875 436.677734375 432.334960938 448.677734375 433.001953125 c 0
 458.010742188 433.001953125 465.84375 432.168945312 472.176757812 430.501953125 c 0
 478.509765625 428.834960938 484.842773438 426.16796875 491.17578125 422.500976562 c 0
 497.508789062 418.833984375 502.341796875 413.000976562 505.674804688 405.000976562 c 0
 509.0078125 396.333984375 510.0078125 386.666992188 508.674804688 376 c 0
 507.341796875 372 506.341796875 367.666992188 505.674804688 363 c 0
421.67578125 79.0009765625 m 0
 421.67578125 77.0009765625 421.01171875 75 419.678710938 73 c 0
 413.01171875 51 372.678710938 -36.6669921875 298.678710938 -190 c 0
 290.678710938 -206.666992188 280.01171875 -219.333984375 266.678710938 -228.000976562 c 0
 255.678710938 -234.72265625 244.959960938 -238.083007812 234.520507812 -238.083007812 c 0
 233.5703125 -238.083007812 232.624023438 -238.055664062 231.678710938 -238 c 0
 215.678710938 -238 202.678710938 -233 192.678710938 -223 c 0
 185.801757812 -216.123046875 182.36328125 -207.435546875 182.36328125 -196.938476562 c 0
 182.36328125 -193.189453125 182.801757812 -189.209960938 183.678710938 -185 c 0
 186.345703125 -171.666992188 201.678710938 -132 229.678710938 -66 c 0
 257.678710938 0 279.01171875 49.3330078125 293.678710938 82 c 0
 299.01171875 93.3330078125 304.844726562 102.833007812 311.177734375 110.5 c 0
 317.510742188 118.166992188 324.34375 123.333984375 331.676757812 126.000976562 c 0
 341.009765625 129.333984375 349.676757812 131.333984375 357.676757812 132.000976562 c 0
 360.34375 132.000976562 363.34375 131.66796875 366.676757812 131.000976562 c 0
 380.009765625 131.000976562 392.676757812 127.66796875 404.676757812 121.000976562 c 0
 412.009765625 117.000976562 417.342773438 111.000976562 420.67578125 103.000976562 c 0
 423.342773438 95.66796875 423.67578125 87.66796875 421.67578125 79.0009765625 c 0
EndSplineSet
Validated: 524289
EndChar

StartChar: less
Encoding: 60 60 35
Width: 650
GlyphClass: 2
Flags: HMW
HStem: -24 21G<494.513 499.513 499.513 508.513>
LayerCount: 2
Fore
SplineSet
499.512695312 -24 m 2
 489.512695312 -24 478.846679688 -21.9990234375 467.513671875 -17.9990234375 c 0
 452.180664062 -12.666015625 434.84765625 -0.666015625 415.514648438 18.0009765625 c 0
 396.181640625 36.66796875 376.181640625 58.8349609375 355.514648438 84.501953125 c 0
 334.84765625 110.168945312 314.514648438 135.8359375 294.514648438 161.502929688 c 0
 274.514648438 187.169921875 253.34765625 213.669921875 231.014648438 241.002929688 c 0
 208.681640625 268.3359375 189.181640625 290.002929688 172.514648438 306.002929688 c 0
 164.514648438 314.002929688 160.514648438 325.002929688 160.514648438 339.002929688 c 0
 160.514648438 345.002929688 161.34765625 351.502929688 163.014648438 358.502929688 c 0
 164.681640625 365.502929688 167.181640625 372.669921875 170.514648438 380.002929688 c 0
 177.181640625 394.002929688 186.514648438 404.002929688 198.514648438 410.002929688 c 0
 239.84765625 438.002929688 289.014648438 473.169921875 346.014648438 515.502929688 c 0
 403.014648438 557.8359375 455.34765625 596.168945312 503.014648438 630.501953125 c 0
 550.681640625 664.834960938 592.514648438 692.001953125 628.514648438 712.001953125 c 0
 643.181640625 720.668945312 656.514648438 725.001953125 668.514648438 725.001953125 c 0
 677.84765625 725.001953125 685.514648438 722.668945312 691.514648438 718.001953125 c 0
 703.514648438 709.334960938 710.84765625 697.66796875 713.514648438 683.000976562 c 0
 714.84765625 676.333984375 714.680664062 669.000976562 713.013671875 661.000976562 c 0
 711.346679688 653.000976562 706.846679688 644.66796875 699.513671875 636.000976562 c 0
 688.846679688 622.66796875 670.513671875 607.66796875 644.513671875 591.000976562 c 0
 603.846679688 565.000976562 544.846679688 524.833984375 467.513671875 470.500976562 c 0
 390.180664062 416.16796875 337.513671875 379.334960938 309.513671875 360.001953125 c 1
 326.180664062 342.001953125 345.34765625 319.668945312 367.014648438 293.001953125 c 0
 388.681640625 266.334960938 408.014648438 241.66796875 425.014648438 219.000976562 c 0
 442.014648438 196.333984375 460.681640625 173.166992188 481.014648438 149.5 c 0
 501.34765625 125.833007812 520.180664062 106.833007812 537.513671875 92.5 c 0
 554.846679688 78.1669921875 565.846679688 65 570.513671875 53 c 0
 573.846679688 45 574.1796875 36.3330078125 571.512695312 27 c 0
 570.1796875 20.3330078125 567.512695312 14 563.512695312 8 c 0
 550.845703125 -10 532.512695312 -20.6669921875 508.512695312 -24 c 2
 499.512695312 -24 l 2
EndSplineSet
Validated: 524289
EndChar

StartChar: equal
Encoding: 61 61 36
Width: 650
GlyphClass: 2
Flags: HMW
HStem: 235 107<235.087 268.087> 435 106
LayerCount: 2
Fore
SplineSet
585.751953125 541 m 0
 603.751953125 541 615.419921875 536.33203125 620.752929688 526.999023438 c 0
 624.307617188 520.77734375 626.0859375 513.518554688 626.0859375 505.22265625 c 0
 626.0859375 501.07421875 625.640625 496.666015625 624.751953125 491.999023438 c 2
 624.751953125 490.999023438 l 2
 623.418945312 483.666015625 621.418945312 476.999023438 618.751953125 470.999023438 c 0
 616.084960938 464.999023438 612.084960938 458.83203125 606.751953125 452.499023438 c 0
 601.418945312 446.166015625 594.418945312 441.333007812 585.751953125 438 c 0
 579.751953125 436 573.751953125 435 567.751953125 435 c 2
 559.751953125 435 l 2
 537.751953125 435.666992188 514.751953125 436 490.751953125 436 c 2
 387.751953125 433 l 2
 344.418945312 431.666992188 312.418945312 431 291.751953125 431 c 0
 273.751953125 431 260.418945312 436 251.751953125 446 c 0
 245.4921875 453.22265625 242.362304688 461.8359375 242.362304688 471.840820312 c 0
 242.362304688 475.688476562 242.825195312 479.741210938 243.750976562 484 c 2
 243.750976562 487 l 2
 247.083984375 501 254.583984375 513.5 266.250976562 524.5 c 0
 277.91796875 535.5 292.41796875 541 309.750976562 541 c 2
 313.750976562 541 l 2
 350.150390625 539.799804688 390.149414062 539.200195312 433.749023438 539.200195312 c 0
 462.81640625 539.200195312 493.484375 539.466796875 525.751953125 540 c 0
 559.084960938 540.666992188 579.084960938 541 585.751953125 541 c 0
521.752929688 238.999023438 m 2
 514.75390625 239 l 2
 500.75390625 239.666992188 487.420898438 240 474.75390625 240 c 0
 448.75390625 240 408.75390625 239.166992188 354.75390625 237.5 c 0
 300.75390625 235.833007812 264.086914062 235 244.75390625 235 c 0
 225.420898438 235 212.087890625 240.333007812 204.754882812 251 c 0
 199.712890625 258.333984375 197.192382812 266.770507812 197.192382812 276.309570312 c 0
 197.192382812 280.645507812 197.712890625 285.208984375 198.754882812 290 c 2
 198.754882812 292 l 2
 202.087890625 306 209.920898438 317.833007812 222.25390625 327.5 c 0
 234.586914062 337.166992188 249.75390625 342 267.75390625 342 c 0
 268.420898438 342 273.75390625 341.666992188 283.75390625 341 c 0
 296.87109375 340.77734375 311.434570312 340.666015625 327.443359375 340.666015625 c 0
 359.438476562 340.666015625 397.208007812 341.110351562 440.752929688 341.999023438 c 2
 539.752929688 344.999023438 l 2
 557.752929688 344.999023438 569.5859375 340.33203125 575.252929688 330.999023438 c 0
 579.106445312 324.65234375 581.033203125 317.227539062 581.033203125 308.72265625 c 0
 581.033203125 304.720703125 580.606445312 300.479492188 579.752929688 295.999023438 c 2
 579.752929688 294.999023438 l 2
 578.419921875 287.666015625 576.252929688 281.166015625 573.252929688 275.499023438 c 0
 570.252929688 269.83203125 566.419921875 263.999023438 561.752929688 257.999023438 c 0
 556.419921875 251.33203125 549.419921875 245.999023438 540.752929688 241.999023438 c 0
 534.752929688 239.999023438 528.419921875 238.999023438 521.752929688 238.999023438 c 2
EndSplineSet
Validated: 524289
EndChar

StartChar: greater
Encoding: 62 62 37
Width: 650
GlyphClass: 2
Flags: HMW
HStem: -18 21G<132.89 143.558>
LayerCount: 2
Fore
SplineSet
137.224609375 -18 m 0
 128.557617188 -18 121.221679688 -15.6689453125 115.221679688 -11.001953125 c 0
 109.221679688 -6.3349609375 104.388671875 -1.001953125 100.721679688 4.998046875 c 0
 97.0546875 10.998046875 94.5546875 17.3310546875 93.2216796875 23.998046875 c 0
 91.888671875 30.6650390625 92.0556640625 37.998046875 93.72265625 45.998046875 c 0
 95.3896484375 53.998046875 99.556640625 62.3310546875 106.223632812 70.998046875 c 0
 116.890625 84.3310546875 135.557617188 99.3310546875 162.224609375 115.998046875 c 0
 202.891601562 141.998046875 261.891601562 182.165039062 339.224609375 236.498046875 c 0
 416.557617188 290.831054688 468.890625 327.6640625 496.223632812 346.997070312 c 1
 478.890625 364.997070312 459.723632812 387.330078125 438.723632812 413.997070312 c 0
 417.723632812 440.6640625 398.556640625 465.331054688 381.223632812 487.998046875 c 0
 363.890625 510.665039062 345.057617188 533.83203125 324.724609375 557.499023438 c 0
 304.391601562 581.166015625 285.724609375 600.166015625 268.724609375 614.499023438 c 0
 251.724609375 628.83203125 240.891601562 641.999023438 236.224609375 653.999023438 c 0
 232.891601562 661.999023438 232.55859375 670.666015625 235.225585938 679.999023438 c 0
 236.55859375 686.666015625 239.225585938 692.999023438 243.225585938 698.999023438 c 0
 255.892578125 716.999023438 274.225585938 727.666015625 298.225585938 730.999023438 c 2
 307.225585938 730.999023438 l 2
 317.225585938 730.999023438 327.892578125 728.999023438 339.225585938 724.999023438 c 0
 354.55859375 719.666015625 372.05859375 707.833007812 391.725585938 689.5 c 0
 411.392578125 671.166992188 431.392578125 649 451.725585938 623 c 0
 472.05859375 597 492.225585938 571.166992188 512.225585938 545.5 c 0
 532.225585938 519.833007812 553.392578125 493.333007812 575.725585938 466 c 0
 598.05859375 438.666992188 617.55859375 417 634.225585938 401 c 0
 642.225585938 393 646.225585938 382 646.225585938 368 c 0
 646.225585938 362 645.392578125 355.5 643.725585938 348.5 c 0
 642.05859375 341.5 639.55859375 334.333007812 636.225585938 327 c 0
 629.55859375 313 620.225585938 303 608.225585938 297 c 0
 566.892578125 269.666992188 517.725585938 234.666992188 460.725585938 192 c 0
 403.725585938 149.333007812 351.392578125 110.833007812 303.725585938 76.5 c 0
 256.05859375 42.1669921875 214.225585938 15 178.225585938 -5 c 0
 163.55859375 -13.6669921875 149.891601562 -18 137.224609375 -18 c 0
EndSplineSet
Validated: 524289
EndChar

StartChar: question
Encoding: 63 63 38
Width: 650
GlyphClass: 2
Flags: HMW
HStem: -25.999 178.002<274.876 351.208 285.876 351.208> 508.998 21G<289.208 290.875 290.875 298.875> 625.003 108.995<466.542 472.874>
VStem: 304.876 116
LayerCount: 2
Fore
SplineSet
353.875 201 m 0
 348.541992188 201 342.875976562 201.66796875 336.875976562 203.000976562 c 0
 313.828125 209.810546875 302.3046875 224.028320312 302.3046875 245.655273438 c 0
 302.3046875 251.552734375 303.162109375 258.001953125 304.875976562 265.001953125 c 0
 306.875976562 274.334960938 310.54296875 284.334960938 315.875976562 295.001953125 c 0
 325.208984375 314.334960938 336.041992188 332.334960938 348.375 349.001953125 c 0
 360.708007812 365.668945312 373.375 380.001953125 386.375 392.001953125 c 0
 399.375 404.001953125 412.541992188 415.168945312 425.875 425.501953125 c 0
 439.208007812 435.834960938 451.875 445.501953125 463.875 454.501953125 c 0
 475.875 463.501953125 486.541992188 472.334960938 495.875 481.001953125 c 0
 515.875 499.668945312 528.208007812 519.001953125 532.875 539.001953125 c 0
 535.563476562 550.24609375 536.908203125 560.280273438 536.908203125 569.104492188 c 0
 536.908203125 584.34765625 532.896484375 595.98046875 524.874023438 604.002929688 c 0
 511.541015625 618.002929688 488.874023438 625.002929688 456.874023438 625.002929688 c 0
 449.541015625 625.002929688 441.708007812 623.169921875 433.375 619.502929688 c 0
 425.041992188 615.8359375 417.375 611.668945312 410.375 607.001953125 c 0
 403.375 602.334960938 395.541992188 595.66796875 386.875 587.000976562 c 0
 378.208007812 578.333984375 371.208007812 571.166992188 365.875 565.5 c 0
 360.541992188 559.833007812 353.875 552.166015625 345.875 542.499023438 c 0
 337.875 532.83203125 330.041992188 525.165039062 322.375 519.498046875 c 0
 314.708007812 513.831054688 306.875 510.331054688 298.875 508.998046875 c 2
 290.875 508.998046875 l 2
 287.541992188 508.998046875 283.875 509.665039062 279.875 510.998046875 c 0
 275.875 512.331054688 270.208007812 514.6640625 262.875 517.997070312 c 0
 250.875 525.997070312 244.875 537.330078125 244.875 551.997070312 c 0
 244.875 555.330078125 245.208007812 559.330078125 245.875 563.997070312 c 0
 248.541992188 575.997070312 254.875 589.330078125 264.875 603.997070312 c 0
 275.541992188 618.6640625 287.541992188 632.831054688 300.875 646.498046875 c 0
 314.208007812 660.165039062 330.041015625 673.998046875 348.374023438 687.998046875 c 0
 366.70703125 701.998046875 387.20703125 713.165039062 409.874023438 721.498046875 c 0
 432.541015625 729.831054688 455.208007812 733.998046875 477.875 733.998046875 c 0
 547.208007812 733.998046875 596.375 716.165039062 625.375 680.498046875 c 0
 644.063476562 657.512695312 653.408203125 627.3984375 653.408203125 590.154296875 c 0
 653.408203125 569.60546875 650.563476562 546.88671875 644.875 521.998046875 c 0
 640.208007812 502.665039062 633.208007812 484.83203125 623.875 468.499023438 c 0
 614.541992188 452.166015625 603.708984375 438.333007812 591.375976562 427 c 0
 579.04296875 415.666992188 566.375976562 405.166992188 553.375976562 395.5 c 0
 540.375976562 385.833007812 527.208984375 376.5 513.875976562 367.5 c 0
 500.54296875 358.5 488.04296875 349.166992188 476.375976562 339.5 c 0
 464.708984375 329.833007812 453.875976562 318.333007812 443.875976562 305 c 0
 433.875976562 291.666992188 426.208984375 276.666992188 420.875976562 260 c 0
 413.54296875 240 402.875976562 224.333007812 388.875976562 213 c 0
 378.208984375 205 366.541992188 201 353.875 201 c 0
285.875976562 -25.9990234375 m 2
 263.875976562 -25.9990234375 247.541992188 -17.9990234375 236.875 -1.9990234375 c 0
 228.279296875 10.66796875 223.982421875 24.7158203125 223.982421875 40.1455078125 c 0
 223.982421875 47.4541015625 224.946289062 55.0732421875 226.875 63.001953125 c 0
 232.875 87.6689453125 246.875 108.3359375 268.875 125.002929688 c 0
 292.208007812 143.002929688 315.875 152.002929688 339.875 152.002929688 c 0
 362.541992188 152.002929688 379.875 144.002929688 391.875 128.002929688 c 0
 400.026367188 116.681640625 404.1015625 103.515625 404.1015625 88.50390625 c 0
 404.1015625 81.4140625 403.192382812 73.9140625 401.375 66.001953125 c 0
 395.708007812 41.3349609375 383.208007812 20.66796875 363.875 4.0009765625 c 0
 344.541992188 -12.666015625 322.208984375 -22.666015625 296.875976562 -25.9990234375 c 2
 285.875976562 -25.9990234375 l 2
EndSplineSet
Validated: 524289
EndChar

StartChar: at
Encoding: 64 64 39
Width: 650
GlyphClass: 2
Flags: HMW
HStem: -141.997 110.002<265.792 322.46 283.126 322.46> 105 105.001<354.13 354.797> 369.5 100.5 601.002 113.999<470.127 511.791>
VStem: 108.625 109.002 575.63 98.4951
LayerCount: 2
Fore
SplineSet
425.124023438 148 m 1
 400.45703125 119.333007812 371.463867188 105 338.130859375 105 c 0
 298.130859375 105 269.963867188 118.833007812 253.630859375 146.5 c 0
 244.431640625 162.08203125 239.833007812 181.735351562 239.833007812 205.458984375 c 0
 239.833007812 223.857421875 242.598632812 244.704101562 248.131835938 268 c 0
 254.131835938 294.666992188 262.46484375 319.166992188 273.131835938 341.5 c 0
 283.798828125 363.833007812 295.798828125 383 309.131835938 399 c 0
 322.46484375 415 337.131835938 428.666992188 353.131835938 440 c 0
 381.131835938 460 411.131835938 470 443.131835938 470 c 0
 461.798828125 470 479.465820312 466 496.1328125 458 c 0
 510.799804688 451.333007812 521.799804688 442.333007812 529.1328125 431 c 0
 534.465820312 421.666992188 536.1328125 412.666992188 534.1328125 404 c 0
 533.465820312 399.333007812 531.1328125 394.333007812 527.1328125 389 c 0
 523.1328125 383.666992188 518.465820312 378.666992188 513.1328125 374 c 0
 507.799804688 369.333007812 502.1328125 366 496.1328125 364 c 0
 487.465820312 361.333007812 480.798828125 360 476.131835938 360 c 0
 468.131835938 360 459.46484375 361.333007812 450.131835938 364 c 0
 447.46484375 364.666992188 443.131835938 366 437.131835938 368 c 0
 430.46484375 369.333007812 423.96484375 369.833007812 417.631835938 369.5 c 0
 411.298828125 369.166992188 404.631835938 366.833984375 397.631835938 362.500976562 c 0
 390.631835938 358.16796875 383.798828125 352.66796875 377.131835938 346.000976562 c 0
 370.46484375 339.333984375 364.297851562 330.333984375 358.630859375 319.000976562 c 0
 352.963867188 307.66796875 348.796875 294.66796875 346.129882812 280.000976562 c 0
 344.129882812 272.000976562 342.629882812 264.333984375 341.629882812 257.000976562 c 0
 340.629882812 249.66796875 340.462890625 242.000976562 341.129882812 234.000976562 c 0
 341.796875 218.000976562 348.129882812 210.000976562 360.129882812 210.000976562 c 0
 367.462890625 210.000976562 373.462890625 211.333984375 378.129882812 214.000976562 c 0
 384.796875 216.66796875 390.463867188 221.334960938 395.130859375 228.001953125 c 0
 405.797851562 242.668945312 415.797851562 268.001953125 425.130859375 304.001953125 c 0
 429.130859375 319.334960938 442.463867188 331.66796875 465.130859375 341.000976562 c 0
 477.797851562 345.66796875 489.130859375 348.334960938 499.130859375 349.001953125 c 0
 506.463867188 349.001953125 512.463867188 347.668945312 517.130859375 345.001953125 c 0
 526.3046875 340.684570312 530.891601562 333.52734375 530.891601562 323.53125 c 0
 530.891601562 321.178710938 530.637695312 318.668945312 530.129882812 316.001953125 c 0
 530.129882812 314.668945312 529.462890625 313.3359375 528.129882812 312.002929688 c 0
 520.129882812 288.669921875 514.462890625 269.002929688 511.129882812 253.002929688 c 0
 507.129882812 235.002929688 505.129882812 219.669921875 505.129882812 207.002929688 c 0
 505.129882812 202.3359375 505.796875 199.002929688 507.129882812 197.002929688 c 0
 508.462890625 193.669921875 510.462890625 192.002929688 513.129882812 192.002929688 c 0
 514.462890625 193.3359375 516.129882812 195.3359375 518.129882812 198.002929688 c 0
 522.796875 206.002929688 527.796875 216.3359375 533.129882812 229.002929688 c 0
 541.129882812 253.002929688 547.462890625 275.002929688 552.129882812 295.002929688 c 0
 560.129882812 328.3359375 565.962890625 359.168945312 569.629882812 387.501953125 c 0
 573.296875 415.834960938 575.296875 439.834960938 575.629882812 459.501953125 c 0
 575.666992188 461.684570312 575.685546875 463.845703125 575.685546875 465.983398438 c 0
 575.685546875 483.10546875 574.5 498.778320312 572.12890625 513.001953125 c 0
 569.461914062 529.001953125 566.294921875 541.668945312 562.627929688 551.001953125 c 0
 558.9609375 560.334960938 553.9609375 568.334960938 547.627929688 575.001953125 c 0
 541.294921875 581.668945312 535.627929688 586.501953125 530.627929688 589.501953125 c 0
 525.627929688 592.501953125 519.627929688 595.001953125 512.627929688 597.001953125 c 0
 505.627929688 599.001953125 500.294921875 600.168945312 496.627929688 600.501953125 c 0
 492.9609375 600.834960938 487.793945312 601.001953125 481.126953125 601.001953125 c 0
 459.126953125 601.001953125 436.293945312 593.334960938 412.626953125 578.001953125 c 0
 388.959960938 562.668945312 366.126953125 540.668945312 344.126953125 512.001953125 c 0
 322.126953125 483.334960938 301.459960938 447.501953125 282.126953125 404.501953125 c 0
 262.793945312 361.501953125 247.4609375 314.668945312 236.127929688 264.001953125 c 0
 225.4609375 219.334960938 219.293945312 179.334960938 217.626953125 144.001953125 c 0
 217.188476562 134.703125 216.96875 125.888671875 216.96875 117.559570312 c 0
 216.96875 94.240234375 218.688476562 74.7216796875 222.126953125 59.0029296875 c 0
 226.793945312 37.669921875 234.126953125 19.8369140625 244.126953125 5.50390625 c 0
 254.126953125 -8.8291015625 264.793945312 -18.662109375 276.126953125 -23.9951171875 c 0
 287.459960938 -29.328125 300.459960938 -31.9951171875 315.126953125 -31.9951171875 c 0
 329.793945312 -31.9951171875 343.626953125 -30.328125 356.626953125 -26.9951171875 c 0
 369.626953125 -23.662109375 380.626953125 -19.9951171875 389.626953125 -15.9951171875 c 0
 398.626953125 -11.9951171875 407.626953125 -6.328125 416.626953125 1.0048828125 c 0
 425.626953125 8.337890625 432.959960938 15.1708984375 438.626953125 21.50390625 c 0
 444.293945312 27.8369140625 451.126953125 35.669921875 459.126953125 45.0029296875 c 0
 463.126953125 50.3359375 466.293945312 54.5029296875 468.626953125 57.5029296875 c 0
 470.959960938 60.5029296875 474.126953125 64.169921875 478.126953125 68.5029296875 c 0
 482.126953125 72.8359375 485.626953125 76.0029296875 488.626953125 78.0029296875 c 0
 491.626953125 80.0029296875 495.126953125 82.0029296875 499.126953125 84.0029296875 c 0
 503.126953125 86.0029296875 507.459960938 87.0029296875 512.126953125 87.0029296875 c 0
 516.793945312 87.0029296875 521.126953125 86.0029296875 525.126953125 84.0029296875 c 0
 531.126953125 81.3359375 535.793945312 78.0029296875 539.126953125 74.0029296875 c 0
 542.459960938 70.0029296875 544.626953125 65.169921875 545.626953125 59.5029296875 c 0
 546.626953125 53.8359375 546.459960938 48.0029296875 545.126953125 42.0029296875 c 0
 542.459960938 30.669921875 536.459960938 17.0029296875 527.126953125 1.0029296875 c 0
 521.126953125 -8.9970703125 515.459960938 -17.6640625 510.126953125 -24.9970703125 c 0
 504.793945312 -32.330078125 497.793945312 -41.330078125 489.126953125 -51.9970703125 c 0
 480.459960938 -62.6640625 471.79296875 -71.9970703125 463.125976562 -79.9970703125 c 0
 454.458984375 -87.9970703125 443.458984375 -96.1640625 430.125976562 -104.497070312 c 0
 416.79296875 -112.830078125 403.125976562 -119.497070312 389.125976562 -124.497070312 c 0
 375.125976562 -129.497070312 359.458984375 -133.6640625 342.125976562 -136.997070312 c 0
 324.79296875 -140.330078125 307.125976562 -141.997070312 289.125976562 -141.997070312 c 2
 283.125976562 -141.997070312 l 2
 248.458984375 -141.997070312 218.291992188 -132.6640625 192.625 -113.997070312 c 0
 166.958007812 -95.330078125 146.958007812 -69.9970703125 132.625 -37.9970703125 c 0
 118.291992188 -5.9970703125 110.291992188 32.8359375 108.625 78.5029296875 c 0
 108.421875 84.072265625 108.3203125 89.7041015625 108.3203125 95.3984375 c 0
 108.3203125 136.387695312 113.588867188 180.588867188 124.125 228.002929688 c 0
 138.125 287.3359375 155.291992188 342.8359375 175.625 394.502929688 c 0
 195.958007812 446.169921875 218.625 491.169921875 243.625 529.502929688 c 0
 268.625 567.8359375 295.291992188 601.168945312 323.625 629.501953125 c 0
 351.958007812 657.834960938 381.125 679.16796875 411.125 693.500976562 c 0
 441.125 707.833984375 471.125 715.000976562 501.125 715.000976562 c 0
 522.458007812 715.000976562 541.625 713.16796875 558.625 709.500976562 c 0
 575.625 705.833984375 591.625 699.500976562 606.625 690.500976562 c 0
 621.625 681.500976562 633.791992188 669.66796875 643.125 655.000976562 c 0
 652.458007812 640.333984375 659.958007812 622.000976562 665.625 600.000976562 c 0
 671.291992188 578.000976562 674.125 552.333984375 674.125 523.000976562 c 0
 674.125 461.66796875 663.125 385.000976562 641.125 293.000976562 c 0
 629.125 242.333984375 612.125 198.000976562 590.125 160.000976562 c 0
 577.458007812 138.66796875 562.625 121.500976562 545.625 108.500976562 c 0
 528.625 95.5009765625 510.458007812 89.0009765625 491.125 89.0009765625 c 0
 462.458007812 89.0009765625 442.791015625 99.333984375 432.124023438 120.000976562 c 0
 428.124023438 127.333984375 425.791015625 136.666992188 425.124023438 148 c 1
EndSplineSet
Validated: 524289
EndChar

StartChar: A
Encoding: 65 65 40
Width: 650
GlyphClass: 2
Flags: HMW
HStem: -6.00195 21G<100.834 108.501> 251 91.998<491.162 491.162>
VStem: 491.163 109.502 496.168 115.998
LayerCount: 2
Fore
SplineSet
171.162109375 49 m 0xe0
 158.495117188 25 144.500976562 8.998046875 129.16796875 0.998046875 c 0
 120.500976562 -3.6689453125 112.333984375 -6.001953125 104.666992188 -6.001953125 c 0
 97 -6.001953125 90.1669921875 -4.3349609375 84.1669921875 -1.001953125 c 0
 74.1669921875 4.3310546875 67.833984375 12.6640625 65.1669921875 23.9970703125 c 0
 63.1669921875 32.6640625 63.333984375 42.1640625 65.6669921875 52.4970703125 c 0
 68 62.830078125 71.8330078125 73.6630859375 77.166015625 84.99609375 c 0
 85.8330078125 105.663085938 114.166015625 153.99609375 162.166015625 229.99609375 c 1
 156.610351562 237.21875 153.83203125 245.831054688 153.83203125 255.83203125 c 0
 153.83203125 257.831054688 153.943359375 259.88671875 154.165039062 261.997070312 c 0
 154.165039062 262.6640625 154.498046875 263.331054688 155.165039062 263.998046875 c 0
 157.83203125 275.998046875 165.499023438 286.665039062 178.166015625 295.998046875 c 0
 188.833007812 304.665039062 201.166015625 311.33203125 215.166015625 315.999023438 c 1
 337.166015625 497.999023438 427.499023438 620.33203125 486.166015625 682.999023438 c 0
 500.166015625 696.999023438 512.499023438 707.33203125 523.166015625 713.999023438 c 0
 533.833007812 721.33203125 545.166015625 724.999023438 557.166015625 724.999023438 c 0
 560.499023438 724.999023438 563.166015625 725.33203125 565.166015625 725.999023438 c 0
 577.833007812 725.999023438 588.166015625 722.666015625 596.166015625 715.999023438 c 0
 606.965820312 708.798828125 612.366210938 697.818359375 612.366210938 683.05859375 c 0
 612.366210938 681.41796875 612.298828125 679.732421875 612.166015625 677.999023438 c 0xd0
 607.499023438 597.999023438 603.83203125 484.999023438 601.165039062 338.999023438 c 0
 600.403320312 292.51953125 600.022460938 253.061523438 600.022460938 220.625 c 0
 600.022460938 196.301757812 600.236328125 175.926757812 600.665039062 159.5 c 0
 601.665039062 121.166992188 603.498046875 97.6669921875 606.165039062 89 c 0
 608.248046875 81.5 609.290039062 74.259765625 609.290039062 67.2802734375 c 0
 609.290039062 63.09375 608.915039062 59 608.165039062 55 c 0
 607.498046875 53 606.831054688 50.6669921875 606.1640625 48 c 0
 602.1640625 36 595.997070312 25.8330078125 587.6640625 17.5 c 0
 579.331054688 9.1669921875 570.1640625 3 560.1640625 -1 c 0
 548.831054688 -4.3330078125 541.831054688 -6 539.1640625 -6 c 0
 531.1640625 -6 523.497070312 -3.6669921875 516.1640625 1 c 0
 503.497070312 9 495.830078125 24.6669921875 493.163085938 48 c 0
 491.080078125 61.333984375 490.038085938 92.767578125 490.038085938 142.301757812 c 0
 490.038085938 172.01953125 490.413085938 208.251953125 491.163085938 251 c 1
 412.49609375 247.666992188 340.829101562 241 276.162109375 231 c 1
 242.829101562 179 207.829101562 118.333007812 171.162109375 49 c 0xe0
340.16796875 331.998046875 m 1
 395.500976562 337.998046875 445.834960938 341.665039062 491.16796875 342.998046875 c 1
 496.16796875 567.998046875 l 1
 458.834960938 519.998046875 406.834960938 441.331054688 340.16796875 331.998046875 c 1
EndSplineSet
Validated: 524289
EndChar

StartChar: B
Encoding: 66 66 41
Width: 650
GlyphClass: 2
Flags: HMW
HStem: -23 21G<142.009 149.341> 285.002 97.998 605.004 103.999<419.677 424.676>
LayerCount: 2
Fore
SplineSet
85.6748046875 42 m 0
 91.6748046875 61.3330078125 100.008789062 94.00390625 110.67578125 140.00390625 c 0
 130.67578125 227.336914062 151.342773438 324.00390625 172.67578125 430.00390625 c 0
 181.342773438 473.336914062 187.342773438 502.50390625 190.67578125 517.50390625 c 0
 194.008789062 532.50390625 199.008789062 552.50390625 205.67578125 577.50390625 c 0
 212.342773438 602.50390625 217.009765625 619.670898438 219.676757812 629.00390625 c 0
 225.009765625 649.670898438 234.509765625 665.670898438 248.176757812 677.00390625 c 0
 261.84375 688.336914062 276.34375 694.00390625 291.676757812 694.00390625 c 2
 294.676757812 694.00390625 l 1
 312.676757812 699.336914062 334.34375 703.336914062 359.676757812 706.00390625 c 0
 370.34375 707.336914062 381.34375 708.169921875 392.676757812 708.502929688 c 0
 404.009765625 708.8359375 413.009765625 709.002929688 419.676757812 709.002929688 c 2
 439.676757812 709.002929688 l 1
 451.676757812 709.002929688 l 2
 499.009765625 709.002929688 539.676757812 700.669921875 573.676757812 684.002929688 c 0
 607.009765625 667.3359375 629.676757812 642.3359375 641.676757812 609.002929688 c 0
 649.295898438 589.955078125 653.10546875 569.166015625 653.10546875 546.634765625 c 0
 653.10546875 529.737304688 650.962890625 511.860351562 646.676757812 493.002929688 c 0
 638.009765625 455.002929688 621.342773438 422.002929688 596.67578125 394.002929688 c 0
 578.67578125 372.669921875 558.008789062 355.669921875 534.67578125 343.002929688 c 1
 547.342773438 336.3359375 559.009765625 328.668945312 569.676757812 320.001953125 c 0
 587.009765625 305.334960938 601.009765625 288.66796875 611.676757812 270.000976562 c 0
 619.434570312 256.424804688 623.313476562 243.026367188 623.313476562 229.802734375 c 0
 623.313476562 224.84375 622.767578125 219.91015625 621.676757812 215.000976562 c 0
 621.676757812 214.333984375 621.34375 214.000976562 620.676757812 214.000976562 c 0
 614.676757812 188.000976562 602.34375 162.333984375 583.676757812 137.000976562 c 0
 565.009765625 111.66796875 541.342773438 88.5009765625 512.67578125 67.5009765625 c 0
 484.008789062 46.5009765625 448.341796875 28.66796875 405.674804688 14.0009765625 c 0
 362.341796875 -0.666015625 316.674804688 -9.9990234375 268.674804688 -13.9990234375 c 1
 263.688476562 -10.7724609375 258.37890625 -9.1591796875 252.747070312 -9.1591796875 c 0
 245.579101562 -9.1591796875 237.888671875 -11.7724609375 229.674804688 -16.9990234375 c 1
 197.0078125 -19.666015625 176.674804688 -21.3330078125 168.674804688 -22 c 0
 160.674804688 -22.6669921875 153.0078125 -23 145.674804688 -23 c 0
 138.341796875 -23 131.674804688 -22.3330078125 125.674804688 -21 c 2
 123.674804688 -21 l 2
 108.341796875 -21 96.6748046875 -15.3330078125 88.6748046875 -4 c 0
 84.5078125 2.25 82.4248046875 9.671875 82.4248046875 18.265625 c 0
 82.4248046875 23.421875 83.1748046875 29 84.6748046875 35 c 0
 84.6748046875 37.6669921875 85.0078125 40 85.6748046875 42 c 0
278.67578125 402.00390625 m 0
 277.342773438 395.336914062 276.006835938 389 274.673828125 383 c 1
 302.006835938 382.333007812 326.673828125 381.833007812 348.673828125 381.5 c 0
 350.872070312 381.466796875 353.04296875 381.450195312 355.184570312 381.450195312 c 0
 374.4765625 381.450195312 391.47265625 382.799804688 406.173828125 385.5 c 0
 422.506835938 388.5 436.506835938 392.333007812 448.173828125 397 c 0
 459.840820312 401.666992188 470.5078125 407.333984375 480.174804688 414.000976562 c 0
 489.841796875 420.66796875 497.508789062 427.334960938 503.17578125 434.001953125 c 0
 508.842773438 440.668945312 514.17578125 448.168945312 519.17578125 456.501953125 c 0
 524.17578125 464.834960938 528.008789062 472.334960938 530.67578125 479.001953125 c 0
 533.342773438 485.668945312 535.342773438 492.668945312 536.67578125 500.001953125 c 0
 538.4296875 507.721679688 539.307617188 515.1640625 539.307617188 522.330078125 c 0
 539.307617188 528.778320312 538.596679688 535.002929688 537.17578125 541.002929688 c 0
 534.17578125 553.669921875 528.67578125 563.836914062 520.67578125 571.50390625 c 0
 512.67578125 579.170898438 503.342773438 585.670898438 492.67578125 591.00390625 c 0
 473.92578125 600.37890625 452.833007812 605.06640625 429.396484375 605.06640625 c 0
 427.833007812 605.06640625 426.259765625 605.045898438 424.67578125 605.00390625 c 0
 392.67578125 605.00390625 360.67578125 602.00390625 328.67578125 596.00390625 c 1
 325.342773438 584.00390625 320.67578125 566.00390625 314.67578125 542.00390625 c 0
 300.67578125 492.670898438 288.67578125 446.00390625 278.67578125 402.00390625 c 0
481.172851562 165.5 m 0
 492.83984375 178.5 499.674804688 189.670898438 501.674804688 199.00390625 c 0
 503.0078125 204.336914062 501.5078125 210.669921875 497.174804688 218.002929688 c 0
 492.841796875 225.3359375 484.841796875 233.168945312 473.174804688 241.501953125 c 0
 461.5078125 249.834960938 443.840820312 258.001953125 420.173828125 266.001953125 c 0
 396.506835938 274.001953125 369.006835938 280.334960938 337.673828125 285.001953125 c 1
 254.673828125 285.001953125 l 1
 236.006835938 193.001953125 222.33984375 124.668945312 213.672851562 80.001953125 c 1
 220.33984375 80.001953125 230.33984375 80.1689453125 243.672851562 80.501953125 c 0
 257.005859375 80.8349609375 268.005859375 81.3349609375 276.672851562 82.001953125 c 0
 306.672851562 83.3349609375 335.672851562 88.16796875 363.672851562 96.5009765625 c 0
 391.672851562 104.833984375 415.33984375 115.166992188 434.672851562 127.5 c 0
 454.005859375 139.833007812 469.505859375 152.5 481.172851562 165.5 c 0
EndSplineSet
Validated: 524289
EndChar

StartChar: C
Encoding: 67 67 42
Width: 650
GlyphClass: 2
Flags: HMW
HStem: -30.9971 114.001<265.598 327.598 279.931 327.598> 608.005 104.996<558.598 559.598>
LayerCount: 2
Fore
SplineSet
734.930664062 692 m 0
 734.930664062 666 731.264648438 638.336914062 723.931640625 609.00390625 c 0
 719.264648438 589.00390625 716.264648438 577.00390625 714.931640625 573.00390625 c 0
 710.931640625 556.336914062 701.431640625 539.50390625 686.431640625 522.50390625 c 0
 671.431640625 505.50390625 657.264648438 496.336914062 643.931640625 495.00390625 c 0
 641.264648438 495.00390625 638.264648438 494.670898438 634.931640625 494.00390625 c 0
 623.598632812 494.00390625 613.598632812 498.00390625 604.931640625 506.00390625 c 0
 594.67578125 514.208984375 589.546875 524.583984375 589.546875 537.12890625 c 0
 589.546875 540.891601562 590.008789062 544.850585938 590.931640625 549.00390625 c 0
 592.264648438 553.670898438 595.59765625 565.670898438 600.930664062 585.00390625 c 1
 593.59765625 590.336914062 588.930664062 593.836914062 586.930664062 595.50390625 c 0
 584.930664062 597.170898438 581.930664062 599.337890625 577.930664062 602.004882812 c 0
 570.59765625 606.004882812 563.264648438 608.004882812 555.931640625 608.004882812 c 0
 537.264648438 608.004882812 515.264648438 602.004882812 489.931640625 590.004882812 c 0
 464.598632812 578.004882812 438.931640625 560.504882812 412.931640625 537.504882812 c 0
 386.931640625 514.504882812 361.764648438 488.171875 337.431640625 458.504882812 c 0
 313.098632812 428.837890625 291.431640625 395.170898438 272.431640625 357.50390625 c 0
 253.431640625 319.836914062 239.598632812 282.336914062 230.931640625 245.00390625 c 0
 227.754882812 230.88671875 226.166992188 217.001953125 226.166992188 203.3515625 c 0
 226.166992188 191.217773438 227.421875 179.268554688 229.931640625 167.50390625 c 0
 235.264648438 142.50390625 245.764648438 122.170898438 261.431640625 106.50390625 c 0
 277.098632812 90.8369140625 295.598632812 83.00390625 316.931640625 83.00390625 c 0
 338.264648438 83.00390625 359.264648438 85.1708984375 379.931640625 89.50390625 c 0
 400.598632812 93.8369140625 419.598632812 99.3369140625 436.931640625 106.00390625 c 0
 454.264648438 112.670898438 469.431640625 119.50390625 482.431640625 126.50390625 c 0
 495.431640625 133.50390625 507.598632812 140.670898438 518.931640625 148.00390625 c 0
 528.931640625 154.670898438 537.931640625 160.00390625 545.931640625 164.00390625 c 0
 553.931640625 168.00390625 562.431640625 169.836914062 571.431640625 169.50390625 c 0
 580.431640625 169.170898438 587.931640625 166.00390625 593.931640625 160.00390625 c 0
 602.494140625 151.44140625 606.775390625 141.641601562 606.775390625 130.60546875 c 0
 606.775390625 127.034179688 606.327148438 123.333984375 605.430664062 119.50390625 c 0
 601.763671875 103.836914062 590.263671875 86.669921875 570.930664062 68.0029296875 c 0
 502.284179688 1.99609375 409.45703125 -31.0068359375 292.450195312 -31.0068359375 c 0
 291.279296875 -31.0068359375 290.106445312 -31.00390625 288.930664062 -30.9970703125 c 2
 279.930664062 -30.9970703125 l 2
 251.263671875 -30.9970703125 224.930664062 -26.330078125 200.930664062 -16.9970703125 c 0
 177.59765625 -7.6640625 159.264648438 5.0029296875 145.931640625 21.0029296875 c 0
 132.598632812 37.0029296875 121.931640625 55.3359375 113.931640625 76.0029296875 c 0
 105.931640625 96.669921875 101.598632812 118.669921875 100.931640625 142.002929688 c 0
 100.857421875 144.596679688 100.8203125 147.190429688 100.8203125 149.784179688 c 0
 100.8203125 170.5234375 103.190429688 191.262695312 107.930664062 212.001953125 c 0
 119.263671875 260.001953125 134.763671875 306.501953125 154.430664062 351.501953125 c 0
 174.09765625 396.501953125 196.09765625 437.001953125 220.430664062 473.001953125 c 0
 244.763671875 509.001953125 271.596679688 542.334960938 300.9296875 573.001953125 c 0
 330.9296875 603.001953125 361.596679688 628.168945312 392.9296875 648.501953125 c 0
 424.262695312 668.834960938 455.262695312 684.66796875 485.9296875 696.000976562 c 0
 516.596679688 707.333984375 545.263671875 713.000976562 571.930664062 713.000976562 c 0
 593.263671875 713.000976562 612.930664062 711.333984375 630.930664062 708.000976562 c 1
 636.263671875 715.333984375 642.596679688 721.666992188 649.9296875 727 c 0
 660.596679688 735 671.263671875 739.333007812 681.930664062 740 c 0
 685.930664062 740.666992188 688.430664062 741 689.430664062 741 c 2
 690.930664062 741 l 2
 700.930664062 741 709.930664062 737.666992188 717.930664062 731 c 0
 729.263671875 721.666992188 734.930664062 708.666992188 734.930664062 692 c 0
EndSplineSet
Validated: 524289
EndChar

StartChar: D
Encoding: 68 68 43
Width: 650
GlyphClass: 2
Flags: HMW
HStem: -31 110.001<325.803 383.138 341.136 383.138> 694 20G<274.139 292.805>
LayerCount: 2
Fore
SplineSet
278.638671875 86 m 0
 305.638671875 81.3330078125 337.805664062 79.0009765625 375.138671875 79.0009765625 c 0
 391.138671875 79.0009765625 407.805664062 84.66796875 425.138671875 96.0009765625 c 0
 442.471679688 107.333984375 458.3046875 122.166992188 472.637695312 140.5 c 0
 486.970703125 158.833007812 499.970703125 179.333007812 511.637695312 202 c 0
 523.3046875 224.666992188 531.471679688 246.666992188 536.138671875 268 c 0
 543.09765625 297.98828125 546.576171875 326.2265625 546.576171875 352.71484375 c 0
 546.576171875 432.810546875 514.763671875 496.905273438 451.138671875 545 c 0
 421.138671875 567.666992188 375.138671875 591 313.138671875 615 c 1
 292.471679688 533.666992188 273.471679688 448.666992188 256.138671875 360 c 0
 250.138671875 331.333007812 241.638671875 289.5 230.638671875 234.5 c 0
 219.638671875 179.5 211.138671875 137.333007812 205.138671875 108 c 1
 227.138671875 98 251.638671875 90.6669921875 278.638671875 86 c 0
76.1376953125 62 m 0
 82.8046875 84.6669921875 91.8056640625 120 103.138671875 168 c 0
 123.138671875 256 145.471679688 360.666992188 170.138671875 482 c 0
 177.471679688 518 182.471679688 541.833007812 185.138671875 553.5 c 0
 187.805664062 565.166992188 192.47265625 583 199.139648438 607 c 0
 204.24609375 625.380859375 207.591796875 637.896484375 209.178710938 644.545898438 c 0
 209.283203125 645.229492188 209.603515625 647.046875 210.140625 649.999023438 c 0
 215.473632812 670.666015625 224.806640625 686.333007812 238.139648438 697 c 0
 251.47265625 708.333007812 266.139648438 714 282.139648438 714 c 0
 303.47265625 714 330.47265625 710.666992188 363.139648438 704 c 0
 383.806640625 700 404.806640625 694.5 426.139648438 687.5 c 0
 447.47265625 680.5 469.805664062 670.666992188 493.138671875 658 c 0
 516.471679688 645.333007812 538.138671875 630.833007812 558.138671875 614.5 c 0
 578.138671875 598.166992188 596.138671875 577.333984375 612.138671875 552.000976562 c 0
 626.805664062 527.333984375 638.138671875 500.166992188 646.138671875 470.5 c 0
 653.5234375 443.116210938 657.215820312 411.1875 657.215820312 374.715820312 c 0
 657.215820312 371.67578125 657.190429688 368.603515625 657.138671875 365.5 c 0
 656.471679688 325.166992188 650.8046875 281.666992188 640.137695312 235 c 0
 634.8046875 211.666992188 626.3046875 187.666992188 614.637695312 163 c 0
 602.970703125 138.333007812 588.303710938 114.666015625 570.63671875 91.9990234375 c 0
 552.969726562 69.33203125 533.469726562 48.83203125 512.13671875 30.4990234375 c 0
 490.803710938 12.166015625 466.13671875 -2.6669921875 438.13671875 -14 c 0
 410.979492188 -25.3681640625 383.522460938 -31.052734375 355.767578125 -31.052734375 c 0
 354.224609375 -31.052734375 352.681640625 -31.03515625 351.13671875 -31 c 2
 341.13671875 -31 l 2
 310.469726562 -31 280.13671875 -29.5 250.13671875 -26.5 c 0
 220.13671875 -23.5 196.13671875 -20 178.13671875 -16 c 0
 160.803710938 -12 146.470703125 -8.3330078125 135.137695312 -5 c 0
 123.8046875 -1.6669921875 116.8046875 0 114.137695312 0 c 0
 98.8046875 0 87.1376953125 5.6669921875 79.1376953125 17 c 0
 74.6923828125 23.6669921875 72.470703125 31.51953125 72.470703125 40.556640625 c 0
 72.470703125 45.0751953125 73.025390625 49.8896484375 74.13671875 55 c 0
 74.8037109375 57.6669921875 75.470703125 60 76.1376953125 62 c 0
209.6796875 646.7109375 m 1
 209.892578125 647.672851562 210.046875 648.435546875 210.140625 649 c 1
 209.962890625 648.11328125 209.809570312 647.349609375 209.6796875 646.7109375 c 1
EndSplineSet
Validated: 524289
EndChar

StartChar: E
Encoding: 69 69 44
Width: 650
GlyphClass: 2
Flags: HMW
HStem: -20 115 -6 115<495.208 554.873 502.208 554.873> 301 108.999 319 106<577.541 616.206> 589.998 107.998<493.538 524.206 474.206 545.872>
VStem: 216.207 1<640 640>
LayerCount: 2
Fore
SplineSet
292.205078125 704 m 2x8c
 307.538085938 704 319.206054688 698.663085938 327.206054688 687.99609375 c 1
 382.5390625 694.663085938 451.872070312 697.99609375 535.205078125 697.99609375 c 0
 556.538085938 697.99609375 576.87109375 697.663085938 596.204101562 696.99609375 c 0
 634.87109375 695.663085938 664.538085938 693.663085938 685.205078125 690.99609375 c 0
 701.872070312 688.99609375 713.0390625 683.829101562 718.706054688 675.49609375 c 0
 722.559570312 669.830078125 724.486328125 662.853515625 724.486328125 654.56640625 c 0
 724.486328125 650.666015625 724.059570312 646.4765625 723.206054688 641.99609375 c 0
 721.873046875 634.663085938 719.706054688 627.830078125 716.706054688 621.497070312 c 0
 713.706054688 615.1640625 709.873046875 609.331054688 705.206054688 603.998046875 c 0
 699.873046875 597.331054688 692.873046875 591.998046875 684.206054688 587.998046875 c 0
 678.206054688 585.998046875 671.873046875 584.998046875 665.206054688 584.998046875 c 2
 658.206054688 584.998046875 l 2
 616.206054688 588.331054688 571.5390625 589.998046875 524.206054688 589.998046875 c 2
 474.206054688 589.998046875 l 2
 414.873046875 588.665039062 362.873046875 585.33203125 318.206054688 579.999023438 c 1
 302.206054688 522.666015625 287.873046875 465.999023438 275.206054688 409.999023438 c 1
 323.206054688 410.666015625 388.5390625 413.333007812 471.206054688 418 c 0
 551.873046875 422.666992188 597.206054688 425 607.206054688 425 c 0
 625.206054688 425 637.0390625 420.333007812 642.706054688 411 c 0
 646.274414062 405.123046875 648.05859375 398.321289062 648.05859375 390.59375 c 0
 648.05859375 386.049804688 647.44140625 381.184570312 646.20703125 376 c 2
 646.20703125 375 l 2
 642.874023438 359 636.541015625 346.666992188 627.208007812 338 c 0
 615.208007812 325.333007812 600.541015625 319 583.208007812 319 c 0x9c
 571.875 319 523.208007812 316.333007812 437.208007812 311 c 0
 349.208007812 305 287.208007812 301.666992188 251.208007812 301 c 1
 247.875 285 244.375 269 240.708007812 253 c 0
 237.041015625 237 233.541015625 220.333007812 230.208007812 203 c 0
 220.208007812 158.333007812 214.208007812 127.333007812 212.208007812 110 c 0
 211.541015625 104 210.874023438 99 210.20703125 95 c 1xac
 222.20703125 93.6669921875 240.540039062 92.833984375 265.20703125 92.5009765625 c 0
 270.137695312 92.4345703125 275.321289062 92.4013671875 280.7578125 92.4013671875 c 0
 302.51953125 92.4013671875 328.3359375 92.9345703125 358.20703125 94.0009765625 c 0
 445.540039062 97.333984375 501.20703125 101.666992188 525.20703125 107 c 0
 535.20703125 108.333007812 543.874023438 109 551.20703125 109 c 0
 558.540039062 109 564.70703125 107.333007812 569.70703125 104 c 0
 574.70703125 100.666992188 578.70703125 97.1669921875 581.70703125 93.5 c 0
 584.70703125 89.8330078125 586.540039062 85.3330078125 587.20703125 80 c 0
 587.874023438 74.6669921875 588.20703125 70 588.20703125 66 c 0
 588.20703125 62 587.874023438 57.6669921875 587.20703125 53 c 0
 583.874023438 37.6669921875 575.541015625 23.6669921875 562.208007812 11 c 0
 550.208007812 -0.3330078125 536.208007812 -6.3330078125 520.208007812 -7 c 1
 517.541015625 1.6669921875 512.541015625 2 505.208007812 -6 c 1
 502.208007812 -6 l 2x4c
 488.208007812 -6 461.208007812 -7.3330078125 421.208007812 -10 c 0
 379.875 -12.6669921875 337.541992188 -15 294.208984375 -17 c 0
 250.875976562 -19 218.208984375 -20 196.208984375 -20 c 0
 174.875976562 -20 157.875976562 -19.3330078125 145.208984375 -18 c 0
 128.541992188 -16.6669921875 113.875 -8 101.208007812 8 c 0
 90.744140625 20.666015625 85.5126953125 35.8349609375 85.5126953125 53.505859375 c 0
 85.5126953125 57.2265625 85.744140625 61.0576171875 86.2080078125 65 c 0
 87.541015625 81 92.8740234375 109 102.20703125 149 c 0
 110.874023438 185.666992188 119.70703125 222.5 128.70703125 259.5 c 0
 137.70703125 296.5 145.20703125 328 151.20703125 354 c 0
 157.20703125 380 164.540039062 415.666992188 173.20703125 461 c 0
 181.20703125 499.666992188 186.70703125 525.5 189.70703125 538.5 c 0
 192.70703125 551.5 197.540039062 570 204.20703125 594 c 0
 210.201171875 615.578125 214.0390625 630.150390625 215.721679688 637.716796875 c 1
 215.010742188 634.133789062 215.504882812 634.89453125 217.20703125 640 c 0
 222.540039062 660.666992188 231.873046875 676.5 245.206054688 687.5 c 0
 258.5390625 698.5 272.872070312 704 288.205078125 704 c 2
 292.205078125 704 l 2x8c
215.721679688 637.716796875 m 1
 215.846679688 638.344726562 216.008789062 639.10546875 216.20703125 640 c 1
 216.072265625 639.327148438 215.911132812 638.56640625 215.721679688 637.716796875 c 1
EndSplineSet
Validated: 524289
EndChar

StartChar: F
Encoding: 70 70 45
Width: 650
GlyphClass: 2
Flags: HMW
HStem: -21.002 21G<109.616 117.283 117.283 120.283> 313.498 106.502 597 110<527.615 567.615> 694 20G<290.282 295.282 295.282 303.282>
LayerCount: 2
Fore
SplineSet
295.282226562 714 m 2xd0
 311.282226562 714 322.94921875 708.666992188 330.282226562 698 c 1
 411.615234375 704 489.948242188 707 565.28125 707 c 0
 614.614257812 707 654.947265625 705.333007812 686.280273438 702 c 0
 702.947265625 700.666992188 714.114257812 695.666992188 719.78125 687 c 0
 723.969726562 680.59375 726.063476562 672.548828125 726.063476562 662.865234375 c 0
 726.063476562 659.447265625 725.802734375 655.825195312 725.28125 651.999023438 c 0
 723.28125 643.33203125 722.948242188 643.33203125 724.28125 651.999023438 c 1
 720.948242188 636.666015625 713.615234375 623.333007812 702.282226562 612 c 0
 690.94921875 600.666992188 676.282226562 595 658.282226562 595 c 2
 656.282226562 595 l 2
 622.94921875 596.333007812 586.94921875 597 548.282226562 597 c 0xe0
 476.282226562 597 400.282226562 594.333007812 320.282226562 589 c 1
 317.615234375 579 313.282226562 563.666992188 307.282226562 543 c 0
 296.615234375 503.666992188 287.615234375 467 280.282226562 433 c 0
 278.94921875 427 277.616210938 421.333007812 276.283203125 416 c 1
 302.283203125 418.666992188 330.283203125 420 360.283203125 420 c 0
 368.283203125 420 376.283203125 419.666992188 384.283203125 419 c 0
 428.283203125 418.333007812 467.950195312 416.666015625 503.283203125 413.999023438 c 0
 539.283203125 411.33203125 566.116210938 408.165039062 583.783203125 404.498046875 c 0
 601.450195312 400.831054688 612.950195312 395.1640625 618.283203125 387.497070312 c 0
 622.162109375 381.920898438 624.1015625 374.846679688 624.1015625 366.2734375 c 0
 624.1015625 363.05859375 623.829101562 359.6328125 623.283203125 355.997070312 c 1
 623.283203125 356.6640625 622.950195312 356.6640625 622.283203125 355.997070312 c 0
 618.950195312 341.997070312 613.283203125 329.6640625 605.283203125 318.997070312 c 0
 599.950195312 312.330078125 592.6171875 307.330078125 583.284179688 303.997070312 c 0
 577.284179688 301.997070312 570.951171875 300.997070312 564.284179688 300.997070312 c 2
 557.284179688 300.997070312 l 2
 539.284179688 304.330078125 512.284179688 307.330078125 476.284179688 309.997070312 c 0
 441.909179688 312.368164062 406.348632812 313.553710938 369.603515625 313.553710938 c 0
 365.014648438 313.553710938 360.408203125 313.53515625 355.783203125 313.498046875 c 0
 314.116210938 313.165039062 279.616210938 311.665039062 252.283203125 308.998046875 c 1
 234.950195312 222.331054688 216.950195312 130.998046875 198.283203125 34.998046875 c 0
 192.283203125 16.998046875 180.616210938 2.998046875 163.283203125 -7.001953125 c 0
 149.283203125 -16.3349609375 134.950195312 -21.001953125 120.283203125 -21.001953125 c 2
 117.283203125 -21.001953125 l 2
 101.950195312 -21.001953125 90.283203125 -15.3349609375 82.283203125 -4.001953125 c 0
 78.1162109375 2.248046875 76.033203125 9.669921875 76.033203125 18.263671875 c 0
 76.033203125 23.419921875 76.783203125 28.998046875 78.283203125 34.998046875 c 0
 78.9501953125 36.998046875 79.283203125 39.3310546875 79.283203125 41.998046875 c 0
 85.283203125 62.6650390625 94.283203125 97.33203125 106.283203125 145.999023438 c 0
 127.616210938 237.999023438 148.94921875 339.666015625 170.282226562 450.999023438 c 0
 178.94921875 494.33203125 185.116210938 523.499023438 188.783203125 538.499023438 c 0
 192.450195312 553.499023438 197.783203125 573.499023438 204.783203125 598.499023438 c 0
 211.783203125 623.499023438 216.283203125 640.666015625 218.283203125 649.999023438 c 0
 223.616210938 670.666015625 232.94921875 686.333007812 246.282226562 697 c 0
 259.615234375 708.333007812 274.282226562 714 290.282226562 714 c 2
 295.282226562 714 l 2xd0
EndSplineSet
Validated: 524289
EndChar

StartChar: G
Encoding: 71 71 46
Width: 650
GlyphClass: 2
Flags: HMW
HStem: -31 114<265.857 323.188> 619 105<560.523 561.52>
LayerCount: 2
Fore
SplineSet
99.1845703125 142 m 2
 99.1845703125 150 l 2
 99.1845703125 171 101.184570312 191 106.184570312 212 c 0
 117.184570312 261 133.184570312 308 153.184570312 354 c 0
 173.184570312 400 195.184570312 442 220.184570312 479 c 0
 245.184570312 516 272.184570312 549 301.184570312 580 c 0
 332.184570312 611 363.184570312 637 394.184570312 658 c 0
 425.184570312 679 455.184570312 695 486.184570312 706 c 0
 517.184570312 718 547.184570312 724 575.184570312 724 c 0
 603.184570312 724 633.184570312 717 664.184570312 704 c 0
 695.184570312 690 714.184570312 678 722.184570312 667 c 0
 728.184570312 658 731.184570312 649 731.184570312 639 c 0
 731.184570312 634 730.184570312 629 729.184570312 624 c 0
 727.184570312 616 724.184570312 607 719.184570312 598 c 0
 713.184570312 586 703.184570312 577 689.184570312 572 c 0
 682.184570312 569 676.184570312 568 669.184570312 568 c 0
 662.184570312 568 657.184570312 569 653.184570312 571 c 0
 649.184570312 573 640.184570312 578 628.184570312 587 c 0
 616.184570312 596 604.184570312 604 591.184570312 610 c 0
 578.184570312 616 567.184570312 619 556.184570312 619 c 0
 537.184570312 619 516.184570312 613 491.184570312 601 c 0
 466.184570312 589 440.184570312 571 413.184570312 547 c 0
 386.184570312 523 361.184570312 496 337.184570312 465 c 0
 313.184570312 434 291.184570312 400 272.184570312 361 c 0
 253.184570312 322 238.184570312 284 229.184570312 245 c 0
 226.184570312 231 224.184570312 217 224.184570312 203 c 0
 224.184570312 191 225.184570312 180 228.184570312 168 c 0
 233.184570312 143 244.184570312 123 260.184570312 107 c 0
 276.184570312 91 295.184570312 83 316.184570312 83 c 0
 330.184570312 83 346.184570312 88 363.184570312 97 c 0
 380.184570312 106 398.184570312 117 414.184570312 132 c 0
 430.184570312 147 446.184570312 163 462.184570312 182 c 0
 487.184570312 211 508.184570312 240 525.184570312 270 c 1
 489.184570312 268 452.184570312 265 414.184570312 260 c 0
 376.184570312 255 349.184570312 248 333.184570312 241 c 0
 325.184570312 237 318.184570312 235 310.184570312 235 c 0
 302.184570312 235 295.184570312 237 288.184570312 242 c 0
 278.184570312 249 273.184570312 259 273.184570312 270 c 2
 273.184570312 276 l 2
 273.184570312 279 273.184570312 283 274.184570312 286 c 0
 277.184570312 300 285.184570312 313 298.184570312 324 c 0
 307.184570312 332 319.184570312 339 334.184570312 345 c 0
 357.184570312 355 401.184570312 362 466.184570312 367 c 0
 513.184570312 370 551.184570312 372 582.184570312 373 c 0
 593.184570312 373 604.184570312 373 613.184570312 372 c 0
 630.184570312 371 642.184570312 367 649.184570312 360 c 0
 655.184570312 354 658.184570312 346 658.184570312 335 c 0
 658.184570312 330 657.184570312 325 656.184570312 319 c 0
 651.184570312 299 641.184570312 285 624.184570312 276 c 1
 620.184570312 264 l 2
 619.184570312 261 617.184570312 255 615.184570312 247 c 0
 605.184570312 218 584.184570312 182 552.184570312 138 c 0
 537.184570312 117 519.184570312 97 499.184570312 76 c 0
 478.184570312 56 456.184570312 38 433.184570312 22 c 0
 410.184570312 6 386.184570312 -6 359.184570312 -16 c 0
 332.184570312 -26 306.184570312 -31 281.184570312 -31 c 0
 250.184570312 -31 223.184570312 -26 200.184570312 -17 c 0
 177.184570312 -8 159.184570312 5 145.184570312 21 c 0
 131.184570312 37 120.184570312 55 112.184570312 76 c 0
 104.184570312 97 100.184570312 119 99.1845703125 142 c 2
EndSplineSet
Validated: 524289
EndChar

StartChar: H
Encoding: 72 72 47
Width: 650
GlyphClass: 2
Flags: HMW
HStem: -21 21G<116.867 124.534 124.534 127.534> 312 86.0049 694.005 20G<306.534 310.534 310.534 317.867>
LayerCount: 2
Fore
SplineSet
84.533203125 34 m 0
 85.2001953125 36.6669921875 86.2021484375 39.3369140625 87.53515625 42.00390625 c 0
 92.8681640625 60.00390625 103.53515625 104.336914062 119.53515625 175.00390625 c 0
 128.868164062 215.670898438 141.03515625 265.170898438 156.03515625 323.50390625 c 2
 183.03515625 428.50390625 l 2
 186.03515625 440.170898438 188.868164062 451.837890625 191.53515625 463.504882812 c 0
 194.202148438 475.171875 198.369140625 494.671875 204.036132812 522.004882812 c 0
 209.703125 549.337890625 213.703125 567.504882812 216.036132812 576.504882812 c 0
 218.369140625 585.504882812 220.702148438 594.671875 223.03515625 604.004882812 c 0
 225.368164062 613.337890625 226.868164062 619.170898438 227.53515625 621.50390625 c 0
 228.202148438 623.836914062 228.869140625 626.50390625 229.536132812 629.50390625 c 0
 230.203125 632.50390625 231.036132812 635.50390625 232.036132812 638.50390625 c 0
 233.036132812 641.50390625 233.869140625 644.170898438 234.536132812 646.50390625 c 2
 235.536132812 650.00390625 l 2
 240.869140625 670.670898438 250.202148438 686.337890625 263.53515625 697.004882812 c 0
 276.868164062 708.337890625 291.201171875 714.004882812 306.534179688 714.004882812 c 2
 310.534179688 714.004882812 l 2
 325.201171875 714.004882812 336.868164062 709.337890625 345.53515625 700.004882812 c 0
 352.056640625 693.047851562 355.317382812 683.681640625 355.317382812 671.904296875 c 0
 355.317382812 665.624023438 354.389648438 658.657226562 352.53515625 651.004882812 c 0
 351.202148438 643.671875 347.03515625 629.004882812 340.03515625 607.004882812 c 0
 333.03515625 585.004882812 327.53515625 565.171875 323.53515625 547.504882812 c 0
 319.53515625 529.837890625 314.202148438 505.004882812 307.53515625 473.004882812 c 0
 300.868164062 441.004882812 295.53515625 416.004882812 291.53515625 398.004882812 c 1
 346.202148438 398.671875 412.869140625 404.671875 491.536132812 416.004882812 c 0
 514.869140625 419.337890625 533.202148438 421.670898438 546.53515625 423.00390625 c 0
 547.202148438 425.670898438 548.03515625 430.170898438 549.03515625 436.50390625 c 0
 550.03515625 442.836914062 553.03515625 457.669921875 558.03515625 481.002929688 c 0
 563.03515625 504.3359375 567.03515625 522.502929688 570.03515625 535.502929688 c 0
 573.03515625 548.502929688 578.202148438 569.002929688 585.53515625 597.002929688 c 0
 592.868164062 625.002929688 597.53515625 642.002929688 599.53515625 648.002929688 c 0
 604.868164062 669.3359375 614.53515625 685.668945312 628.53515625 697.001953125 c 0
 642.53515625 708.334960938 656.868164062 714.001953125 671.53515625 714.001953125 c 2
 675.53515625 714.001953125 l 2
 690.868164062 714.001953125 702.53515625 709.334960938 710.53515625 700.001953125 c 0
 716.756835938 692.890625 719.868164062 683.41015625 719.868164062 671.55859375 c 0
 719.868164062 665.631835938 719.08984375 659.11328125 717.534179688 652.001953125 c 0
 714.8671875 639.334960938 708.534179688 614.334960938 698.534179688 577.001953125 c 0
 686.534179688 530.334960938 676.3671875 488.501953125 668.034179688 451.501953125 c 0
 659.701171875 414.501953125 653.201171875 385.168945312 648.534179688 363.501953125 c 0
 643.8671875 341.834960938 639.8671875 321.66796875 636.534179688 303.000976562 c 0
 627.8671875 266.333984375 615.8671875 219.500976562 600.534179688 162.500976562 c 0
 585.201171875 105.500976562 575.201171875 65.66796875 570.534179688 43.0009765625 c 2
 568.534179688 35.0009765625 l 2
 563.201171875 17.0009765625 552.201171875 3.0009765625 535.534179688 -6.9990234375 c 0
 521.534179688 -16.33203125 507.201171875 -20.9990234375 492.534179688 -20.9990234375 c 2
 489.534179688 -20.9990234375 l 2
 474.201171875 -20.9990234375 462.534179688 -15.33203125 454.534179688 -3.9990234375 c 0
 449.7890625 2.9033203125 447.416992188 10.921875 447.416992188 20.056640625 c 0
 447.416992188 25.0390625 448.122070312 30.3544921875 449.534179688 36.0009765625 c 0
 450.201171875 38.0009765625 450.534179688 40.333984375 450.534179688 43.0009765625 c 0
 475.8671875 126.333984375 500.534179688 219.666992188 524.534179688 323 c 2
 528.534179688 341 l 1
 507.201171875 339 466.534179688 333.833007812 406.534179688 325.5 c 0
 346.534179688 317.166992188 300.534179688 312.666992188 268.534179688 312 c 1
 267.201171875 307.333007812 266.534179688 304.333007812 266.534179688 303 c 0
 256.534179688 269.666992188 246.3671875 231 236.034179688 187 c 0
 225.701171875 143 215.201171875 92.6669921875 204.534179688 36 c 0
 197.8671875 17.3330078125 186.534179688 3 170.534179688 -7 c 0
 156.534179688 -16.3330078125 142.201171875 -21 127.534179688 -21 c 2
 124.534179688 -21 l 2
 109.201171875 -21 97.5341796875 -15.3330078125 89.5341796875 -4 c 0
 85.0888671875 2.6669921875 82.8671875 10.51953125 82.8671875 19.556640625 c 0
 82.8671875 24.0751953125 83.421875 28.8896484375 84.533203125 34 c 0
EndSplineSet
Validated: 524289
EndChar

StartChar: I
Encoding: 73 73 48
Width: 650
GlyphClass: 2
Flags: HMW
HStem: -11.002 103<523.82 535.32 523.82 523.82> -6.00098 97.999<420.487 544.824> 600.997 108.999<313.824 497.49 321.824 497.49>
LayerCount: 2
Fore
SplineSet
207.8203125 -12 m 1x60
 166.487304688 -13.3330078125 138.16015625 -14.001953125 122.827148438 -14.001953125 c 0
 104.16015625 -14.001953125 90.8271484375 -9.6689453125 82.8271484375 -1.001953125 c 0
 76.5673828125 5.2578125 73.4375 12.908203125 73.4375 21.9501953125 c 0
 73.4375 25.4267578125 73.900390625 29.109375 74.826171875 32.998046875 c 2
 74.826171875 35.998046875 l 2
 77.4931640625 49.3310546875 84.826171875 60.8310546875 96.826171875 70.498046875 c 0
 108.826171875 80.1650390625 124.159179688 85.6650390625 142.826171875 86.998046875 c 1
 144.159179688 92.3310546875 144.4921875 92.3310546875 143.825195312 86.998046875 c 1
 169.158203125 88.3310546875 213.825195312 89.6640625 277.825195312 90.9970703125 c 1
 298.4921875 160.330078125 317.4921875 232.663085938 334.825195312 307.99609375 c 0
 344.158203125 347.329101562 352.825195312 386.99609375 360.825195312 426.99609375 c 0
 366.158203125 455.663085938 372.491210938 486.663085938 379.82421875 519.99609375 c 0
 381.157226562 527.329101562 382.657226562 534.329101562 384.32421875 540.99609375 c 0
 385.991210938 547.663085938 388.82421875 557.830078125 392.82421875 571.497070312 c 0
 396.82421875 585.1640625 399.82421875 594.997070312 401.82421875 600.997070312 c 1
 321.82421875 600.997070312 l 2
 305.82421875 600.997070312 289.157226562 600.6640625 271.82421875 599.997070312 c 2
 269.82421875 599.997070312 l 2
 252.491210938 599.997070312 239.82421875 604.6640625 231.82421875 613.997070312 c 0
 225.82421875 620.997070312 222.82421875 629.68359375 222.82421875 640.05859375 c 0
 222.82421875 643.516601562 223.157226562 647.163085938 223.82421875 650.99609375 c 0
 223.82421875 651.663085938 224.157226562 652.663085938 224.82421875 653.99609375 c 0
 228.157226562 667.99609375 235.82421875 680.49609375 247.82421875 691.49609375 c 0
 259.82421875 702.49609375 275.491210938 707.99609375 294.82421875 707.99609375 c 0
 348.82421875 709.329101562 400.157226562 709.99609375 448.82421875 709.99609375 c 0
 546.157226562 709.99609375 625.157226562 706.99609375 685.82421875 700.99609375 c 0
 699.82421875 699.663085938 710.491210938 695.330078125 717.82421875 687.997070312 c 0
 724.701171875 681.120117188 728.139648438 672.071289062 728.139648438 660.850585938 c 0
 728.139648438 656.84375 727.701171875 652.559570312 726.82421875 647.998046875 c 0
 723.491210938 633.331054688 716.158203125 619.6640625 704.825195312 606.997070312 c 0
 698.825195312 599.6640625 691.158203125 593.997070312 681.825195312 589.997070312 c 0
 675.825195312 587.997070312 670.158203125 586.6640625 664.825195312 585.997070312 c 0
 661.4921875 585.997070312 658.159179688 586.330078125 654.826171875 586.997070312 c 0
 638.826171875 589.6640625 596.493164062 593.331054688 527.826171875 597.998046875 c 1
 525.826171875 590.665039062 522.493164062 577.33203125 517.826171875 557.999023438 c 0
 513.159179688 539.33203125 509.4921875 524.999023438 506.825195312 514.999023438 c 0
 504.158203125 504.999023438 501.491210938 494.666015625 498.82421875 483.999023438 c 0
 489.491210938 443.999023438 482.32421875 411.33203125 477.32421875 385.999023438 c 0
 472.32421875 360.666015625 466.657226562 334.666015625 460.32421875 307.999023438 c 0
 453.991210938 281.33203125 444.32421875 243.665039062 431.32421875 194.998046875 c 0
 418.32421875 146.331054688 409.491210938 112.331054688 404.82421875 92.998046875 c 1
 431.491210938 92.998046875 452.82421875 92.6650390625 468.82421875 91.998046875 c 2
 544.82421875 91.998046875 l 1
 546.157226562 97.3310546875 546.490234375 97.3310546875 545.823242188 91.998046875 c 1xa0
 547.15625 97.3310546875 547.489257812 97.3310546875 546.822265625 91.998046875 c 1
 548.155273438 97.3310546875 548.48828125 97.3310546875 547.821289062 91.998046875 c 1x60
 549.154296875 97.3310546875 549.487304688 97.3310546875 548.8203125 91.998046875 c 1
 566.8203125 91.998046875 578.653320312 87.498046875 584.3203125 78.498046875 c 0
 588.173828125 72.3779296875 590.100585938 65.1025390625 590.100585938 56.6708984375 c 0
 590.100585938 52.7021484375 589.673828125 48.478515625 588.8203125 43.998046875 c 0
 587.487304688 37.3310546875 585.487304688 30.998046875 582.8203125 24.998046875 c 0
 580.153320312 18.998046875 576.486328125 12.998046875 571.819335938 6.998046875 c 0
 565.819335938 -0.3349609375 558.486328125 -5.3349609375 549.819335938 -8.001953125 c 0
 544.486328125 -10.001953125 539.653320312 -11.001953125 535.3203125 -11.001953125 c 2
 523.8203125 -11.001953125 l 2xa0
 507.8203125 -8.3349609375 480.153320312 -6.66796875 440.8203125 -6.0009765625 c 0
 400.153320312 -6.0009765625 362.8203125 -6.66796875 328.8203125 -8.0009765625 c 1
 312.708007812 -5.22265625 296.306640625 -3.833984375 279.616210938 -3.833984375 c 0
 256.250976562 -3.833984375 232.319335938 -6.5556640625 207.8203125 -12 c 1x60
EndSplineSet
Validated: 524289
EndChar

StartChar: J
Encoding: 74 74 49
Width: 650
GlyphClass: 2
Flags: HMW
HStem: -34.998 125.999<303.813 309.482> 600.001 109.999<427.147 457.148>
LayerCount: 2
Fore
SplineSet
485.1484375 217 m 0
 447.815429688 101 408.48046875 26.3349609375 367.147460938 -6.998046875 c 0
 345.147460938 -25.6650390625 321.814453125 -34.998046875 297.147460938 -34.998046875 c 0
 272.48046875 -34.998046875 249.48046875 -30.6650390625 228.147460938 -21.998046875 c 0
 206.814453125 -13.3310546875 189.147460938 -2.3310546875 175.147460938 11.001953125 c 0
 162.48046875 25.001953125 151.313476562 40.1689453125 141.646484375 56.501953125 c 0
 131.979492188 72.8349609375 124.479492188 89.001953125 119.146484375 105.001953125 c 0
 113.813476562 121.001953125 110.146484375 135.501953125 108.146484375 148.501953125 c 0
 106.646484375 158.251953125 105.896484375 166.782226562 105.896484375 174.094726562 c 0
 105.896484375 176.532226562 105.979492188 178.834960938 106.146484375 181.001953125 c 0
 106.146484375 188.334960938 107.646484375 196.501953125 110.646484375 205.501953125 c 0
 113.646484375 214.501953125 117.146484375 223.001953125 121.146484375 231.001953125 c 0
 125.813476562 241.001953125 132.646484375 249.501953125 141.646484375 256.501953125 c 0
 150.646484375 263.501953125 161.146484375 268.334960938 173.146484375 271.001953125 c 0
 177.146484375 271.668945312 181.146484375 271.668945312 185.146484375 271.001953125 c 0
 197.813476562 271.001953125 207.146484375 267.001953125 213.146484375 259.001953125 c 0
 218.479492188 251.890625 221.146484375 243.446289062 221.146484375 233.66796875 c 0
 221.146484375 228.779296875 220.479492188 223.556640625 219.146484375 218.000976562 c 0
 217.864257812 212.103515625 217.223632812 205.6640625 217.223632812 198.682617188 c 0
 217.223632812 187.510742188 218.864257812 174.950195312 222.146484375 161.000976562 c 0
 224.813476562 148.333984375 229.313476562 136.833984375 235.646484375 126.500976562 c 0
 241.979492188 116.16796875 251.8125 107.66796875 265.145507812 101.000976562 c 0
 278.478515625 94.333984375 294.478515625 91.0009765625 313.145507812 91.0009765625 c 0
 313.8125 91.0009765625 314.8125 91.333984375 316.145507812 92.0009765625 c 0
 320.8125 95.333984375 326.479492188 103.000976562 333.146484375 115.000976562 c 0
 348.479492188 143.000976562 363.479492188 186.333984375 378.146484375 245.000976562 c 2
 378.646484375 247.000976562 l 2
 378.979492188 248.333984375 380.479492188 255.166992188 383.146484375 267.5 c 0
 385.813476562 279.833007812 392.813476562 313 404.146484375 367 c 0
 420.813476562 447.666992188 438.48046875 525.333984375 457.147460938 600.000976562 c 1
 422.48046875 601.000976562 389.897460938 601.500976562 359.397460938 601.500976562 c 0
 328.897460938 601.500976562 300.48046875 601.000976562 274.147460938 600.000976562 c 2
 272.147460938 600.000976562 l 2
 254.814453125 600.000976562 242.147460938 604.66796875 234.147460938 614.000976562 c 0
 228.5 620.588867188 225.676757812 628.671875 225.676757812 638.25 c 0
 225.676757812 642.240234375 226.166992188 646.490234375 227.147460938 651 c 2
 227.147460938 654 l 2
 230.48046875 668 238.313476562 680.5 250.646484375 691.5 c 0
 262.979492188 702.5 278.479492188 708 297.146484375 708 c 0
 351.813476562 709.333007812 403.146484375 710 451.146484375 710 c 0
 548.479492188 710 627.479492188 707 688.146484375 701 c 0
 702.146484375 699.666992188 712.479492188 695.333984375 719.146484375 688.000976562 c 0
 726.405273438 680.7421875 730.034179688 671.063476562 730.034179688 658.965820312 c 0
 730.034179688 655.508789062 729.73828125 651.854492188 729.145507812 648.001953125 c 0
 725.8125 633.334960938 718.479492188 619.66796875 707.146484375 607.000976562 c 0
 701.146484375 599.66796875 693.479492188 594.000976562 684.146484375 590.000976562 c 0
 678.146484375 588.000976562 672.479492188 586.66796875 667.146484375 586.000976562 c 0
 663.813476562 586.000976562 660.146484375 586.333984375 656.146484375 587.000976562 c 0
 637.479492188 590.333984375 608.146484375 593.333984375 568.146484375 596.000976562 c 1
 564.813476562 579.333984375 553.48046875 521.000976562 534.147460938 421.000976562 c 0
 528.814453125 393.66796875 523.981445312 370.66796875 519.6484375 352.000976562 c 0
 515.315429688 333.333984375 512.815429688 321.666992188 512.1484375 317 c 0
 502.1484375 275 493.1484375 241.666992188 485.1484375 217 c 0
EndSplineSet
Validated: 524289
EndChar

StartChar: K
Encoding: 75 75 50
Width: 650
GlyphClass: 2
Flags: HMW
HStem: -21 21G<114.186 121.852 121.852 124.851> 693.998 21G
LayerCount: 2
Fore
SplineSet
124.850585938 -21 m 2
 121.8515625 -21 l 2
 106.518554688 -21 94.5185546875 -16.6669921875 85.8515625 -8 c 0
 80.8095703125 -2.5 78.2890625 4.2607421875 78.2890625 12.2822265625 c 0
 78.2890625 15.927734375 78.8095703125 19.833984375 79.8515625 24 c 0
 80.5185546875 26.6669921875 81.5185546875 29.333984375 82.8515625 32.0009765625 c 0
 89.5185546875 53.333984375 98.185546875 88.6669921875 108.852539062 138 c 0
 130.852539062 233.333007812 153.185546875 338.666015625 175.852539062 453.999023438 c 0
 184.51953125 495.999023438 190.51953125 524.999023438 193.852539062 540.999023438 c 0
 197.185546875 556.33203125 202.852539062 577.999023438 210.852539062 605.999023438 c 0
 218.852539062 634.666015625 223.852539062 652.666015625 225.852539062 659.999023438 c 0
 230.51953125 677.33203125 239.186523438 690.999023438 251.853515625 700.999023438 c 0
 264.296875 709.709960938 277.612304688 714.064453125 291.797851562 714.064453125 c 0
 292.811523438 714.064453125 293.830078125 714.04296875 294.852539062 713.998046875 c 2
 297.852539062 713.998046875 l 2
 312.51953125 713.998046875 324.51953125 710.331054688 333.852539062 702.998046875 c 0
 340.995117188 696.807617188 344.56640625 688.236328125 344.56640625 677.284179688 c 0
 344.56640625 672.90234375 343.995117188 668.140625 342.852539062 662.998046875 c 0
 339.51953125 646.998046875 331.51953125 615.331054688 318.852539062 567.998046875 c 0
 306.185546875 521.331054688 296.518554688 482.998046875 289.8515625 452.998046875 c 1
 317.184570312 472.998046875 356.517578125 501.665039062 407.850585938 538.998046875 c 0
 519.850585938 627.665039062 586.18359375 679.33203125 606.850585938 693.999023438 c 0
 619.517578125 702.666015625 630.850585938 708.666015625 640.850585938 711.999023438 c 0
 647.517578125 713.999023438 653.184570312 714.999023438 657.8515625 714.999023438 c 0
 662.518554688 714.999023438 666.185546875 714.666015625 668.852539062 713.999023438 c 0
 676.185546875 711.999023438 682.518554688 708.33203125 687.8515625 702.999023438 c 0
 695.184570312 694.999023438 697.8515625 685.999023438 695.8515625 675.999023438 c 0
 691.8515625 657.999023438 680.518554688 638.666015625 661.8515625 617.999023438 c 0
 649.184570312 605.33203125 607.184570312 568.999023438 535.8515625 508.999023438 c 0
 463.184570312 452.999023438 399.517578125 404.33203125 344.850585938 362.999023438 c 1
 362.850585938 338.999023438 392.18359375 303.33203125 432.850585938 255.999023438 c 0
 474.18359375 211.33203125 509.850585938 170.999023438 539.850585938 134.999023438 c 0
 555.18359375 112.999023438 566.18359375 95.666015625 572.850585938 82.9990234375 c 0
 580.18359375 67.666015625 583.850585938 56.9990234375 583.850585938 50.9990234375 c 0
 583.850585938 42.33203125 583.18359375 33.9990234375 581.850585938 25.9990234375 c 0
 580.517578125 20.666015625 578.184570312 15.3330078125 574.8515625 10 c 0
 568.184570312 0.6669921875 559.184570312 -6.666015625 547.8515625 -11.9990234375 c 0
 533.306640625 -18.0595703125 523.719726562 -21.08984375 519.091796875 -21.08984375 c 0
 518.62890625 -21.08984375 518.215820312 -21.0595703125 517.8515625 -20.9990234375 c 2
 516.8515625 -20.9990234375 l 2
 500.184570312 -20.9990234375 486.517578125 -12.666015625 475.850585938 4.0009765625 c 0
 471.850585938 12.0009765625 453.517578125 35.0009765625 420.850585938 73.0009765625 c 0
 388.18359375 110.333984375 353.18359375 151.333984375 315.850585938 196.000976562 c 0
 287.850585938 225.333984375 265.517578125 250.333984375 248.850585938 271.000976562 c 1
 200.850585938 25.0009765625 l 2
 195.517578125 10.333984375 184.517578125 -1.3330078125 167.850585938 -10 c 0
 153.850585938 -17.3330078125 139.517578125 -21 124.850585938 -21 c 2
EndSplineSet
Validated: 524289
EndChar

StartChar: L
Encoding: 76 76 51
Width: 650
GlyphClass: 2
Flags: HMW
HStem: -9 105 686 20G<316.855 319.855 319.855 327.522>
LayerCount: 2
Fore
SplineSet
78.8564453125 26 m 0
 78.8564453125 31 79.8564453125 36 80.8564453125 41 c 0
 81.8564453125 43 81.8564453125 46 82.8564453125 50 c 0
 83.8564453125 54 95.8564453125 90 118.856445312 159 c 0
 141.856445312 228 162.856445312 294 179.856445312 357 c 0
 184.856445312 376 190.856445312 400 197.856445312 428 c 0
 203.822265625 452.856445312 219.673828125 523.188476562 244.427734375 638.994140625 c 0
 244.541015625 639.791015625 244.68359375 640.791015625 244.856445312 642 c 0
 249.856445312 663 258.856445312 679 272.856445312 690 c 0
 286.856445312 701 301.856445312 706 316.856445312 706 c 2
 319.856445312 706 l 2
 334.856445312 706 346.856445312 701 355.856445312 692 c 0
 362.856445312 685 366.856445312 676 366.856445312 664 c 0
 366.856445312 658 365.856445312 652 363.856445312 645 c 0
 359.856445312 626 353.856445312 601 344.856445312 569 c 0
 333.856445312 526 322.856445312 485 312.856445312 447 c 0
 301.856445312 406 289.856445312 364 278.856445312 321 c 0
 271.856445312 294 259.856445312 256 244.856445312 208 c 0
 229.856445312 160 219.856445312 123 212.856445312 96 c 1
 215.856445312 104 215.856445312 104 214.856445312 96 c 1
 267.856445312 96 330.856445312 99 403.856445312 106 c 0
 474.856445312 113 522.856445312 119 546.856445312 125 c 0
 550.856445312 126 554.856445312 127 559.856445312 127 c 0
 564.856445312 127 568.856445312 126 572.856445312 125 c 0
 579.856445312 122 585.856445312 116 589.856445312 108 c 0
 592.856445312 101 593.856445312 94 593.856445312 87 c 0
 594.856445312 79 593.856445312 72 592.856445312 66 c 0
 589.856445312 51 582.856445312 40 572.856445312 30 c 0
 562.856445312 20 549.856445312 13 530.856445312 10 c 0
 485.856445312 1 415.856445312 -5 321.856445312 -9 c 0
 227.856445312 -13 160.856445312 -15 119.856445312 -15 c 0
 104.856445312 -15 92.8564453125 -9 85.8564453125 2 c 0
 81.8564453125 9 78.8564453125 17 78.8564453125 26 c 0
EndSplineSet
Validated: 524289
EndChar

StartChar: M
Encoding: 77 77 52
Width: 650
GlyphClass: 2
Flags: HMW
HStem: -10.002 21G<93.0708 96.4048 96.4048 98.4048>
LayerCount: 2
Fore
SplineSet
169.407226562 63 m 2
 167.40234375 52.998046875 l 2
 163.40234375 34.998046875 155.069335938 19.998046875 142.40234375 7.998046875 c 0
 128.40234375 -4.001953125 113.735351562 -10.001953125 98.40234375 -10.001953125 c 2
 96.40234375 -10.001953125 l 2
 89.7353515625 -10.001953125 83.7353515625 -8.6689453125 78.40234375 -6.001953125 c 0
 71.0693359375 -2.001953125 66.40234375 5.3310546875 64.40234375 15.998046875 c 0
 64.1064453125 18.6640625 63.9580078125 21.52734375 63.9580078125 24.5888671875 c 0
 63.9580078125 35.3046875 65.7734375 48.44140625 69.4033203125 63.998046875 c 0
 71.4033203125 72.6650390625 75.4033203125 86.998046875 81.4033203125 106.998046875 c 0
 87.4033203125 126.331054688 95.736328125 151.998046875 106.403320312 183.998046875 c 0
 117.736328125 217.998046875 130.403320312 258.331054688 144.403320312 304.998046875 c 0
 158.403320312 351.665039062 170.0703125 388.998046875 179.403320312 416.998046875 c 0
 209.403320312 512.998046875 231.736328125 579.665039062 246.403320312 616.998046875 c 0
 255.736328125 640.331054688 264.069335938 656.6640625 271.40234375 665.997070312 c 0
 282.069335938 679.997070312 295.736328125 689.997070312 312.403320312 695.997070312 c 0
 326.403320312 701.330078125 340.0703125 703.997070312 353.403320312 703.997070312 c 2
 359.403320312 703.997070312 l 2
 374.736328125 703.997070312 386.736328125 701.6640625 395.403320312 696.997070312 c 0
 408.0703125 690.997070312 415.0703125 680.997070312 416.403320312 666.997070312 c 0
 416.645507812 661.6640625 416.766601562 655.703125 416.766601562 649.114257812 c 0
 416.766601562 619.461914062 414.3125 577.08984375 409.403320312 521.998046875 c 0
 403.403320312 454.665039062 395.403320312 377.998046875 385.403320312 291.998046875 c 0
 383.403320312 272.665039062 381.403320312 254.665039062 379.403320312 237.998046875 c 1
 394.736328125 285.998046875 409.403320312 331.331054688 423.403320312 373.998046875 c 0
 442.0703125 429.331054688 463.0703125 484.331054688 486.403320312 538.998046875 c 0
 509.736328125 594.331054688 528.736328125 636.998046875 543.403320312 666.998046875 c 0
 548.736328125 676.998046875 557.736328125 685.331054688 570.403320312 691.998046875 c 0
 581.736328125 697.998046875 593.069335938 701.665039062 604.40234375 702.998046875 c 0
 611.735351562 703.665039062 617.735351562 704.165039062 622.40234375 704.498046875 c 0
 627.069335938 704.831054688 630.736328125 704.6640625 633.403320312 703.997070312 c 2
 637.403320312 703.997070312 l 1
 651.903320312 703.997070312 l 2
 655.5703125 703.997070312 660.403320312 702.997070312 666.403320312 700.997070312 c 0
 673.0703125 699.6640625 678.403320312 697.6640625 682.403320312 694.997070312 c 0
 686.403320312 692.330078125 689.736328125 688.330078125 692.403320312 682.997070312 c 0
 695.0703125 676.997070312 696.403320312 669.997070312 696.403320312 661.997070312 c 0
 694.403320312 641.997070312 679.0703125 544.997070312 650.403320312 370.997070312 c 0
 622.403320312 197.6640625 608.403320312 99.6640625 608.403320312 76.9970703125 c 0
 608.403320312 63.6640625 606.736328125 51.3310546875 603.403320312 39.998046875 c 0
 601.403320312 30.6650390625 597.736328125 22.6650390625 592.403320312 15.998046875 c 0
 585.0703125 6.6650390625 575.0703125 -0.001953125 562.403320312 -4.001953125 c 0
 555.0703125 -6.001953125 547.737304688 -7.1689453125 540.404296875 -7.501953125 c 0
 533.071289062 -7.8349609375 525.73828125 -6.001953125 518.405273438 -2.001953125 c 0
 505.73828125 4.6650390625 498.405273438 18.33203125 496.405273438 38.9990234375 c 0
 496.20703125 41.3798828125 496.107421875 44.16796875 496.107421875 47.36328125 c 0
 496.107421875 97.857421875 520.874023438 250.069335938 570.40625 503.999023438 c 1
 550.40625 452.666015625 533.40625 403.999023438 519.40625 357.999023438 c 0
 495.40625 281.999023438 470.739257812 209.999023438 445.40625 141.999023438 c 0
 419.40625 73.9990234375 401.073242188 32.33203125 390.40625 16.9990234375 c 0
 377.073242188 0.9990234375 353.073242188 -7.0009765625 318.40625 -7.0009765625 c 2
 313.40625 -7.0009765625 l 2
 300.073242188 -7.0009765625 289.073242188 -5.0009765625 280.40625 -1.0009765625 c 0
 269.739257812 3.666015625 263.739257812 10.3330078125 262.40625 19 c 0
 262.354492188 21.4619140625 262.329101562 24.16796875 262.329101562 27.115234375 c 0
 262.329101562 62.4775390625 266.021484375 132.772460938 273.40625 238 c 0
 278.739257812 316 284.40625 391.666992188 290.40625 465 c 1
 286.40625 451.666992188 279.073242188 427.666992188 268.40625 393 c 2
 253.40625 340 l 1
 226.40625 252 l 2
 218.40625 224.666992188 209.739257812 196.333984375 200.40625 167.000976562 c 0
 193.073242188 144.333984375 185.740234375 120.666992188 178.407226562 96 c 0
 173.740234375 81.3330078125 170.740234375 70.3330078125 169.407226562 63 c 2
EndSplineSet
Validated: 524289
EndChar

StartChar: N
Encoding: 78 78 53
Width: 650
GlyphClass: 2
Flags: HMW
HStem: -11.999 21G<106.391 123.059> 685.001 20G<298.06 307.394 670.727 686.06>
VStem: 80.7236 100.002
LayerCount: 2
Fore
SplineSet
287.727539062 486 m 1
 281.727539062 456 276.39453125 431.000976562 271.727539062 411.000976562 c 0
 267.060546875 389.66796875 260.060546875 359.66796875 250.727539062 321.000976562 c 0
 241.39453125 283.000976562 229.727539062 237.000976562 215.727539062 183.000976562 c 0
 201.727539062 127.66796875 192.727539062 93.0009765625 188.727539062 79.0009765625 c 0
 185.39453125 65.0009765625 183.39453125 56.0009765625 182.727539062 52.0009765625 c 0
 182.060546875 48.66796875 181.393554688 45.66796875 180.7265625 43.0009765625 c 0
 176.7265625 25.0009765625 168.7265625 11.333984375 156.7265625 2.0009765625 c 0
 144.059570312 -7.33203125 130.392578125 -11.9990234375 115.725585938 -11.9990234375 c 0
 97.05859375 -11.9990234375 85.3916015625 -5.9990234375 80.724609375 6.0009765625 c 0
 79.7548828125 10.365234375 79.26953125 15.3017578125 79.26953125 20.8115234375 c 0
 79.26953125 30.453125 80.7548828125 41.849609375 83.724609375 55.0009765625 c 0
 86.3916015625 68.333984375 99.05859375 120.000976562 121.725585938 210.000976562 c 0
 156.392578125 348.66796875 180.059570312 444.000976562 192.7265625 496.000976562 c 0
 204.7265625 548.000976562 214.7265625 595.333984375 222.7265625 638.000976562 c 0
 223.393554688 640.66796875 224.060546875 643.66796875 224.727539062 647.000976562 c 0
 226.727539062 657.000976562 230.727539062 665.66796875 236.727539062 673.000976562 c 0
 243.39453125 682.333984375 251.727539062 689.333984375 261.727539062 694.000976562 c 0
 275.727539062 701.333984375 290.39453125 705.000976562 305.727539062 705.000976562 c 0
 309.060546875 705.000976562 312.393554688 704.66796875 315.7265625 704.000976562 c 0
 329.7265625 704.000976562 341.059570312 701.66796875 349.7265625 697.000976562 c 0
 362.393554688 691.000976562 369.393554688 681.000976562 370.7265625 667.000976562 c 0
 374.7265625 624.333984375 395.393554688 545.333984375 432.7265625 430.000976562 c 0
 464.059570312 332.66796875 492.059570312 251.66796875 516.7265625 187.000976562 c 1
 531.393554688 244.333984375 548.7265625 319.333984375 568.7265625 412.000976562 c 0
 594.7265625 530.000976562 610.059570312 608.000976562 614.7265625 646.000976562 c 0
 615.393554688 650.000976562 616.060546875 653.66796875 616.727539062 657.000976562 c 0
 619.39453125 669.000976562 625.727539062 679.333984375 635.727539062 688.000976562 c 0
 648.39453125 699.333984375 662.727539062 705.000976562 678.727539062 705.000976562 c 0
 693.39453125 705.000976562 704.727539062 702.333984375 712.727539062 697.000976562 c 0
 716.727539062 694.333984375 719.727539062 690.333984375 721.727539062 685.000976562 c 0
 722.39453125 679.66796875 722.727539062 675.000976562 722.727539062 671.000976562 c 0
 722.727539062 666.333984375 722.060546875 659.333984375 720.727539062 650.000976562 c 0
 720.060546875 638.66796875 708.727539062 585.334960938 686.727539062 490.001953125 c 0
 683.39453125 476.001953125 680.39453125 462.001953125 677.727539062 448.001953125 c 0
 658.39453125 364.668945312 637.39453125 278.668945312 614.727539062 190.001953125 c 0
 600.060546875 132.668945312 588.060546875 90.001953125 578.727539062 62.001953125 c 0
 570.060546875 35.3349609375 563.060546875 18.3349609375 557.727539062 11.001953125 c 0
 545.060546875 -4.998046875 522.727539062 -13.3310546875 490.727539062 -13.998046875 c 2
 486.727539062 -13.998046875 l 2
 474.727539062 -13.998046875 464.727539062 -11.6650390625 456.727539062 -6.998046875 c 0
 446.727539062 -1.6650390625 440.727539062 5.001953125 438.727539062 13.001953125 c 0
 435.39453125 26.3349609375 426.061523438 55.66796875 410.728515625 101.000976562 c 0
 394.728515625 148.333984375 378.061523438 193.666992188 360.728515625 237 c 0
 344.061523438 286.333007812 327.39453125 341 310.727539062 401 c 0
 301.39453125 431.666992188 293.727539062 460 287.727539062 486 c 1
EndSplineSet
Validated: 524289
EndChar

StartChar: O
Encoding: 79 79 54
Width: 650
GlyphClass: 2
Flags: HMW
HStem: -24 108<282.169 324.838> 612.001 105.999<485.171 492.504>
VStem: 128.169 111.999<161.501 244.667>
LayerCount: 2
Fore
SplineSet
679.170898438 480 m 0
 678.50390625 477.333007812 678.501953125 477.333984375 679.168945312 480.000976562 c 1
 667.8359375 406.000976562 651.502929688 333.333984375 630.169921875 262.000976562 c 0
 618.169921875 222.66796875 607.169921875 192.334960938 597.169921875 171.001953125 c 0
 581.836914062 139.668945312 565.336914062 112.668945312 547.669921875 90.001953125 c 0
 530.002929688 67.3349609375 511.8359375 48.66796875 493.168945312 34.0009765625 c 0
 474.501953125 19.333984375 453.501953125 7.6669921875 430.168945312 -1 c 0
 406.168945312 -9.6669921875 382.668945312 -15.6669921875 359.668945312 -19 c 0
 336.668945312 -22.3330078125 310.8359375 -24 282.168945312 -24 c 0
 238.168945312 -23.3330078125 202.168945312 -10.666015625 174.168945312 14.0009765625 c 0
 147.501953125 39.333984375 130.501953125 72.6669921875 123.168945312 114 c 0
 120.181640625 130.295898438 118.6875 147.14453125 118.6875 164.545898438 c 0
 118.6875 189.860351562 121.848632812 216.344726562 128.169921875 244 c 0
 128.169921875 245.333007812 128.502929688 247.333007812 129.169921875 250 c 0
 130.502929688 257.333007812 131.8359375 262.666015625 133.168945312 265.999023438 c 0
 139.8359375 294.666015625 145.502929688 317.833007812 150.169921875 335.5 c 0
 154.836914062 353.166992188 161.50390625 376.666992188 170.170898438 406 c 0
 187.50390625 463.333007812 210.50390625 516.666015625 239.170898438 565.999023438 c 0
 266.50390625 610.666015625 304.170898438 647.333007812 352.170898438 676 c 0
 403.50390625 704 457.170898438 718 513.170898438 718 c 0
 541.837890625 718 568.170898438 712.666992188 592.170898438 702 c 0
 615.50390625 691.333007812 634.50390625 676 649.170898438 656 c 0
 663.837890625 636 673.837890625 611 679.170898438 581 c 0
 681.836914062 566 683.170898438 550.083007812 683.170898438 533.25 c 0
 683.170898438 516.416015625 681.836914062 498.666015625 679.170898438 480 c 0
271.668945312 94.0009765625 m 0
 281.3359375 87.333984375 293.170898438 84 307.170898438 84 c 0
 342.50390625 84 375.836914062 92.3330078125 407.169921875 109 c 0
 423.169921875 117 438.502929688 128.166992188 453.169921875 142.5 c 0
 467.836914062 156.833007812 480.50390625 173.333007812 491.170898438 192 c 0
 495.170898438 199.333007812 502.00390625 217.833007812 511.670898438 247.5 c 0
 521.337890625 277.166992188 531.504882812 312.666992188 542.171875 354 c 0
 545.504882812 366 548.504882812 378 551.171875 390 c 0
 557.838867188 418.666992188 563.171875 447.333984375 567.171875 476.000976562 c 0
 568.46484375 485.697265625 569.111328125 494.962890625 569.111328125 503.797851562 c 0
 569.111328125 531.407226562 562.797851562 554.80859375 550.170898438 574.000976562 c 0
 533.50390625 599.333984375 508.836914062 612.000976562 476.169921875 612.000976562 c 0
 443.502929688 612.000976562 413.8359375 600.66796875 387.168945312 578.000976562 c 0
 359.168945312 554.000976562 334.501953125 520.66796875 313.168945312 478.000976562 c 0
 289.8359375 430.000976562 271.168945312 374.66796875 257.168945312 312.000976562 c 0
 247.8359375 272.66796875 242.168945312 239.000976562 240.168945312 211.000976562 c 0
 239.502929688 202.66796875 239.168945312 194.375976562 239.168945312 186.125976562 c 0
 239.168945312 177.875976562 239.502929688 169.66796875 240.168945312 161.500976562 c 0
 241.501953125 145.16796875 244.668945312 131.500976562 249.668945312 120.500976562 c 0
 254.668945312 109.500976562 262.001953125 100.66796875 271.668945312 94.0009765625 c 0
EndSplineSet
Validated: 524289
EndChar

StartChar: P
Encoding: 80 80 55
Width: 650
GlyphClass: 2
Flags: HMW
HStem: -18.998 21G<136.756 152.757> 218 106.003<354.423 363.757 354.423 379.761> 605.003 105.999<446.424 505.425>
VStem: 100.422 120 229.423 0.999023
LayerCount: 2
Fore
SplineSet
272.423828125 334.002929688 m 1
 293.201171875 327.28125 317.8984375 323.919921875 346.517578125 323.919921875 c 0
 349.120117188 323.919921875 351.755859375 323.947265625 354.422851562 324.002929688 c 0
 373.08984375 324.002929688 390.58984375 325.3359375 406.922851562 328.002929688 c 0
 423.255859375 330.669921875 437.422851562 334.002929688 449.422851562 338.002929688 c 0
 461.422851562 342.002929688 472.422851562 347.3359375 482.422851562 354.002929688 c 0
 492.422851562 360.669921875 501.08984375 367.336914062 508.422851562 374.00390625 c 0
 515.755859375 380.670898438 522.422851562 388.50390625 528.422851562 397.50390625 c 0
 534.422851562 406.50390625 539.422851562 414.670898438 543.422851562 422.00390625 c 0
 547.422851562 429.336914062 551.08984375 438.169921875 554.422851562 448.502929688 c 0
 557.755859375 458.8359375 560.422851562 467.168945312 562.422851562 473.501953125 c 0
 564.422851562 479.834960938 566.422851562 488.001953125 568.422851562 498.001953125 c 0
 570.604492188 506.729492188 571.6953125 514.959960938 571.6953125 522.6953125 c 0
 571.6953125 529.141601562 570.9375 535.244140625 569.422851562 541.001953125 c 0
 566.08984375 553.668945312 560.756835938 563.8359375 553.423828125 571.502929688 c 0
 546.090820312 579.169921875 536.590820312 585.669921875 524.923828125 591.002929688 c 0
 513.256835938 596.3359375 501.756835938 600.002929688 490.423828125 602.002929688 c 0
 479.090820312 604.002929688 468.090820312 605.002929688 457.423828125 605.002929688 c 0
 435.423828125 605.002929688 395.756835938 603.002929688 338.423828125 599.002929688 c 1
 317.756835938 519.669921875 304.08984375 466.002929688 297.422851562 438.002929688 c 0
 288.08984375 400.669921875 279.756835938 366.002929688 272.423828125 334.002929688 c 1
231.427734375 109 m 0
 224.760742188 61 221.08984375 35.3359375 220.422851562 32.0029296875 c 0
 216.422851562 15.3359375 205.755859375 2.6689453125 188.422851562 -5.998046875 c 0
 174.422851562 -14.6650390625 160.08984375 -18.998046875 145.422851562 -18.998046875 c 0
 128.08984375 -18.998046875 115.08984375 -13.6650390625 106.422851562 -2.998046875 c 0
 101.380859375 3.4189453125 98.8603515625 11.2529296875 98.8603515625 20.505859375 c 0
 98.8603515625 24.7109375 99.380859375 29.2099609375 100.422851562 34.0009765625 c 0
 101.08984375 36.66796875 102.08984375 41.0009765625 103.422851562 47.0009765625 c 0
 106.08984375 56.333984375 110.08984375 72.333984375 115.422851562 95.0009765625 c 0
 124.08984375 132.333984375 135.422851562 183.666992188 149.422851562 249 c 0
 172.755859375 359.666992188 186.422851562 425 190.422851562 445 c 0
 201.728515625 497.540039062 215.024414062 554.059570312 230.310546875 614.560546875 c 1
 229.0703125 609.7109375 228.774414062 610.524414062 229.422851562 617.001953125 c 1
 228.08984375 611.668945312 227.756835938 612.001953125 228.423828125 618.001953125 c 0
 225.090820312 626.668945312 224.423828125 635.3359375 226.423828125 644.002929688 c 0
 227.090820312 646.669921875 227.756835938 649.002929688 228.423828125 651.002929688 c 0
 232.423828125 661.002929688 238.7578125 670.002929688 247.424804688 678.002929688 c 0
 256.091796875 686.002929688 265.091796875 691.002929688 274.424804688 693.002929688 c 0
 298.424804688 698.3359375 333.424804688 703.002929688 379.424804688 707.002929688 c 0
 419.9765625 709.780273438 450.344726562 711.168945312 470.530273438 711.168945312 c 0
 474.569335938 711.168945312 478.201171875 711.11328125 481.424804688 711.001953125 c 0
 529.424804688 711.001953125 570.7578125 703.001953125 605.424804688 687.001953125 c 0
 636.091796875 670.334960938 657.924804688 645.16796875 670.924804688 611.500976562 c 0
 678.272460938 592.471679688 681.946289062 571.47265625 681.946289062 548.50390625 c 0
 681.946289062 530.834960938 679.772460938 512.000976562 675.424804688 492.000976562 c 0
 666.7578125 454.000976562 652.7578125 418.333984375 633.424804688 385.000976562 c 0
 614.091796875 351.66796875 591.258789062 322.66796875 564.92578125 298.000976562 c 0
 538.592773438 273.333984375 507.759765625 253.666992188 472.426757812 239 c 0
 436.426757812 225 399.09375 218 360.426757812 218 c 0
 315.09375 218 278.426757812 220.666992188 250.426757812 226 c 1
 243.09375 188 236.760742188 149 231.427734375 109 c 0
EndSplineSet
Validated: 524289
EndChar

StartChar: Q
Encoding: 81 81 56
Width: 650
GlyphClass: 2
Flags: HMW
HStem: -24.002 21G<291.287 316.287> 612.496 105.504
VStem: 303.952 104.002
LayerCount: 2
Fore
SplineSet
503.951171875 -204 m 0
 494.618164062 -209.333007812 485.2890625 -212.002929688 475.956054688 -212.002929688 c 0
 471.2890625 -212.002929688 466.622070312 -211.3359375 461.955078125 -210.002929688 c 0
 448.622070312 -206.002929688 438.955078125 -197.669921875 432.955078125 -185.002929688 c 0
 426.288085938 -171.669921875 415.62109375 -149.169921875 400.954101562 -117.502929688 c 0
 386.287109375 -85.8359375 372.287109375 -53.6689453125 358.954101562 -21.001953125 c 1
 342.954101562 -23.001953125 325.62109375 -24.001953125 306.954101562 -24.001953125 c 0
 275.62109375 -24.001953125 247.62109375 -19.001953125 222.954101562 -9.001953125 c 0
 198.287109375 0.998046875 178.954101562 14.3310546875 164.954101562 30.998046875 c 0
 150.954101562 48.3310546875 139.954101562 68.3310546875 131.954101562 90.998046875 c 0
 124.217773438 115.313476562 120.348632812 142.276367188 120.348632812 171.885742188 c 0
 120.348632812 195.85546875 122.883789062 221.559570312 127.954101562 248.998046875 c 0
 131.287109375 265.665039062 134.954101562 282.33203125 138.954101562 298.999023438 c 0
 162.954101562 403.666015625 195.954101562 491.333007812 237.954101562 562 c 0
 265.287109375 606.666992188 302.954101562 644 350.954101562 674 c 0
 402.287109375 703.333007812 455.620117188 718 510.953125 718 c 0
 569.620117188 718 614.953125 699.333007812 646.953125 662 c 0
 661.620117188 643.333007812 671.620117188 618.333007812 676.953125 587 c 0
 679.796875 570.290039062 681.219726562 552.252929688 681.219726562 532.888671875 c 0
 681.219726562 515.942382812 680.129882812 497.979492188 677.952148438 479 c 0
 673.28515625 443 665.28515625 401.333007812 653.952148438 354 c 0
 634.619140625 270 615.952148438 207 597.952148438 165 c 0
 569.28515625 97 528.618164062 47 475.951171875 15 c 1
 489.284179688 -14.3330078125 505.951171875 -48 525.951171875 -86 c 0
 537.319335938 -108.104492188 543.00390625 -120.038085938 543.00390625 -121.80078125 c 0
 543.00390625 -121.8984375 542.986328125 -121.96484375 542.951171875 -122 c 0
 545.034179688 -127 546.076171875 -132.130859375 546.076171875 -137.390625 c 0
 546.076171875 -140.546875 545.701171875 -143.75 544.951171875 -147 c 0
 544.284179688 -149 543.6171875 -151.333007812 542.950195312 -154 c 0
 538.950195312 -164 533.283203125 -173.666992188 525.950195312 -183 c 0
 518.6171875 -192.333007812 511.284179688 -199.333007812 503.951171875 -204 c 0
302.955078125 113.997070312 m 0
 301.76953125 121.704101562 301.17578125 129.08203125 301.17578125 136.130859375 c 0
 301.17578125 144.93359375 302.1015625 153.22265625 303.952148438 160.997070312 c 0
 308.619140625 182.330078125 320.286132812 198.997070312 338.953125 210.997070312 c 0
 350.286132812 218.330078125 361.286132812 222.330078125 371.953125 222.997070312 c 0
 380.620117188 222.997070312 388.287109375 219.997070312 394.954101562 213.997070312 c 0
 401.62109375 207.997070312 405.954101562 198.6640625 407.954101562 185.997070312 c 0
 411.954101562 157.330078125 419.62109375 125.663085938 430.954101562 90.99609375 c 1
 455.62109375 108.329101562 475.288085938 133.99609375 489.955078125 167.99609375 c 0
 493.955078125 177.329101562 500.622070312 196.99609375 509.955078125 226.99609375 c 0
 519.288085938 256.99609375 529.288085938 294.663085938 539.955078125 339.99609375 c 2
 543.955078125 355.99609375 l 2
 553.288085938 395.329101562 559.955078125 432.99609375 563.955078125 468.99609375 c 0
 565.008789062 479.08203125 565.536132812 488.692382812 565.536132812 497.827148438 c 0
 565.536132812 529.14453125 559.341796875 554.8671875 546.955078125 574.99609375 c 0
 531.821289062 600 508.081054688 612.502929688 475.735351562 612.502929688 c 0
 475.309570312 612.502929688 474.8828125 612.5 474.455078125 612.49609375 c 0
 441.455078125 612.163085938 411.288085938 600.330078125 383.955078125 576.997070312 c 0
 355.288085938 552.330078125 330.288085938 517.997070312 308.955078125 473.997070312 c 0
 284.955078125 421.997070312 266.622070312 367.997070312 253.955078125 311.997070312 c 0
 249.288085938 291.997070312 245.288085938 271.6640625 241.955078125 250.997070312 c 0
 238.682617188 230.997070312 237.045898438 212.137695312 237.045898438 194.41796875 c 0
 237.045898438 179.65234375 238.182617188 165.678710938 240.455078125 152.497070312 c 0
 245.455078125 123.497070312 255.622070312 100.6640625 270.955078125 83.9970703125 c 0
 283.622070312 70.6640625 298.622070312 62.9970703125 315.955078125 60.9970703125 c 1
 309.288085938 82.330078125 304.955078125 99.9970703125 302.955078125 113.997070312 c 0
EndSplineSet
Validated: 524289
EndChar

